<?xml version="1.0" standalone="no"?>
<!DOCTYPE svg PUBLIC "-//W3C//DTD SVG 1.1//EN" "http://www.w3.org/Graphics/SVG/1.1/DTD/svg11.dtd" >
<svg xmlns="http://www.w3.org/2000/svg">
<metadata></metadata>
<defs>
<font id="nissan_prolight_extended" horiz-adv-x="1449" >
<font-face units-per-em="2048" ascent="1536" descent="-512" />
<missing-glyph horiz-adv-x="641" />
<glyph unicode="&#xfb01;" horiz-adv-x="1150" d="M20 907v105h201v198q0 64 11.5 108t46.5 85q40 47 95.5 62.5t131.5 15.5q98 0 192 -21v-119q-97 21 -184 21q-21 0 -36.5 -1.5t-40.5 -11t-41 -26.5t-28 -52t-12 -83v-176h342v-105h-342v-907h-135v907h-201zM870 0v1012h136v-1012h-136zM870 1192v197h136v-197h-136z " />
<glyph unicode="&#xfb02;" horiz-adv-x="1150" d="M20 907v105h201v198q0 64 11.5 108t46.5 85q40 47 95.5 62.5t131.5 15.5q98 0 192 -21v-119q-97 21 -184 21q-21 0 -36.5 -1.5t-40.5 -11t-41 -26.5t-28 -52t-12 -83v-176h342v-105h-342v-907h-135v907h-201zM872 0v1446h136v-1446h-136z" />
<glyph horiz-adv-x="2048" />
<glyph horiz-adv-x="2048" />
<glyph unicode="&#xd;" horiz-adv-x="2048" />
<glyph unicode=" "  horiz-adv-x="641" />
<glyph unicode="&#x09;" horiz-adv-x="641" />
<glyph unicode="&#xa0;" horiz-adv-x="641" />
<glyph unicode="!" horiz-adv-x="641" d="M281 0v203h157v-203h-157zM287 866v580h145v-623l-26 -413h-95z" />
<glyph unicode="&#x22;" horiz-adv-x="712" d="M72 1524h182l-53 -596h-74zM459 1524h182l-53 -596h-74z" />
<glyph unicode="#" horiz-adv-x="1572" d="M100 530v111h422l19 199h-414v116h424l47 490h129l-51 -490h297l45 490h123l-49 -490h385v-116h-396l-20 -199h391v-111h-401l-52 -530h-127l58 530h-297l-58 -530h-118l53 530h-410zM643 641h297l21 199h-297z" />
<glyph unicode="$" horiz-adv-x="1662" d="M66 362l151 58q53 -155 196 -238.5t369 -89.5v615q-50 5 -82.5 8.5t-82.5 10t-84.5 14t-79 19t-75.5 26.5t-65.5 34t-57 43.5t-42 54t-28.5 67.5t-9 81t13.5 88.5t44.5 96.5t91 97.5t142 77.5q129 49 315 58v131h123v-131q157 -13 281 -51t239 -136q18 -16 40 -37.5 t39 -40.5l18 -20l-133 -70q-135 204 -484 228v-527q206 -25 316 -50t182 -70q22 -13 45 -33.5t51 -54.5t46 -84t18 -107q0 -35 -8.5 -72.5t-28.5 -84.5t-62.5 -95.5t-101.5 -89.5q-160 -109 -438 -123h-19v-137h-123v137q-84 4 -158.5 15.5t-131 25.5t-108.5 38.5t-86.5 44 t-69.5 52t-53.5 52t-42.5 55.5t-32.5 51.5t-26.5 49.5q-5 9 -7 13zM324 1075q0 -36 12 -64.5t30.5 -49.5t53.5 -37.5t67.5 -27.5t86.5 -20.5t97 -15t111 -12.5v510q-22 0 -60 -4.5t-104 -17t-131.5 -45.5t-107.5 -81q-55 -62 -55 -135zM905 94q106 7 181.5 23t152.5 57 q174 92 174 250q0 89 -65 145q-52 45 -150.5 69.5t-292.5 51.5v-596z" />
<glyph unicode="%" horiz-adv-x="2217" d="M61 965q0 106 36.5 193.5t97.5 143t137 85.5t157 30q84 0 155.5 -27t121 -72t84.5 -104.5t51.5 -123.5t16.5 -129q0 -85 -28.5 -165.5t-81.5 -145.5t-137.5 -104.5t-187.5 -39.5q-98 0 -180 40.5t-133.5 106.5t-80 147t-28.5 165zM164 963q0 -164 90.5 -265.5 t232.5 -101.5q138 0 232 96.5t94 263.5q0 70 -20 135t-58 118.5t-102 85.5t-144 32q-156 0 -240.5 -102.5t-84.5 -261.5zM641 0l817 1409h109l-817 -1409h-109zM1294 446q0 106 36.5 193.5t97.5 143.5t137 86t157 30q104 0 188 -41t135 -108t78 -146.5t27 -161.5 q0 -85 -28.5 -165t-81 -145t-137 -104.5t-187.5 -39.5q-98 0 -180 40.5t-133.5 106t-80 146.5t-28.5 165zM1397 444q0 -164 90.5 -265t232.5 -101q138 0 232 96.5t94 263.5q0 70 -20 135t-58 118.5t-102 85.5t-144 32q-156 0 -240.5 -103t-84.5 -262z" />
<glyph unicode="&#x26;" horiz-adv-x="1579" d="M78 381q0 60 19.5 113.5t55.5 94.5t78 74.5t96.5 60.5t100.5 45.5t100 35.5q-38 46 -57.5 72.5t-46 68.5t-38 83.5t-11.5 86.5q0 101 65 182q99 123 301 123q143 0 238.5 -88.5t95.5 -222.5q0 -93 -49 -166q-25 -36 -56.5 -65.5t-74.5 -53.5t-72.5 -37.5t-83.5 -35.5 q206 -232 402 -406q130 180 155 422h134q-46 -311 -195 -498q110 -83 168 -109.5t143 -37.5v-123q-59 0 -113.5 13.5t-109 43t-89.5 53t-93 66.5q-101 -101 -240 -155t-289 -54q-31 0 -61.5 2t-89 13t-108.5 31t-106.5 60.5t-96.5 96.5q-72 97 -72 211zM223 387q0 -30 9 -65 t36.5 -78t69 -76.5t114 -56.5t164.5 -23q137 0 249 48t186 116q-141 129 -244.5 234.5t-194.5 218.5q-1 0 -28 -9.5t-58 -21t-71 -28t-68 -30.5q-164 -80 -164 -229zM514 1116q0 -56 32.5 -113.5t112.5 -152.5q149 53 219 118t70 154q0 82 -63.5 134.5t-149.5 52.5 q-91 0 -156 -53.5t-65 -139.5z" />
<glyph unicode="'" horiz-adv-x="325" d="M72 1524h182l-53 -596h-74z" />
<glyph unicode="(" horiz-adv-x="724" d="M158 541q0 528 370 870q21 19 62.5 52.5t48.5 39.5l51 -53q-106 -106 -168 -197q-105 -153 -159 -347t-54 -392q0 -258 98 -488.5t283 -412.5l-51 -59q-234 181 -357.5 436t-123.5 551z" />
<glyph unicode=")" horiz-adv-x="724" d="M37 -393q108 108 168 196q102 150 156.5 343.5t54.5 383.5q0 541 -379 914l51 59q231 -180 356 -435t125 -546q0 -532 -372 -876q-41 -39 -109 -92z" />
<glyph unicode="*" horiz-adv-x="731" d="M68 1202l28 88l217 -57v223h99v-227l221 74l31 -84l-226 -80l137 -187l-75 -55l-140 184l-124 -184l-78 55l127 189z" />
<glyph unicode="+" horiz-adv-x="1581" d="M195 541v121h534v485h123v-485h537v-121h-537v-490h-123v490h-534z" />
<glyph unicode="," horiz-adv-x="555" d="M199 0v203h153v-256q0 -76 -38 -127t-111 -58v74q25 4 41 18t22 38t8 43t2 47v18h-77z" />
<glyph unicode="-" horiz-adv-x="745" d="M78 541v123h590v-123h-590z" />
<glyph unicode="." horiz-adv-x="555" d="M197 0v203h157v-203h-157z" />
<glyph unicode="/" horiz-adv-x="1024" d="M35 0l817 1446h121l-815 -1446h-123z" />
<glyph unicode="0" horiz-adv-x="1492" d="M61 707q0 113 33.5 231.5t93.5 208.5q21 31 49 63t80 74.5t111.5 74.5t144.5 54.5t177 22.5q51 0 107.5 -9.5t133.5 -35t155 -83t138 -141.5q54 -75 98.5 -192t44.5 -270q0 -178 -73 -336t-211 -260q-56 -42 -119.5 -70.5t-121 -40.5t-96 -16.5t-71.5 -4.5 q-196 0 -351.5 99.5t-239 265.5t-83.5 365zM209 700q0 -133 35 -233q56 -166 190 -264.5t307 -98.5q114 0 213 43q44 19 85 46.5t86 76t77.5 108.5t54 147t21.5 188q0 309 -186 469q-146 127 -349 127q-136 0 -260 -66q-72 -38 -126 -98.5t-86 -133t-47 -150t-15 -161.5z " />
<glyph unicode="1" horiz-adv-x="1492" d="M338 1016v117q82 0 142.5 11.5t117.5 41t97.5 88t64.5 145.5h94v-1419h-141v1112q-123 -96 -348 -96h-27z" />
<glyph unicode="2" horiz-adv-x="1492" d="M150 0v131q403 185 553 266q311 169 425 327q80 113 80 237q0 28 -7.5 64t-35 90t-72.5 96t-130 73t-197 31q-91 0 -173.5 -22t-155.5 -76t-109 -134q-37 -80 -37 -190l-141 22q24 251 189.5 387t432.5 136q245 0 408 -129q174 -136 174 -348q0 -99 -43 -199 q-45 -104 -145.5 -197.5t-293.5 -206.5q-84 -49 -173.5 -92.5t-148 -69t-181.5 -75.5h1003v-121h-1222z" />
<glyph unicode="3" horiz-adv-x="1492" d="M113 352l145 49q56 -125 137 -188q147 -119 377 -119q129 0 234.5 35t172 110t66.5 179q0 78 -51 143q-58 71 -145.5 93t-206.5 22h-232v121h248q94 0 154 22q23 8 46.5 20.5t56.5 38.5t54 69t21 97q0 53 -20 95.5t-50 69.5t-73 47.5t-81 30.5t-82.5 16t-69 7t-48.5 1 q-25 0 -46 -1t-66 -7.5t-82 -17.5t-84 -35t-82 -56.5t-66.5 -85t-46.5 -117.5l-135 45q129 398 608 398q126 0 226.5 -26.5t161.5 -67.5t102 -95t57 -104.5t16 -100.5q0 -109 -67.5 -184.5t-188.5 -101.5q43 -4 93 -25.5t100.5 -59.5t84 -104t33.5 -147q0 -33 -6.5 -68 t-23.5 -81.5t-55 -94t-93 -84.5q-68 -47 -181.5 -81t-264.5 -34q-249 0 -416 105q-154 98 -231 272z" />
<glyph unicode="4" horiz-adv-x="1492" d="M70 379v121l876 923h152v-923h305v-121h-305v-379h-137v379h-891zM233 500h728v770z" />
<glyph unicode="5" horiz-adv-x="1492" d="M94 354l139 39q40 -141 166.5 -219t323.5 -78q69 0 138.5 13.5t138.5 44t121.5 75.5t85 114t32.5 153q0 81 -32.5 147t-83.5 108t-117.5 70t-130.5 39.5t-127 11.5q-233 0 -383 -135q-13 -12 -25 -23.5t-21.5 -22.5t-15 -18.5t-13 -17.5t-9.5 -12h-129l45 766h1081v-115 h-959l-28 -479q168 176 481 176q106 0 197 -22.5t154 -60t105.5 -76t71.5 -82.5q76 -110 76 -256q0 -135 -69 -246q-30 -49 -75 -93t-113 -86t-167 -67t-215 -25q-34 0 -73 3t-104.5 13.5t-136.5 37.5t-130 67q-138 95 -199 256z" />
<glyph unicode="6" horiz-adv-x="1492" d="M109 653q0 124 23.5 231t58.5 179.5t83.5 132t90.5 93.5t88 59q148 82 342 82q37 0 77.5 -4t106 -17t135 -45.5t127.5 -81.5q62 -51 141 -160l-129 -59q-166 242 -473 242q-121 0 -216.5 -41.5t-154.5 -106t-98 -151t-54.5 -168.5t-16.5 -166q26 71 88.5 125t142.5 83.5 t161 43.5t159 14q32 0 64.5 -2t102.5 -14t129.5 -33t128 -65t115.5 -105q86 -110 86 -246q0 -132 -76 -244q-87 -127 -239.5 -189.5t-321.5 -62.5q-139 0 -270 46q-78 28 -141.5 71.5t-104 90t-71 104t-46 106t-25 103t-11.5 88t-2 67.5zM297 471q0 -56 17 -106.5t44 -85.5 t48.5 -56t42.5 -35q48 -34 131.5 -59t193.5 -25q28 0 52 1t81 10t104 24.5t102 49.5t93 81q72 91 72 197q0 64 -28 122.5t-85 109.5t-156.5 81.5t-228.5 30.5q-95 0 -179.5 -20.5t-153.5 -60.5t-109.5 -107t-40.5 -152z" />
<glyph unicode="7" horiz-adv-x="1492" d="M147 1286v123h1233v-102q-179 -128 -360 -392q-328 -484 -328 -915h-153q0 108 27 231t63.5 219.5t84.5 194.5t78 149.5t56 92.5q123 185 330 399h-1031z" />
<glyph unicode="8" horiz-adv-x="1492" d="M100 389q0 72 33 135.5t87.5 107t119.5 71t133 36.5q-31 5 -59.5 13t-77.5 31t-84 53.5t-61.5 86t-26.5 124.5q0 81 37.5 148t98 110t140 73t160.5 43t162 13q110 0 208.5 -22t181.5 -66.5t132.5 -121t50.5 -175.5q0 -112 -78 -197q-83 -88 -239 -113q69 -7 134.5 -33.5 t119.5 -69t86.5 -106.5t32.5 -139q0 -100 -56 -186q-148 -228 -594 -228q-263 0 -432 93q-95 53 -152 135t-57 184zM242 391q0 -120 125 -201q148 -94 376 -94q226 0 361 74q145 79 145 219q0 52 -21.5 95.5t-55.5 71.5t-81 50t-92 33.5t-95 19t-84.5 9.5t-65.5 2 q-249 0 -381 -76q-17 -9 -34.5 -22t-41.5 -37.5t-39.5 -62t-15.5 -81.5zM309 1055q0 -61 32 -108t80 -73.5t111.5 -43t117.5 -22t108 -5.5q128 0 227.5 29.5t144.5 68.5q25 22 46.5 62t21.5 94q0 49 -19.5 90t-49.5 67.5t-72 46.5t-81.5 30.5t-84.5 17t-74.5 8.5t-56.5 2 q-87 0 -158 -11.5t-117 -29t-80.5 -43t-52 -48.5t-28 -51t-13 -45.5t-2.5 -35.5z" />
<glyph unicode="9" horiz-adv-x="1492" d="M90 930q0 118 68 229q24 38 56 73t84 73t114 65.5t147.5 45.5t181.5 18q33 0 64 -2.5t84 -10t103.5 -26t105.5 -47t106.5 -77t91.5 -110.5q109 -166 109 -418q0 -243 -80 -409q-33 -69 -79 -124.5t-92.5 -91.5t-101.5 -63t-100 -41t-94 -22t-78 -10t-57 -2q-35 0 -75 4 t-103 16.5t-131.5 43t-126.5 75.5q-71 55 -137 147l126 62q52 -61 64 -72q77 -74 181 -114t214 -40q143 0 262 66.5t187 189.5q22 39 37 77t32 125.5t23 201.5q-33 -79 -100 -138t-150 -91t-166 -47t-166 -15q-25 0 -51 1.5t-79 8t-103.5 22t-106.5 39.5t-107.5 66.5 t-88.5 96.5q-68 103 -68 225zM231 938q0 -68 23 -122.5t57 -89t83 -60.5t91.5 -38.5t91.5 -19.5t74.5 -8.5t48.5 -1.5q38 0 76.5 3.5t106 15.5t132.5 44.5t113 81.5q82 82 82 201t-64.5 202.5t-168 122t-236.5 38.5q-157 0 -266.5 -49t-165.5 -115q-78 -90 -78 -205z" />
<glyph unicode=":" horiz-adv-x="641" d="M283 0v203h161v-203h-161zM283 801v200h161v-200h-161z" />
<glyph unicode=";" horiz-adv-x="641" d="M283 0v203h153v-256q0 -76 -38 -127t-111 -58v74q73 12 73 129v35h-77zM283 801v200h161v-200h-161z" />
<glyph unicode="&#x3c;" horiz-adv-x="1581" d="M203 535v137l1110 495v-131l-979 -426l979 -417v-138z" />
<glyph unicode="=" horiz-adv-x="1581" d="M193 354v119h1196v-119h-1196zM193 717v119h1196v-119h-1196z" />
<glyph unicode="&#x3e;" horiz-adv-x="1581" d="M268 55v131l979 428l-979 416v137l1110 -479v-137z" />
<glyph unicode="?" d="M164 1034q72 235 228 340t384 105q30 0 57.5 -1.5t89 -11.5t112.5 -27.5t112 -56t104 -90.5q95 -116 95 -270q0 -166 -101 -281q-86 -97 -276 -153q-1 0 -25 -6.5t-33.5 -9t-32 -10t-35 -13t-26.5 -14t-22 -17.5q-16 -17 -20.5 -40.5t-6.5 -74.5h-127v19q0 42 5.5 75 t13 57t25 43t32.5 31t45.5 24t53 19t65.5 19q56 15 98 30.5t88 42.5t75 60t48.5 82.5t19.5 110.5q0 162 -123 252q-124 90 -315 90q-78 0 -147 -18t-117.5 -48t-80.5 -58t-54 -58q-46 -60 -88 -187zM627 0v203h153v-203h-153z" />
<glyph unicode="@" horiz-adv-x="1906" d="M141 522q0 195 73.5 368.5t200 298t302.5 197t373 72.5q307 0 487 -165.5t180 -448.5q0 -104 -27 -208.5t-75 -191t-108.5 -154t-132 -105.5t-142.5 -38q-85 0 -125 45.5t-43 145.5q-78 -101 -154.5 -144.5t-169.5 -43.5q-125 0 -196.5 87.5t-71.5 239.5q0 150 62 284 t165 214t219 80q87 0 144.5 -42.5t107.5 -152.5l35 148h125l-119 -516q-14 -67 -14 -142q0 -46 22 -75t56 -29q59 0 123 61q103 95 165 242.5t62 296.5q0 244 -157.5 385t-428.5 141q-175 0 -330.5 -65.5t-266.5 -178t-175.5 -270.5t-64.5 -336q0 -314 192.5 -499 t519.5 -185q190 0 379 74q102 40 170 83.5t176 139.5l60 -65q-136 -113 -218 -165t-192 -93q-180 -66 -364 -66q-242 0 -429.5 97t-291 273.5t-103.5 405.5zM649 481q0 -105 50.5 -166t136.5 -61q65 0 121.5 36t93.5 90t63.5 118t38.5 120t12 97q0 106 -52.5 168.5 t-143.5 62.5q-82 0 -156.5 -65t-119 -172.5t-44.5 -227.5z" />
<glyph unicode="A" horiz-adv-x="1622" d="M12 0l713 1446h156l729 -1446h-150l-186 375h-932l-184 -375h-146zM397 489h820l-414 828z" />
<glyph unicode="B" horiz-adv-x="1878" d="M168 0v1446h1132q203 0 316 -154q67 -90 67 -209q0 -133 -73 -214.5t-178 -102.5q152 -12 238.5 -118.5t86.5 -254.5q0 -28 -4 -58t-16.5 -78t-44.5 -95.5t-80 -81.5q-66 -48 -142 -64t-176 -16h-1126zM309 121h987q97 0 168.5 28t112.5 103q37 66 37 141q0 105 -55 178 q-31 42 -74.5 69t-100 37.5t-98.5 13.5t-106 3h-871v-573zM309 817h883q98 0 167 18.5t120 79.5q55 65 55 160q0 82 -39 144q-45 69 -112.5 89.5t-170.5 20.5h-903v-512z" />
<glyph unicode="C" horiz-adv-x="1693" d="M84 729q0 273 168 473q63 76 142 132t147.5 85t144.5 46.5t122 21.5t91 4q46 0 99.5 -6.5t135 -25t169.5 -64t161 -111.5q45 -41 78 -83t74 -107l-123 -68q-35 65 -80.5 117t-90.5 86.5t-97 60t-95 39t-90 21.5t-77 10t-60 2q-42 0 -88.5 -6t-118 -23.5t-147.5 -60 t-137 -105.5q-56 -57 -94 -126t-53.5 -133.5t-21 -107t-5.5 -81.5q0 -40 5.5 -82t21.5 -105.5t55.5 -131t97.5 -124.5q50 -50 111 -86.5t112.5 -55t109 -29.5t89.5 -13t65 -2q412 0 623 359l125 -60q-26 -45 -45.5 -75t-70 -85.5t-112.5 -101.5q-222 -164 -528 -164 q-304 0 -506 148q-147 108 -227 269.5t-80 348.5z" />
<glyph unicode="D" horiz-adv-x="1748" d="M170 0v1446h723q167 0 285.5 -31.5t224.5 -118.5q66 -55 114.5 -126.5t73 -133.5t38.5 -131.5t17 -108.5t3 -77q0 -120 -29 -225q-38 -140 -125.5 -250.5t-214.5 -169.5q-100 -46 -205.5 -60t-249.5 -14h-655zM313 121h461q74 0 120.5 1.5t117 9.5t121 22.5t106.5 43.5 t100 70q164 156 164 443q0 127 -34.5 237.5t-114.5 202.5t-197 135q-110 41 -264 41h-580v-1206z" />
<glyph unicode="E" horiz-adv-x="1705" d="M170 0v1446h1384v-119h-1243v-508h1149v-123h-1149v-575h1303v-121h-1444z" />
<glyph unicode="F" horiz-adv-x="1536" d="M170 0v1446h1331v-119h-1190v-514h1065v-125h-1065v-688h-141z" />
<glyph unicode="G" horiz-adv-x="1835" d="M90 719q0 294 176 498q40 48 92 90t131 86.5t189 71t235 26.5q43 0 93 -5t133.5 -20.5t173 -55t162.5 -97.5q98 -80 174 -205l-136 -78q-45 87 -113.5 152t-149.5 103t-168 56.5t-181 18.5q-147 0 -271.5 -49t-209.5 -134.5t-132.5 -202.5t-47.5 -251q0 -244 139 -410 q34 -40 77.5 -75t109.5 -71t159.5 -57.5t200.5 -21.5q90 0 179 22.5t169.5 69t142.5 110t100.5 152.5t41.5 191h-768v123h892v-756h-124v295q-48 -85 -113 -145q-33 -31 -79 -60.5t-113.5 -60.5t-158.5 -50.5t-190 -19.5q-117 0 -231 27.5t-220.5 88.5t-186.5 148 t-128.5 215t-48.5 281z" />
<glyph unicode="H" horiz-adv-x="1835" d="M170 0v1446h141v-619h1215v619h137v-1446h-137v707h-1215v-707h-141z" />
<glyph unicode="I" horiz-adv-x="468" d="M168 0v1446h137v-1446h-137z" />
<glyph unicode="J" horiz-adv-x="1280" d="M12 354l144 54q15 -63 44.5 -114t63.5 -83t77 -56t78.5 -35.5t76.5 -18.5t62.5 -8t43.5 -1q19 0 37 1t60.5 7.5t77.5 18.5t75.5 38t67.5 62q39 50 60 133t24.5 144.5t3.5 150.5v799h135v-893q0 -70 -6 -127.5t-22.5 -119t-43.5 -110t-73 -92.5t-107 -75 q-130 -66 -299 -66q-214 0 -361 96q-142 91 -219 295z" />
<glyph unicode="K" horiz-adv-x="1622" d="M170 0v1446h137v-879l1082 879h190l-684 -557l719 -889h-182l-646 801l-479 -389v-412h-137z" />
<glyph unicode="L" horiz-adv-x="1409" d="M170 0v1446h143v-1325h1053v-121h-1196z" />
<glyph unicode="M" horiz-adv-x="1921" d="M168 0v1446h184l617 -1315l606 1315h180v-1446h-129v1282l-590 -1282h-143l-594 1270v-1270h-131z" />
<glyph unicode="N" horiz-adv-x="1835" d="M170 0v1446h129l1239 -1268v1268h129v-1446h-129l-1239 1262v-1262h-129z" />
<glyph unicode="O" horiz-adv-x="1878" d="M86 725q0 147 47.5 273t129 215.5t190 153t232 94t253.5 30.5q42 0 83.5 -3.5t112.5 -13.5t139 -35t141 -62.5t142 -102t121 -146.5q117 -187 117 -401q0 -40 -5.5 -85t-20.5 -110.5t-51 -138t-89 -135.5q-66 -80 -152 -138.5t-159.5 -88t-157.5 -46.5t-131 -20.5 t-94 -3.5q-33 0 -68 2t-96 11t-117 24t-125.5 44.5t-128.5 69.5t-117.5 102t-101.5 138q-94 169 -94 373zM238 719q0 -132 47 -248q30 -75 77.5 -136.5t98 -101t112 -69t113 -44t107.5 -23.5t87.5 -11t61.5 -2q146 0 265 38.5t197.5 103t132 152.5t76.5 182t23 196 q0 123 -47 232.5t-133.5 194t-221 134t-298.5 49.5q-269 0 -449 -133q-38 -28 -75.5 -67.5t-79.5 -102t-68 -152.5t-26 -192z" />
<glyph unicode="P" horiz-adv-x="1662" d="M168 0v1446h960q53 0 93 -2.5t92 -11.5t91 -25t78.5 -46t67.5 -71q76 -104 76 -239q0 -198 -147 -310q-75 -58 -167.5 -76t-215.5 -18h-785v-647h-143zM311 766h736q61 0 95 1.5t87.5 9.5t95 27.5t74.5 51.5q78 73 78 195q0 17 -3.5 39.5t-12.5 57t-32.5 68.5t-56.5 58 q-77 53 -229 53h-832v-561z" />
<glyph unicode="Q" horiz-adv-x="1878" d="M82 725q0 317 227 532q64 61 143 106t145 67.5t139.5 36t114.5 16t81 2.5q343 0 573 -178q136 -105 210.5 -259.5t74.5 -328.5q0 -321 -254 -553l285 -156l-62 -110l-338 186q-54 -30 -85 -45t-93 -38t-135.5 -33.5t-161.5 -10.5q-292 0 -506 125q-90 53 -158.5 125.5 t-105 140.5t-59 144.5t-29 128.5t-6.5 102zM236 723q0 -284 184 -457q97 -91 235.5 -137.5t284.5 -46.5q170 0 323 63.5t248 192.5q123 169 123 389q0 28 -2.5 57.5t-10 75.5t-25 91t-43 94t-68 97t-96.5 87q-62 44 -137.5 73.5t-147.5 40.5t-112 14t-77 3q-32 0 -65.5 -2.5 t-99.5 -15.5t-124 -36t-126.5 -70.5t-120.5 -111.5q-143 -177 -143 -401z" />
<glyph unicode="R" horiz-adv-x="1792" d="M170 0v1446h1065q50 0 92 -5.5t95 -21t101 -51.5t83 -90q63 -96 63 -229q0 -30 -4.5 -60.5t-17.5 -77t-45 -92.5t-80 -82q-39 -29 -82.5 -47t-97.5 -27t-88.5 -12t-98.5 -6l582 -645h-195l-571 645h-662v-645h-139zM309 768h781q57 0 91.5 1.5t87.5 9.5t88 22.5t71 44.5 t57 72q33 66 33 139q0 18 -3.5 41t-14 57t-34.5 67.5t-59 57.5q-34 22 -77 33t-72.5 12.5t-83.5 1.5h-865v-559z" />
<glyph unicode="S" horiz-adv-x="1662" d="M66 362l151 58l13.5 -34.5t20.5 -41.5t30.5 -48.5t43.5 -48t60.5 -48.5t79 -42t101.5 -36t126.5 -22t155.5 -9q110 0 210.5 21.5t181 61.5t128 104.5t47.5 144.5q0 49 -15 86t-53.5 63.5t-71 43.5t-102 31.5t-109 20.5t-127.5 18q-5 1 -7 1l-316 43q-181 25 -264 68 q-25 13 -48.5 30t-54.5 49t-50 81t-19 108q0 183 175.5 301.5t490.5 118.5q45 0 89.5 -3t129 -19t157 -44t156.5 -84.5t146 -134.5l-131 -70q-164 230 -557 230q-75 0 -146 -10t-137.5 -32.5t-116 -55t-79 -82t-29.5 -109.5q0 -102 112 -156q42 -20 96.5 -31t172.5 -26 q49 -7 145.5 -20.5t136 -19t107.5 -16.5t103.5 -19.5t77.5 -20.5t73 -25q99 -42 157 -122t58 -185q0 -117 -68 -215q-87 -123 -249 -187.5t-435 -64.5q-38 0 -82.5 3t-122 16t-147 34t-145 63.5t-128.5 98.5q-26 27 -49 60t-36 55.5t-37 68.5z" />
<glyph unicode="T" horiz-adv-x="1409" d="M-2 1327v119h1407v-119h-621v-1327h-137v1327h-649z" />
<glyph unicode="U" horiz-adv-x="1792" d="M162 610v836h133v-830q0 -113 14 -192t64 -148q132 -182 489 -182q243 0 375 50t197 163q36 63 48.5 144t12.5 231v764h131v-873q0 -213 -86 -350q-60 -97 -149.5 -151.5t-212.5 -81.5t-269 -27q-206 0 -356 43q-269 77 -354 311q-37 99 -37 293z" />
<glyph unicode="V" d="M0 1446h156l598 -1294l579 1294h154l-670 -1446h-135z" />
<glyph unicode="W" horiz-adv-x="2174" d="M6 1446h146l421 -1299l447 1299h149l457 -1299l406 1299h137l-459 -1446h-168l-448 1300l-445 -1300h-164z" />
<glyph unicode="X" horiz-adv-x="1492" d="M-8 1446h178l567 -606l527 606h172l-613 -705l693 -741h-179l-600 645l-557 -645h-172l641 741z" />
<glyph unicode="Y" horiz-adv-x="1492" d="M12 1446h172l576 -744l557 744h164l-656 -860v-586h-131v586z" />
<glyph unicode="Z" horiz-adv-x="1536" d="M0 0v117l1350 1210h-1237v119h1423v-127l-1337 -1198h1300v-121h-1499z" />
<glyph unicode="[" horiz-adv-x="598" d="M166 -434v1929h383v-127h-250v-1675h250v-127h-383z" />
<glyph unicode="\" horiz-adv-x="1024" d="M35 1446h123l815 -1446h-121z" />
<glyph unicode="]" horiz-adv-x="598" d="M49 -309h250v1675h-250v129h383v-1929h-383v125z" />
<glyph unicode="^" horiz-adv-x="1581" d="M297 586l436 860h141l410 -860h-137l-346 731l-365 -731h-139z" />
<glyph unicode="_" horiz-adv-x="1024" d="M-20 -301h1064v-121h-1064v121z" />
<glyph unicode="`" horiz-adv-x="768" d="M195 1432h225l153 -297h-88z" />
<glyph unicode="a" horiz-adv-x="1366" d="M84 303q0 74 34 141.5t93 108.5q52 36 132 58.5t205.5 33t231.5 14t293 5.5q0 103 -35 153q-71 101 -383 101q-93 0 -160 -9.5t-109 -24.5t-71 -43.5t-44.5 -57t-30.5 -74.5l-144 8q8 32 16 53.5t28.5 62t56 75.5t84.5 61q131 71 362 71q368 0 487 -131 q41 -47 54.5 -99.5t13.5 -123.5v-444q0 -83 30 -110.5t101 -27.5h35v-104q-70 -8 -135 -8q-30 0 -54 7t-39.5 20t-26.5 26t-17.5 31t-10 29t-6 25.5t-2.5 16.5q-62 -47 -110 -73q-186 -101 -426 -101q-82 0 -143 8t-129 39t-113 86q-68 84 -68 197zM229 299q0 -57 30.5 -99 t80.5 -64t103 -32t110 -10q49 0 111.5 10t136 31t138.5 62.5t97 97.5q37 64 37 201v53h-63q-434 0 -607.5 -53t-173.5 -197z" />
<glyph unicode="b" d="M147 0v1446h138v-598q61 80 176.5 135t294.5 55q35 0 75 -4t106 -17.5t135 -47.5t124 -84q50 -46 84 -105t48 -115t19 -92.5t5 -68.5q0 -106 -35.5 -195t-95 -149.5t-138 -102.5t-164 -61t-174.5 -19q-135 0 -260.5 46t-201.5 135v-158h-136zM281 500q0 -23 3 -49.5 t12 -72t33.5 -91.5t61.5 -80q121 -111 350 -111q133 0 227.5 45.5t145.5 102.5q45 51 67.5 124.5t22.5 137.5q0 179 -130.5 292t-346.5 113q-99 0 -194.5 -31t-157.5 -94q-94 -98 -94 -286z" />
<glyph unicode="c" horiz-adv-x="1366" d="M82 512q0 206 133 348q88 94 224 143.5t274 49.5q45 0 88 -4t116 -23t135.5 -51t132.5 -95.5t122 -150.5l-136 -55q-18 38 -71.5 98t-108.5 92q-117 72 -282 72q-155 0 -260.5 -60.5t-155.5 -146.5q-60 -97 -60 -215q0 -105 42.5 -188t112 -131.5t151 -73.5t166.5 -25 q103 0 207.5 37t172.5 103q58 58 107 159l135 -51q-82 -134 -153 -201q-178 -166 -484 -166q-125 0 -227 31q-42 13 -83 32t-98 60.5t-98.5 93.5t-71.5 135.5t-30 182.5z" />
<glyph unicode="d" d="M90 512q0 101 34.5 187.5t94.5 148.5t139.5 106.5t169.5 66t185 21.5q26 0 58.5 -2.5t92 -13.5t111 -30t105.5 -57t85 -89v596h135v-1446h-135v154q-21 -26 -52.5 -52t-86.5 -58.5t-139 -52.5t-182 -20q-157 0 -302 63t-227 185q-86 122 -86 293zM242 506q0 -99 45 -189 q32 -63 84.5 -109t100 -68.5t105.5 -35t87 -14.5t59 -2q110 0 214 39.5t161 120.5q67 93 67 262q0 205 -112 301q-138 117 -342 117q-100 0 -195 -35q-69 -24 -121.5 -64.5t-80.5 -81.5t-45.5 -89.5t-22 -83t-4.5 -68.5z" />
<glyph unicode="e" horiz-adv-x="1366" d="M96 528q0 107 42 206t120 167q60 54 167 98.5t249 44.5q40 0 83 -5t109.5 -21t135.5 -55t126 -97q145 -145 156 -374h-1046q9 -127 78 -219t173 -136.5t230 -44.5q304 0 459 260l106 -76q-89 -126 -203 -200q-164 -103 -376 -103q-209 0 -369 107q-113 74 -176.5 192 t-63.5 256zM242 606h878q-34 159 -172 248q-117 76 -284 76q-187 0 -299 -107q-44 -42 -72 -87t-36 -70t-15 -60z" />
<glyph unicode="f" horiz-adv-x="724" d="M20 907v105h201v198q0 64 11.5 108t46.5 85q40 47 95.5 62.5t131.5 15.5q98 0 192 -21v-119q-97 21 -184 21q-21 0 -36.5 -1.5t-40.5 -10t-41 -24.5t-28 -48t-12 -76v-190h342v-105h-342v-907h-135v907h-201z" />
<glyph unicode="g" horiz-adv-x="1409" d="M82 512q0 194 119 332q173 198 487 198q140 0 261.5 -49.5t187.5 -128.5q-4 113 -4 148h131v-934q0 -127 -27 -209q-67 -212 -352 -262q-105 -17 -197 -17q-27 0 -60.5 2t-95 8.5t-123 25t-106.5 46.5q-129 79 -149 254h141q3 -26 7 -41.5t15.5 -41t36.5 -47t62 -38.5 q107 -47 266 -47q121 0 227 27q57 14 95 34t69 57t45.5 96.5t14.5 146.5v88q-14 -19 -30.5 -36.5t-57 -47.5t-88 -51t-124 -37.5t-163.5 -16.5q-154 0 -271 49q-40 17 -76.5 38.5t-82.5 63.5t-79 93t-56 129t-23 168zM229 510q0 -90 39 -182q29 -64 77.5 -110.5t94 -70 t100.5 -37t85.5 -16t60.5 -2.5q97 0 193 31.5t157 93.5q101 101 101 295q0 224 -123 319q-49 39 -129.5 69t-186.5 30q-200 0 -334.5 -112.5t-134.5 -307.5z" />
<glyph unicode="h" d="M143 0v1446h136v-598q47 81 175.5 135.5t305.5 54.5q64 0 127 -9t137.5 -31.5t135.5 -71.5t93 -119q28 -57 36.5 -115t8.5 -139v-553h-133v532q0 116 -26 182.5t-76 108.5q-105 92 -338 92q-216 0 -342 -110q-63 -55 -83.5 -108.5t-20.5 -137.5v-559h-136z" />
<glyph unicode="i" horiz-adv-x="425" d="M145 0v1012h136v-1012h-136zM145 1192v197h136v-197h-136z" />
<glyph unicode="j" horiz-adv-x="425" d="M-182 -242q88 -26 159 -26q56 0 92 13t52 38t21 48t5 56v1125h132v-1123q0 -30 -1 -49.5t-6.5 -51.5t-15.5 -53.5t-30 -47t-48 -40.5t-71.5 -25.5t-98.5 -10.5q-90 0 -190 24v123zM147 1188v198h132v-198h-132z" />
<glyph unicode="k" horiz-adv-x="1366" d="M147 0v1446h134v-1010l757 576h205l-512 -391l643 -621h-200l-556 537l-337 -261v-276h-134z" />
<glyph unicode="l" horiz-adv-x="425" d="M147 0v1446h136v-1446h-136z" />
<glyph unicode="m" horiz-adv-x="2390" d="M145 0v1012h138v-129q4 3 29 24.5t40 30.5q144 102 375 102q28 0 62 -2.5t95 -14.5t114 -33t109 -62t91 -97q12 18 29.5 37t60.5 51.5t94.5 56.5t135 42t178.5 18q40 0 84.5 -3.5t129.5 -26.5t148 -64q26 -16 51.5 -39t57.5 -61t51.5 -94t19.5 -119v-629h-133v580 q0 66 -21 120t-51.5 87.5t-75 58t-82 36t-82.5 18.5t-66.5 8t-43.5 1q-17 0 -34.5 -0.5t-62.5 -6.5t-83 -16.5t-85 -33t-79 -53t-54.5 -80t-22.5 -111.5v-608h-136v578q0 79 -25 139t-64.5 95.5t-95.5 58t-110 30.5t-116 8q-75 0 -148 -14.5t-145.5 -55.5t-108.5 -102 q-18 -30 -24 -57.5t-6 -87.5v-592h-138z" />
<glyph unicode="n" d="M145 0v1012h138v-142q13 16 29.5 31.5t57.5 42.5t89.5 46.5t127.5 34.5t169 15q106 0 205 -22q229 -54 305 -217q41 -89 41 -242v-559h-136v588q0 51 -9.5 93.5t-38.5 86.5t-75.5 74t-126 49.5t-184.5 19.5q-111 0 -200 -26t-143.5 -69.5t-83.5 -97.5t-29 -112v-606h-136 z" />
<glyph unicode="o" d="M88 506q0 81 22.5 153.5t54.5 121t75.5 90t77 63.5t67.5 39q53 27 146.5 49t205.5 22q267 0 434 -137q48 -39 84 -88t55.5 -93t31 -91t15 -78t3.5 -59q0 -153 -84 -275q-31 -44 -75 -83.5t-110.5 -80t-162.5 -64.5t-207 -24q-81 0 -160 15q-257 45 -385 231 q-88 129 -88 289zM242 504q0 -29 4 -62.5t24 -90.5t54 -101q65 -84 172 -124t223 -40q260 0 395 154q94 109 94 266q0 133 -67.5 232t-175.5 147.5t-238 48.5q-179 0 -309 -86q-28 -19 -54 -44.5t-56 -67t-48 -102t-18 -130.5z" />
<glyph unicode="p" d="M152 -383v1395h131v-158q42 50 102 87t113 55.5t114.5 29t94.5 12.5t65 2q167 0 304 -68t210 -206q66 -118 66 -258q0 -214 -148 -358q-31 -30 -69 -57t-95.5 -55.5t-135 -45.5t-163.5 -17q-107 0 -206.5 28t-155.5 69q-65 49 -96 84v-539h-131zM285 512q0 -36 2 -63 t10.5 -70.5t30 -84t55.5 -73.5q49 -47 139 -84t211 -37q146 0 243.5 51t147.5 119q76 100 76 240q0 93 -41 182q-29 63 -78.5 109t-95 68t-102.5 34.5t-85.5 14.5t-58.5 2q-91 0 -170 -22.5t-144 -69.5t-102.5 -128t-37.5 -188z" />
<glyph unicode="q" d="M92 512q0 214 131 356q55 60 127.5 100t143.5 55.5t114 20.5t80 5q159 0 282 -48t195 -129v140h133v-1381h-133v508q-52 -47 -86 -69q-147 -99 -370 -99q-127 0 -239 38t-196 106t-133 171t-49 226zM244 522q0 -186 131 -307q44 -39 98.5 -65.5t106 -37t82 -13.5t57.5 -3 q129 0 233 49q34 16 60 32.5t56.5 46.5t51 66.5t34 93.5t13.5 126q0 70 -15.5 130.5t-51 114t-88.5 91.5t-133.5 60t-180.5 22q-210 0 -332 -112t-122 -294z" />
<glyph unicode="r" horiz-adv-x="811" d="M145 0v1012h136v-164q37 56 93 96.5t118 61t118 29.5t111 9l65 -2v-141q-70 8 -106 8q-110 0 -192 -35.5t-123 -80.5q-84 -91 -84 -248v-545h-136z" />
<glyph unicode="s" horiz-adv-x="1280" d="M61 250l148 33q35 -87 145 -136q125 -49 314 -49q110 0 198 21t144.5 68t56.5 114q0 37 -22 64.5t-63 43.5t-87.5 24.5t-106.5 12.5q-70 4 -169 8.5t-149 7t-106.5 10.5t-93.5 22q-23 8 -46 22t-52 40t-47.5 69.5t-18.5 97.5q0 71 27.5 126t74.5 90.5t114 58.5 t141.5 32.5t161.5 9.5q456 0 557 -237l-150 -31q-26 43 -43 59q-55 48 -164.5 69.5t-208.5 21.5q-42 0 -84 -3.5t-96 -15t-94 -30.5t-68 -55t-28 -83q0 -40 27 -73t67 -44q36 -10 197 -20q34 -2 102 -5.5t96.5 -5t80 -5.5t77.5 -7.5t61 -10t60 -15t47 -19.5q20 -10 40.5 -25 t45.5 -42t41 -69t16 -91q0 -22 -4 -45.5t-18 -57t-36.5 -63t-63.5 -60t-95 -52.5t-135 -36t-180 -14q-270 0 -419.5 73t-191.5 202z" />
<glyph unicode="t" horiz-adv-x="641" d="M18 907v105h193v346l135 63v-409h287v-105h-287v-481q0 -52 1 -85.5t5.5 -72.5t12.5 -62t22.5 -46.5t35.5 -36t51 -20t69 -7.5q3 0 90 6v-110q-99 -15 -135 -15q-173 0 -240 109q-30 48 -38.5 114t-8.5 201v506h-193z" />
<glyph unicode="u" d="M145 446v566h136v-592q0 -32 2.5 -58t12 -61t25.5 -61.5t45.5 -54.5t70 -46t101 -29.5t136.5 -11.5q131 0 266 40.5t195 127.5q23 34 29.5 65t6.5 79v602h134v-1012h-134v145q-193 -172 -499 -172q-75 0 -142.5 10t-137.5 34t-124.5 72t-83.5 116q-21 46 -30 97.5 t-9 143.5z" />
<glyph unicode="v" horiz-adv-x="1150" d="M4 1012h154l422 -862l419 862h154l-512 -1012h-125z" />
<glyph unicode="w" horiz-adv-x="1748" d="M0 1012h145l336 -846l324 846h141l328 -846l334 846h139l-410 -1012h-129l-334 856l-327 -856h-129z" />
<glyph unicode="x" horiz-adv-x="1150" d="M-8 0l500 526l-469 486h182l370 -394l371 394h174l-463 -486l502 -526h-178l-406 432l-405 -432h-178z" />
<glyph unicode="y" horiz-adv-x="1150" d="M0 1012h162l452 -918l387 918h146l-477 -1090q-48 -112 -77.5 -163t-76.5 -87q-89 -69 -285 -69q-100 0 -208 24v127q109 -37 204 -37q64 0 113.5 13.5t80 32.5t56 53.5t37.5 59.5t29 69z" />
<glyph unicode="z" horiz-adv-x="1150" d="M23 0v111l901 790h-836v111h1030v-94l-907 -805h907v-113h-1095z" />
<glyph unicode="{" horiz-adv-x="643" d="M90 473v113q75 14 108.5 40t46.5 80.5t13 170.5v337q0 289 315 289h21v-112h-25q-49 0 -83.5 -13t-52.5 -31t-28 -50.5t-12 -59.5t-2 -70v-317q0 -153 -28 -217.5t-125 -102.5q49 -15 80.5 -42.5t47 -71.5t20.5 -90t5 -115v-369q0 -174 176 -174h27v-112h-29 q-144 0 -225 69q-53 44 -67.5 103t-14.5 178v276q0 117 -13 172t-46.5 80.5t-108.5 38.5z" />
<glyph unicode="|" horiz-adv-x="471" d="M168 -434v1929h135v-1929h-135z" />
<glyph unicode="}" horiz-adv-x="643" d="M53 -332h19q109 0 147.5 51.5t38.5 196.5v326q0 132 30 191.5t122 96.5q-90 32 -121 96t-31 189v391q0 187 -178 187h-27v110h29q149 0 227 -67q49 -40 64.5 -103t15.5 -178v-278q0 -116 13 -170.5t46.5 -80.5t108.5 -40v-111q-75 -14 -108.5 -40t-46.5 -81t-13 -172 v-327q0 -161 -78.5 -230t-257.5 -69v112z" />
<glyph unicode="~" horiz-adv-x="1693" d="M164 543q92 115 178 162t197 47q64 0 117 -14t210 -74l97 -37q85 -33 119 -42.5t69 -9.5q68 0 132.5 34t152.5 124l94 -82q-97 -108 -190.5 -156.5t-200.5 -48.5q-43 0 -89 10.5t-80.5 23t-113.5 44.5l-86 35q-153 62 -248 62q-63 0 -111.5 -29.5t-127.5 -108.5l-23 -22z " />
<glyph unicode="&#xa1;" horiz-adv-x="641" d="M203 1245v201h157v-201h-157zM209 0v623l27 415h94l24 -458v-580h-145z" />
<glyph unicode="&#xa2;" horiz-adv-x="1366" d="M88 508q0 100 33.5 190t99.5 164.5t175.5 121.5t250.5 54v211h113v-213q24 -1 40.5 -2t62.5 -8t83 -18.5t90.5 -35.5t97.5 -56.5t92 -84.5t85 -116l-125 -53q-35 70 -89 122.5t-102 78t-104.5 42t-81.5 19.5t-49 4v-836q160 10 274.5 88t167.5 209l129 -49 q-33 -58 -65 -103t-82 -93t-107 -80.5t-138.5 -57t-178.5 -31.5v-213h-113v213q-106 5 -190 33q-46 15 -92 39.5t-97.5 67.5t-90 96t-64 131t-25.5 166zM236 506q0 -96 35 -173t84.5 -121t110 -73t105.5 -39t76 -10v838q-178 -12 -294.5 -128.5t-116.5 -293.5z" />
<glyph unicode="&#xa3;" horiz-adv-x="1622" d="M76 221q0 36 15.5 71.5t47.5 68.5t91.5 53t138.5 20q62 0 125 -15.5t105 -33t114 -51.5q4 46 4 53q0 48 -26 102t-62.5 95t-63.5 66.5t-41 35.5h-428v115h324q-129 136 -129 291q0 54 18.5 104t47.5 84.5t50.5 54t41.5 33.5q154 105 401 105q395 0 539 -255 q49 -88 67 -219h-137q-9 148 -107 240q-49 47 -140 81t-218 34q-95 0 -171 -18t-122 -45.5t-76.5 -64.5t-42.5 -73t-12 -72q0 -136 180 -280h475v-115h-372q27 -30 46.5 -55.5t43.5 -65.5t36.5 -87.5t12.5 -98.5q0 -42 -21 -117q9 -5 52.5 -30t63 -35.5t60.5 -30.5t68 -29.5 t62.5 -17.5t64.5 -8q20 0 40.5 3.5t51 18.5t53.5 40t39.5 73.5t16.5 113.5q0 20 -4 82h127q2 -32 2 -57q0 -28 -1.5 -53t-9 -68t-20 -78.5t-38 -75t-60 -66t-88.5 -44.5t-121 -18q-58 0 -114.5 14.5t-113 45t-95.5 56.5t-97 68q-54 -75 -154 -129.5t-225 -54.5 q-33 0 -70.5 6t-82.5 22.5t-80 42t-58.5 69t-23.5 99.5zM209 211q0 -48 47.5 -79.5t132.5 -31.5q170 0 283 121q-5 3 -29.5 17.5t-35.5 20t-35.5 18t-42.5 18.5t-43.5 13.5t-52.5 10.5t-56 3q-17 0 -38 -3t-54 -12.5t-54.5 -34t-21.5 -61.5z" />
<glyph unicode="&#xa4;" horiz-adv-x="1413" d="M119 223l160 150q-64 86 -90.5 159t-26.5 166t26.5 165t90.5 153l-156 149l96 92l156 -147q84 59 160.5 85t169.5 26q200 0 333 -111l158 150l96 -95l-155 -151q114 -143 114 -320q0 -91 -27 -166t-89 -155l155 -154l-96 -92l-158 154q-82 -60 -157.5 -85.5t-173.5 -25.5 t-169.5 24t-160.5 87l-160 -150zM299 696q0 -173 119 -289t297 -116q169 0 283 115.5t114 287.5q0 175 -115 290.5t-288 115.5q-174 0 -292 -116.5t-118 -287.5z" />
<glyph unicode="&#xa5;" horiz-adv-x="1492" d="M12 1423h172l574 -733l559 733h164l-518 -667h360v-113h-446l-52 -68v-69h498v-113h-498v-393h-131v393h-524v113h524v69l-55 68h-469v113h379z" />
<glyph unicode="&#xa6;" horiz-adv-x="471" d="M168 391h135v-825h-135v825zM168 670v825h135v-825h-135z" />
<glyph unicode="&#xa7;" horiz-adv-x="1409" d="M74 608q0 128 66 231t184 160q-56 68 -56 158q0 67 25.5 123t67.5 93t96.5 62.5t110.5 36.5t112 11q116 0 224.5 -31.5t248.5 -91.5l-78 -107q-235 107 -407 107q-47 0 -90.5 -10t-82 -31t-62 -58.5t-23.5 -86.5q0 -58 30 -90.5t88 -53.5q59 -21 159 -46t179.5 -43 t170.5 -54.5t152 -81t101.5 -121.5t40.5 -178q0 -118 -52.5 -213t-158.5 -152q34 -50 49 -92t15 -98q0 -75 -27.5 -138t-73 -105t-105 -71.5t-122 -43t-125.5 -13.5q-143 0 -278.5 36t-288.5 101l86 107q143 -58 257.5 -89.5t229.5 -31.5q74 0 140.5 24t113.5 79.5t47 132.5 q0 24 -6.5 45t-14 37t-25.5 31.5t-29 25t-37.5 21t-38.5 17t-44.5 15t-41.5 12t-43 11.5l-287 73q-209 54 -303 144.5t-94 236.5zM213 618q0 -174 221 -235q47 -13 184 -46.5t230 -61t178 -62.5q164 117 164 285q0 63 -24.5 112.5t-54.5 78.5t-90.5 54.5t-96 36t-107.5 27.5 l-6 1.5t-5 1t-5 1.5q-17 4 -75 18.5t-84 21.5t-71.5 20t-82.5 26.5t-72 28.5q-89 -48 -146 -130t-57 -178z" />
<glyph unicode="&#xa8;" horiz-adv-x="768" d="M41 1155v197h143v-197h-143zM584 1155v197h143v-197h-143z" />
<glyph unicode="&#xa9;" horiz-adv-x="1705" d="M125 727q0 120 36 231t103 200t156 155.5t201 102.5t233 36q105 0 208.5 -30t197 -92t165 -147.5t114 -205.5t42.5 -258q0 -197 -97.5 -364t-265.5 -264t-368 -97q-150 0 -284.5 57.5t-231 155t-153 233.5t-56.5 287zM188 721q0 -181 88.5 -333t241 -240.5t334.5 -88.5 q135 0 257.5 52t211.5 140.5t142 211t53 256.5q0 185 -87.5 338t-239.5 241t-335 88q-137 0 -260.5 -52t-212 -141t-141 -212t-52.5 -260zM410 715q0 199 129.5 327.5t330.5 128.5q145 0 260.5 -71.5t176.5 -200.5l-109 -55q-57 110 -136 162.5t-188 52.5q-151 0 -244 -96.5 t-93 -251.5q0 -145 92.5 -238.5t236.5 -93.5q121 0 210.5 63t135.5 181l109 -50q-145 -307 -459 -307q-202 0 -327 124t-125 325z" />
<glyph unicode="&#xaa;" horiz-adv-x="894" d="M37 954q0 121 102 187q61 40 196 52.5t376 16.5v13q0 81 -68.5 114t-204.5 33q-122 0 -191.5 -33t-92.5 -110l-111 4q26 123 119.5 179t265.5 56q51 0 91.5 -3t87.5 -11t81 -25t63 -42.5t44.5 -66t15.5 -93.5v-320q0 -19 2.5 -31.5t10.5 -26t27 -20t48 -6.5h27v-82 q-54 -8 -90 -8q-34 0 -58 9t-36 26t-17 32.5t-8 35.5q-150 -115 -361 -115q-106 0 -173.5 25t-106.5 81q-39 53 -39 129zM150 950q0 -61 56.5 -97t153.5 -36q36 0 78 6t91.5 19.5t92.5 41.5t64 66q25 42 25 146v20h-125q-52 0 -89.5 -1t-86 -4.5t-83 -10.5t-70 -19.5 t-57.5 -29.5t-36 -42.5t-14 -58.5z" />
<glyph unicode="&#xab;" horiz-adv-x="1067" d="M113 543v112l409 351v-119l-278 -289l278 -291v-119zM541 543v112l415 355v-115l-282 -297l282 -297v-117z" />
<glyph unicode="&#xac;" horiz-adv-x="1581" d="M119 541v121h1280v-662h-127v541h-1153z" />
<glyph unicode="&#xad;" horiz-adv-x="745" d="M78 541v123h590v-123h-590z" />
<glyph unicode="&#xae;" horiz-adv-x="1705" d="M125 727q0 120 36 231t103 200t156 155.5t201 102.5t233 36q105 0 208.5 -30t197 -92t165 -147.5t114 -205.5t42.5 -258q0 -197 -97.5 -364t-265.5 -264t-368 -97q-150 0 -284.5 57.5t-231 155t-153 233.5t-56.5 287zM188 721q0 -181 88.5 -333t241 -240.5t334.5 -88.5 q135 0 257.5 52t211.5 140.5t142 211t53 256.5q0 185 -87.5 338t-239.5 241t-335 88q-137 0 -260.5 -52t-212 -141t-141 -212t-52.5 -260zM541 301v852h362q80 0 121.5 -7.5t77.5 -25.5q46 -23 73 -75t27 -117q0 -112 -67.5 -178t-194.5 -72l260 -377h-141l-252 375h-150 v-375h-116zM657 774h224q111 0 157.5 33.5t46.5 116.5q0 42 -13.5 69.5t-39.5 40t-52 17t-62 4.5h-261v-281z" />
<glyph unicode="&#xaf;" horiz-adv-x="768" d="M41 1165v107h686v-107h-686z" />
<glyph unicode="&#xb0;" horiz-adv-x="724" d="M61 1231q0 125 88.5 213t212.5 88t213 -89t89 -212q0 -124 -88.5 -212.5t-213.5 -88.5q-124 0 -212.5 88t-88.5 213zM184 1231q0 -73 52 -125.5t126 -52.5q73 0 125 52t52 126t-52 126t-125 52q-74 0 -126 -52.5t-52 -125.5z" />
<glyph unicode="&#xb1;" horiz-adv-x="1581" d="M193 0v119h1196v-119h-1196zM193 772v119h536v487h123v-487h537v-119h-537v-491h-123v491h-536z" />
<glyph unicode="&#xb2;" horiz-adv-x="980" d="M104 1415q18 112 52 168q37 61 98 100t116.5 51.5t114.5 12.5q94 0 168 -27t116.5 -71.5t64.5 -96.5t22 -106q0 -49 -15 -93t-38.5 -80.5t-66.5 -74t-85 -67t-109.5 -66t-125 -64t-144.5 -67.5h594v-84h-757v94q398 178 518 279q129 107 129 223q0 39 -15 75.5t-45 68.5 t-83 51.5t-121 19.5q-126 0 -208.5 -64.5t-82.5 -195.5z" />
<glyph unicode="&#xb3;" horiz-adv-x="980" d="M94 1075l101 33q17 -46 38 -72q89 -116 269 -116q135 0 209.5 54.5t74.5 139.5q0 75 -60 114.5t-151 39.5h-178v82h146q30 0 60 5t67 19t59.5 45.5t22.5 77.5q0 47 -26.5 81t-68.5 50t-79 22.5t-72 6.5q-183 0 -246 -92q-30 -42 -47 -109l-90 31q67 252 383 252 q158 0 251 -66t93 -178q0 -19 -5 -38.5t-17.5 -45t-41.5 -49.5t-71 -41q53 -13 90 -40t54 -59.5t23.5 -57.5t6.5 -46q0 -123 -103 -203.5t-290 -80.5q-158 0 -261 68t-141 173z" />
<glyph unicode="&#xb4;" horiz-adv-x="768" d="M193 1137l159 297h223l-294 -297h-88z" />
<glyph unicode="&#xb5;" horiz-adv-x="1476" d="M145 -383v1395h136v-594q0 -167 96 -243.5t295 -76.5q140 0 251 33t179.5 101.5t68.5 162.5v617h134v-791q0 -57 30 -89t84 -32q31 0 51 2v-104q-88 -8 -118 -8q-85 0 -123 38t-47 130q-103 -96 -226 -140.5t-286 -44.5q-274 0 -389 131v-487h-136z" />
<glyph unicode="&#xb6;" horiz-adv-x="1310" d="M152 1049q0 183 114 290t322 107h522v-111h-68v-1675h-118v1675h-332v-1675h-121v1014q-154 26 -236.5 123.5t-82.5 251.5z" />
<glyph unicode="&#xb7;" horiz-adv-x="555" d="M197 500v202h157v-202h-157z" />
<glyph unicode="&#xb8;" horiz-adv-x="768" d="M182 -340q90 -8 133 -8q20 0 41 2.5t45.5 9.5t40 22.5t15.5 37.5q0 77 -150 77h-10v238h92v-162q47 0 88.5 -11.5t75 -45.5t33.5 -86q0 -67 -60 -110.5t-180 -43.5q-61 0 -164 12v68z" />
<glyph unicode="&#xb9;" horiz-adv-x="980" d="M266 1475v84q88 0 140 20.5t76.5 55t43.5 98.5h68v-883h-96v678q-45 -27 -86.5 -40t-110.5 -13h-35z" />
<glyph unicode="&#xba;" horiz-adv-x="980" d="M49 1090q0 78 26.5 142t71 107t104 72.5t123 43t130.5 13.5q105 0 189.5 -34t135 -89.5t77 -121.5t26.5 -136q0 -78 -28 -142t-73.5 -106t-105.5 -70.5t-121 -41t-123 -12.5q-96 0 -173 25.5t-124 65t-78.5 91t-44 99.5t-12.5 94zM168 1085q0 -39 9 -75.5t32 -73.5 t58.5 -64.5t92.5 -45t129 -17.5q87 0 153 26.5t102 69.5t53.5 89.5t17.5 92.5q0 94 -48.5 161.5t-119.5 97.5t-155 30q-41 0 -82 -8t-85.5 -29t-78.5 -53t-56 -84t-22 -117z" />
<glyph unicode="&#xbb;" horiz-adv-x="1067" d="M109 188v115l280 295l-280 297v117l413 -355v-114zM543 190v119l276 289l-276 291v119l409 -355v-108z" />
<glyph unicode="&#xbc;" horiz-adv-x="2217" d="M266 1153v84q88 0 140 20.5t76.5 55t43.5 98.5h68v-883h-96v678q-45 -27 -86.5 -40t-110.5 -13h-35zM610 0l820 1409h106l-817 -1409h-109zM1270 231v80l547 574h98v-568h190v-86h-190v-231h-94v231h-551zM1389 317h432v455z" />
<glyph unicode="&#xbd;" horiz-adv-x="2217" d="M266 1153v84q88 0 140 20.5t76.5 55t43.5 98.5h68v-883h-96v678q-45 -27 -86.5 -40t-110.5 -13h-35zM567 0l819 1409h109l-817 -1409h-111zM1341 565q18 112 52 168q37 61 98 100t116.5 51.5t114.5 12.5q94 0 168 -27t116.5 -71.5t64.5 -96.5t22 -106q0 -49 -15 -93 t-38.5 -80.5t-66.5 -74t-85 -67t-109.5 -66t-125 -64t-144.5 -67.5h594v-84h-757v94q398 178 518 279q129 107 129 223q0 39 -15 75.5t-45 68.5t-83 51.5t-121 19.5q-126 0 -208.5 -64.5t-82.5 -195.5z" />
<glyph unicode="&#xbe;" horiz-adv-x="2217" d="M94 754l101 32q16 -44 38 -71q90 -117 269 -117q135 0 209.5 55t74.5 140q0 74 -59.5 113.5t-151.5 39.5h-178v82h146q23 0 46.5 2.5t54 12t53.5 24.5t39 43.5t16 65.5q0 47 -26.5 81t-68.5 49.5t-79 22t-72 6.5q-183 0 -246 -92q-30 -43 -47 -108l-90 30q67 252 383 252 q158 0 251 -65.5t93 -177.5q0 -19 -5 -38.5t-17.5 -45t-41.5 -50t-71 -41.5q53 -13 90 -40t54 -59t23.5 -57t6.5 -46q0 -123 -103 -204t-290 -81q-158 0 -261 68.5t-141 173.5zM700 0l820 1409h106l-815 -1409h-111zM1270 231v80l547 574h98v-568h190v-86h-190v-231h-94v231 h-551zM1389 317h432v455z" />
<glyph unicode="&#xbf;" d="M104 424q0 335 377 434q140 36 174 72q16 17 20.5 40.5t6.5 73.5h127v-22q0 -33 -3.5 -60t-7.5 -48.5t-15 -39t-19.5 -30t-27.5 -24.5t-31.5 -19t-39.5 -16t-44 -14.5t-52 -14.5q-60 -17 -103 -33t-88.5 -43t-73.5 -59.5t-46 -81t-18 -109.5q0 -163 122 -252 q124 -90 316 -90q78 0 147 18t117.5 48t80.5 58t54 58q46 60 88 187l121 -45q-82 -238 -233.5 -341.5t-378.5 -103.5q-30 0 -57.5 1.5t-89 11.5t-112.5 27.5t-112 56t-104 90.5q-95 116 -95 270zM668 1243v203h153v-203h-153z" />
<glyph unicode="&#xc0;" horiz-adv-x="1622" d="M12 0l713 1446h156l729 -1446h-150l-186 375h-932l-184 -375h-146zM397 489h820l-414 828zM483 1843h228l176 -258h-99z" />
<glyph unicode="&#xc1;" horiz-adv-x="1622" d="M12 0l713 1446h156l729 -1446h-150l-186 375h-932l-184 -375h-146zM397 489h820l-414 828zM735 1585l172 258h228l-308 -258h-92z" />
<glyph unicode="&#xc2;" horiz-adv-x="1622" d="M12 0l713 1446h156l729 -1446h-150l-186 375h-932l-184 -375h-146zM397 489h820l-414 828zM502 1585l233 258h162l221 -258h-131l-174 158l-182 -158h-129z" />
<glyph unicode="&#xc3;" horiz-adv-x="1622" d="M12 0l713 1446h156l729 -1446h-150l-186 375h-932l-184 -375h-146zM397 489h820l-414 828zM440 1645q39 81 88.5 128.5t124.5 47.5q56 0 122.5 -25.5t126.5 -50.5t99 -25q37 0 64 26.5t53 74.5l62 -27q-37 -87 -81.5 -135.5t-121.5 -48.5q-55 0 -180.5 51t-175.5 51 q-26 0 -49 -16t-36.5 -33.5t-35.5 -52.5z" />
<glyph unicode="&#xc4;" horiz-adv-x="1622" d="M12 0l713 1446h156l729 -1446h-150l-186 375h-932l-184 -375h-146zM397 489h820l-414 828zM397 1634v197h150v-197h-150zM1059 1634v197h149v-197h-149z" />
<glyph unicode="&#xc5;" horiz-adv-x="1622" d="M12 0l713 1446h156l729 -1446h-150l-186 375h-932l-184 -375h-146zM397 489h820l-414 828zM567 1694q0 49 25 85.5t65 55t79 27t77 8.5q109 0 164 -51t55 -117q0 -62 -37 -105t-87 -60t-105 -17q-69 0 -118.5 18.5t-73.5 47t-34 55.5t-10 53zM674 1694q0 -35 32 -59.5 t93 -24.5q48 0 86.5 20t38.5 66q0 36 -30 63t-91 27q-66 0 -97.5 -27.5t-31.5 -64.5z" />
<glyph unicode="&#xc6;" horiz-adv-x="2304" d="M-25 0l1037 1446h1181v-119h-997v-520h913v-123h-913v-563h1026v-121h-1163v356h-674l-254 -356h-156zM467 471h594v844z" />
<glyph unicode="&#xc7;" horiz-adv-x="1693" d="M84 729q0 166 65.5 310t176.5 242t259.5 154t311.5 56q29 0 57.5 -1.5t100 -13t134.5 -32t143.5 -65t144.5 -105.5q20 -19 40 -42t37 -46t28 -39.5t22 -34.5l12 -18l-123 -70q-55 91 -94 135q-64 74 -154 121.5t-172.5 64.5t-167.5 17q-187 0 -338.5 -78.5t-240 -225.5 t-88.5 -335q0 -93 25.5 -183t79.5 -171.5t131 -143.5t186.5 -98.5t238.5 -36.5q195 0 362.5 88.5t266.5 270.5l125 -58q-70 -121 -160.5 -207.5t-191 -133t-198 -67t-202.5 -20.5h-18v-86q196 -9 196 -147q0 -70 -65.5 -110t-175.5 -40q-44 0 -162 12v68q90 -8 125 -8 q149 0 149 72q0 77 -143 77h-16v166q-177 17 -310 88q-107 57 -186.5 138.5t-124 173t-65.5 181.5t-21 181z" />
<glyph unicode="&#xc8;" horiz-adv-x="1705" d="M170 0v1446h1384v-119h-1243v-508h1149v-123h-1149v-575h1303v-121h-1444zM545 1843h227l176 -258h-98z" />
<glyph unicode="&#xc9;" horiz-adv-x="1705" d="M170 0v1446h1384v-119h-1243v-508h1149v-123h-1149v-575h1303v-121h-1444zM776 1585l172 258h228l-308 -258h-92z" />
<glyph unicode="&#xca;" horiz-adv-x="1705" d="M170 0v1446h1384v-119h-1243v-508h1149v-123h-1149v-575h1303v-121h-1444zM545 1585l233 258h162l221 -258h-131l-174 158l-182 -158h-129z" />
<glyph unicode="&#xcb;" horiz-adv-x="1705" d="M170 0v1446h1384v-119h-1243v-508h1149v-123h-1149v-575h1303v-121h-1444zM453 1634v197h149v-197h-149zM1114 1634v197h150v-197h-150z" />
<glyph unicode="&#xcc;" horiz-adv-x="468" d="M-92 1843h227l176 -258h-98zM168 0v1446h137v-1446h-137z" />
<glyph unicode="&#xcd;" horiz-adv-x="468" d="M158 1585l172 258h227l-307 -258h-92zM168 0v1446h137v-1446h-137z" />
<glyph unicode="&#xce;" horiz-adv-x="468" d="M-74 1585l234 258h162l221 -258h-131l-174 158l-183 -158h-129zM168 0v1446h137v-1446h-137z" />
<glyph unicode="&#xcf;" horiz-adv-x="468" d="M-166 1634v197h150v-197h-150zM168 0v1446h137v-1446h-137zM496 1634v197h149v-197h-149z" />
<glyph unicode="&#xd0;" horiz-adv-x="1748" d="M0 729v107h170v610h739q178 0 289 -37q99 -33 178.5 -92t129.5 -128.5t83 -152.5t46.5 -161t13.5 -156q0 -244 -115 -422q-38 -60 -86 -107t-94.5 -77.5t-105 -52.5t-106 -33.5t-110.5 -17.5t-105 -7.5t-102 -1.5h-655v729h-170zM313 121h461q69 0 108 1t101.5 6 t115.5 17.5t101 32.5q73 31 128 80.5t87.5 103t53 118t27.5 120t7 115.5q0 22 -1 45.5t-8.5 74.5t-20.5 96t-40.5 102.5t-64.5 103.5t-96.5 88.5t-132.5 66.5q-104 35 -246 35h-580v-493h713v-105h-713v-608z" />
<glyph unicode="&#xd1;" horiz-adv-x="1835" d="M170 0v1446h129l1239 -1268v1268h129v-1446h-129l-1239 1262v-1262h-129zM549 1645q39 81 88.5 128.5t124.5 47.5q56 0 122.5 -25.5t126.5 -50.5t99 -25q37 0 64 26.5t53 74.5l61 -27q-37 -87 -81.5 -135.5t-121.5 -48.5q-55 0 -180.5 51t-175.5 51q-26 0 -49 -16 t-36.5 -33.5t-35.5 -52.5z" />
<glyph unicode="&#xd2;" horiz-adv-x="1878" d="M86 725q0 147 47.5 273t129 215.5t190 153t232 94t253.5 30.5q42 0 83.5 -3.5t112.5 -13.5t139 -35t141 -62.5t142 -102t121 -146.5q117 -187 117 -401q0 -40 -5.5 -85t-20.5 -110.5t-51 -138t-89 -135.5q-66 -80 -152 -138.5t-159.5 -88t-157.5 -46.5t-131 -20.5 t-94 -3.5q-33 0 -68 2t-96 11t-117 24t-125.5 44.5t-128.5 69.5t-117.5 102t-101.5 138q-94 169 -94 373zM238 719q0 -132 47 -248q30 -75 77.5 -136.5t98 -101t112 -69t113 -44t107.5 -23.5t87.5 -11t61.5 -2q146 0 265 38.5t197.5 103t132 152.5t76.5 182t23 196 q0 123 -47 232.5t-133.5 194t-221 134t-298.5 49.5q-269 0 -449 -133q-38 -28 -75.5 -67.5t-79.5 -102t-68 -152.5t-26 -192zM612 1843h228l176 -258h-98z" />
<glyph unicode="&#xd3;" horiz-adv-x="1878" d="M86 725q0 147 47.5 273t129 215.5t190 153t232 94t253.5 30.5q42 0 83.5 -3.5t112.5 -13.5t139 -35t141 -62.5t142 -102t121 -146.5q117 -187 117 -401q0 -40 -5.5 -85t-20.5 -110.5t-51 -138t-89 -135.5q-66 -80 -152 -138.5t-159.5 -88t-157.5 -46.5t-131 -20.5 t-94 -3.5q-33 0 -68 2t-96 11t-117 24t-125.5 44.5t-128.5 69.5t-117.5 102t-101.5 138q-94 169 -94 373zM238 719q0 -132 47 -248q30 -75 77.5 -136.5t98 -101t112 -69t113 -44t107.5 -23.5t87.5 -11t61.5 -2q146 0 265 38.5t197.5 103t132 152.5t76.5 182t23 196 q0 123 -47 232.5t-133.5 194t-221 134t-298.5 49.5q-269 0 -449 -133q-38 -28 -75.5 -67.5t-79.5 -102t-68 -152.5t-26 -192zM862 1585l172 258h228l-308 -258h-92z" />
<glyph unicode="&#xd4;" horiz-adv-x="1878" d="M86 725q0 147 47.5 273t129 215.5t190 153t232 94t253.5 30.5q42 0 83.5 -3.5t112.5 -13.5t139 -35t141 -62.5t142 -102t121 -146.5q117 -187 117 -401q0 -40 -5.5 -85t-20.5 -110.5t-51 -138t-89 -135.5q-66 -80 -152 -138.5t-159.5 -88t-157.5 -46.5t-131 -20.5 t-94 -3.5q-33 0 -68 2t-96 11t-117 24t-125.5 44.5t-128.5 69.5t-117.5 102t-101.5 138q-94 169 -94 373zM238 719q0 -132 47 -248q30 -75 77.5 -136.5t98 -101t112 -69t113 -44t107.5 -23.5t87.5 -11t61.5 -2q146 0 265 38.5t197.5 103t132 152.5t76.5 182t23 196 q0 123 -47 232.5t-133.5 194t-221 134t-298.5 49.5q-269 0 -449 -133q-38 -28 -75.5 -67.5t-79.5 -102t-68 -152.5t-26 -192zM631 1585l233 258h162l221 -258h-131l-174 158l-182 -158h-129z" />
<glyph unicode="&#xd5;" horiz-adv-x="1878" d="M86 725q0 147 47.5 273t129 215.5t190 153t232 94t253.5 30.5q42 0 83.5 -3.5t112.5 -13.5t139 -35t141 -62.5t142 -102t121 -146.5q117 -187 117 -401q0 -40 -5.5 -85t-20.5 -110.5t-51 -138t-89 -135.5q-66 -80 -152 -138.5t-159.5 -88t-157.5 -46.5t-131 -20.5 t-94 -3.5q-33 0 -68 2t-96 11t-117 24t-125.5 44.5t-128.5 69.5t-117.5 102t-101.5 138q-94 169 -94 373zM238 719q0 -132 47 -248q30 -75 77.5 -136.5t98 -101t112 -69t113 -44t107.5 -23.5t87.5 -11t61.5 -2q146 0 265 38.5t197.5 103t132 152.5t76.5 182t23 196 q0 123 -47 232.5t-133.5 194t-221 134t-298.5 49.5q-269 0 -449 -133q-38 -28 -75.5 -67.5t-79.5 -102t-68 -152.5t-26 -192zM569 1645q39 81 88.5 128.5t124.5 47.5q56 0 122.5 -25.5t126.5 -50.5t99 -25q37 0 64 26.5t53 74.5l62 -27q-17 -41 -32.5 -68.5t-39.5 -57 t-57 -44t-74 -14.5q-55 0 -180.5 51t-175.5 51q-26 0 -49 -16t-36.5 -33.5t-35.5 -52.5z" />
<glyph unicode="&#xd6;" horiz-adv-x="1878" d="M86 725q0 147 47.5 273t129 215.5t190 153t232 94t253.5 30.5q42 0 83.5 -3.5t112.5 -13.5t139 -35t141 -62.5t142 -102t121 -146.5q117 -187 117 -401q0 -40 -5.5 -85t-20.5 -110.5t-51 -138t-89 -135.5q-66 -80 -152 -138.5t-159.5 -88t-157.5 -46.5t-131 -20.5 t-94 -3.5q-33 0 -68 2t-96 11t-117 24t-125.5 44.5t-128.5 69.5t-117.5 102t-101.5 138q-94 169 -94 373zM238 719q0 -132 47 -248q30 -75 77.5 -136.5t98 -101t112 -69t113 -44t107.5 -23.5t87.5 -11t61.5 -2q146 0 265 38.5t197.5 103t132 152.5t76.5 182t23 196 q0 123 -47 232.5t-133.5 194t-221 134t-298.5 49.5q-269 0 -449 -133q-38 -28 -75.5 -67.5t-79.5 -102t-68 -152.5t-26 -192zM535 1634v197h149v-197h-149zM1196 1634v197h150v-197h-150z" />
<glyph unicode="&#xd7;" horiz-adv-x="1581" d="M309 244l389 358l-381 361l95 86l381 -361l391 361l88 -84l-391 -363l385 -362l-95 -86l-385 362l-389 -356z" />
<glyph unicode="&#xd8;" horiz-adv-x="1878" d="M74 82l182 151q-172 212 -172 480q0 46 5.5 94.5t26.5 122t55.5 140t99.5 139.5t151 128q223 140 524 140q353 0 588 -199l188 154l74 -86l-182 -150q30 -33 57.5 -75t56.5 -102t46.5 -139t17.5 -163q0 -43 -6.5 -91.5t-24 -119t-59.5 -147t-103 -142.5 q-66 -71 -149.5 -124t-154.5 -79t-150.5 -41.5t-124.5 -18.5t-90 -3q-357 0 -594 201l-193 -156zM233 715q0 -102 34 -214.5t95 -183.5l1070 877q-75 62 -203 112t-299 50q-30 0 -60.5 -2t-80.5 -10t-96.5 -21t-102.5 -39t-104 -61t-95 -89t-82 -120q-76 -137 -76 -299z M440 238q77 -72 208.5 -118t297.5 -46q93 0 178 18.5t146 46.5t114 66t85.5 71.5t56.5 67.5q110 158 110 377q0 110 -34 216.5t-93 174.5z" />
<glyph unicode="&#xd9;" horiz-adv-x="1792" d="M162 610v836h133v-830q0 -113 14 -192t64 -148q132 -182 489 -182q243 0 375 50t197 163q36 63 48.5 144t12.5 231v764h131v-873q0 -213 -86 -350q-60 -97 -149.5 -151.5t-212.5 -81.5t-269 -27q-206 0 -356 43q-269 77 -354 311q-37 99 -37 293zM569 1843h228l176 -258 h-99z" />
<glyph unicode="&#xda;" horiz-adv-x="1792" d="M162 610v836h133v-830q0 -113 14 -192t64 -148q132 -182 489 -182q243 0 375 50t197 163q36 63 48.5 144t12.5 231v764h131v-873q0 -213 -86 -350q-60 -97 -149.5 -151.5t-212.5 -81.5t-269 -27q-206 0 -356 43q-269 77 -354 311q-37 99 -37 293zM819 1585l172 258h228 l-308 -258h-92z" />
<glyph unicode="&#xdb;" horiz-adv-x="1792" d="M162 610v836h133v-830q0 -113 14 -192t64 -148q132 -182 489 -182q243 0 375 50t197 163q36 63 48.5 144t12.5 231v764h131v-873q0 -213 -86 -350q-60 -97 -149.5 -151.5t-212.5 -81.5t-269 -27q-206 0 -356 43q-269 77 -354 311q-37 99 -37 293zM588 1585l233 258h162 l221 -258h-131l-174 158l-182 -158h-129z" />
<glyph unicode="&#xdc;" horiz-adv-x="1792" d="M162 610v836h133v-830q0 -113 14 -192t64 -148q132 -182 489 -182q243 0 375 50t197 163q36 63 48.5 144t12.5 231v764h131v-873q0 -213 -86 -350q-60 -97 -149.5 -151.5t-212.5 -81.5t-269 -27q-206 0 -356 43q-269 77 -354 311q-37 99 -37 293zM492 1634v197h149v-197 h-149zM1153 1634v197h150v-197h-150z" />
<glyph unicode="&#xdd;" horiz-adv-x="1492" d="M12 1446h172l576 -744l557 744h164l-656 -860v-586h-131v586zM670 1585l172 258h227l-307 -258h-92z" />
<glyph unicode="&#xde;" horiz-adv-x="1662" d="M168 0v1446h143v-301h817q44 0 71 -1t72.5 -5.5t79.5 -15.5t73.5 -28.5t73 -47.5t61.5 -70q67 -96 67 -223q0 -133 -67 -230q-29 -42 -65.5 -73.5t-79 -50t-80 -30.5t-85.5 -16.5t-78 -6t-75 -1.5h-785v-346h-143zM311 465h748q57 0 92 2.5t92.5 12t103 35.5t78.5 67 q52 67 52 168q0 86 -35 143q-43 76 -109 103.5t-190 27.5h-832v-559z" />
<glyph unicode="&#xdf;" d="M147 0v1030q0 98 16 161.5t70 125.5q30 34 65 60.5t91 52t138.5 39.5t187.5 14q191 0 329 -58q22 -9 42.5 -19.5t56 -36t60.5 -55t44 -76.5t19 -101q0 -60 -21.5 -109.5t-55.5 -81t-71 -51t-74 -27.5q68 -14 122 -43.5t87 -69t55.5 -80.5t33 -86.5t14.5 -78t4 -64.5 q0 -31 -3.5 -68t-22.5 -103.5t-52 -116.5q-117 -181 -387 -181q-23 0 -44 1t-62 8.5t-74.5 20.5t-73 40t-66.5 63.5t-45 95t-18 130.5h131q6 -135 80 -193q65 -51 180 -51q152 0 234 94.5t82 249.5q0 211 -134 297q-66 42 -134.5 53t-209.5 11h-131v110q151 0 229 5t132 24 q68 23 111.5 73.5t43.5 120.5q0 45 -20.5 82t-51.5 60.5t-74 41.5t-81 26.5t-80.5 14t-65 6.5t-40.5 1q-33 0 -72.5 -2.5t-116 -19t-125.5 -46.5q-18 -11 -28.5 -19t-31 -31t-32 -49.5t-21.5 -72t-10 -100.5v-1022h-129z" />
<glyph unicode="&#xe0;" horiz-adv-x="1366" d="M84 303q0 74 34 141.5t93 108.5q52 36 132 58.5t205.5 33t231.5 14t293 5.5q0 103 -35 153q-71 101 -383 101q-93 0 -160 -9.5t-109 -24.5t-71 -43.5t-44.5 -57t-30.5 -74.5l-144 8q8 32 16 53.5t28.5 62t56 75.5t84.5 61q131 71 362 71q368 0 487 -131 q41 -47 54.5 -99.5t13.5 -123.5v-444q0 -83 30 -110.5t101 -27.5h35v-104q-70 -8 -135 -8q-30 0 -54 7t-39.5 20t-26.5 26t-17.5 31t-10 29t-6 25.5t-2.5 16.5q-62 -47 -110 -73q-186 -101 -426 -101q-82 0 -143 8t-129 39t-113 86q-68 84 -68 197zM229 299q0 -57 30.5 -99 t80.5 -64t103 -32t110 -10q49 0 111.5 10t136 31t138.5 62.5t97 97.5q37 64 37 201v53h-63q-434 0 -607.5 -53t-173.5 -197zM391 1432h225l154 -297h-88z" />
<glyph unicode="&#xe1;" horiz-adv-x="1366" d="M84 303q0 74 34 141.5t93 108.5q52 36 132 58.5t205.5 33t231.5 14t293 5.5q0 103 -35 153q-71 101 -383 101q-93 0 -160 -9.5t-109 -24.5t-71 -43.5t-44.5 -57t-30.5 -74.5l-144 8q8 32 16 53.5t28.5 62t56 75.5t84.5 61q131 71 362 71q368 0 487 -131 q41 -47 54.5 -99.5t13.5 -123.5v-444q0 -83 30 -110.5t101 -27.5h35v-104q-70 -8 -135 -8q-30 0 -54 7t-39.5 20t-26.5 26t-17.5 31t-10 29t-6 25.5t-2.5 16.5q-62 -47 -110 -73q-186 -101 -426 -101q-82 0 -143 8t-129 39t-113 86q-68 84 -68 197zM229 299q0 -57 30.5 -99 t80.5 -64t103 -32t110 -10q49 0 111.5 10t136 31t138.5 62.5t97 97.5q37 64 37 201v53h-63q-434 0 -607.5 -53t-173.5 -197zM575 1137l160 297h223l-294 -297h-89z" />
<glyph unicode="&#xe2;" horiz-adv-x="1366" d="M84 303q0 74 34 141.5t93 108.5q52 36 132 58.5t205.5 33t231.5 14t293 5.5q0 103 -35 153q-71 101 -383 101q-93 0 -160 -9.5t-109 -24.5t-71 -43.5t-44.5 -57t-30.5 -74.5l-144 8q8 32 16 53.5t28.5 62t56 75.5t84.5 61q131 71 362 71q368 0 487 -131 q41 -47 54.5 -99.5t13.5 -123.5v-444q0 -83 30 -110.5t101 -27.5h35v-104q-70 -8 -135 -8q-30 0 -54 7t-39.5 20t-26.5 26t-17.5 31t-10 29t-6 25.5t-2.5 16.5q-62 -47 -110 -73q-186 -101 -426 -101q-82 0 -143 8t-129 39t-113 86q-68 84 -68 197zM229 299q0 -57 30.5 -99 t80.5 -64t103 -32t110 -10q49 0 111.5 10t136 31t138.5 62.5t97 97.5q37 64 37 201v53h-63q-434 0 -607.5 -53t-173.5 -197zM401 1124l222 271h120l213 -271h-104l-168 174l-170 -174h-113z" />
<glyph unicode="&#xe3;" horiz-adv-x="1366" d="M84 303q0 74 34 141.5t93 108.5q52 36 132 58.5t205.5 33t231.5 14t293 5.5q0 103 -35 153q-71 101 -383 101q-93 0 -160 -9.5t-109 -24.5t-71 -43.5t-44.5 -57t-30.5 -74.5l-144 8q8 32 16 53.5t28.5 62t56 75.5t84.5 61q131 71 362 71q368 0 487 -131 q41 -47 54.5 -99.5t13.5 -123.5v-444q0 -83 30 -110.5t101 -27.5h35v-104q-70 -8 -135 -8q-30 0 -54 7t-39.5 20t-26.5 26t-17.5 31t-10 29t-6 25.5t-2.5 16.5q-62 -47 -110 -73q-186 -101 -426 -101q-82 0 -143 8t-129 39t-113 86q-68 84 -68 197zM229 299q0 -57 30.5 -99 t80.5 -64t103 -32t110 -10q49 0 111.5 10t136 31t138.5 62.5t97 97.5q37 64 37 201v53h-63q-434 0 -607.5 -53t-173.5 -197zM332 1192q38 81 86 130.5t119 49.5q53 0 117 -25t120.5 -50t93.5 -25q62 0 113 100l59 -29q-16 -41 -31 -68.5t-37.5 -56t-54 -43t-71.5 -14.5 q-52 0 -172 51.5t-168 51.5q-61 0 -117 -103z" />
<glyph unicode="&#xe4;" horiz-adv-x="1366" d="M84 303q0 74 34 141.5t93 108.5q52 36 132 58.5t205.5 33t231.5 14t293 5.5q0 103 -35 153q-71 101 -383 101q-93 0 -160 -9.5t-109 -24.5t-71 -43.5t-44.5 -57t-30.5 -74.5l-144 8q8 32 16 53.5t28.5 62t56 75.5t84.5 61q131 71 362 71q368 0 487 -131 q41 -47 54.5 -99.5t13.5 -123.5v-444q0 -83 30 -110.5t101 -27.5h35v-104q-70 -8 -135 -8q-30 0 -54 7t-39.5 20t-26.5 26t-17.5 31t-10 29t-6 25.5t-2.5 16.5q-62 -47 -110 -73q-186 -101 -426 -101q-82 0 -143 8t-129 39t-113 86q-68 84 -68 197zM229 299q0 -57 30.5 -99 t80.5 -64t103 -32t110 -10q49 0 111.5 10t136 31t138.5 62.5t97 97.5q37 64 37 201v53h-63q-434 0 -607.5 -53t-173.5 -197zM332 1155v197h143v-197h-143zM874 1155v197h144v-197h-144z" />
<glyph unicode="&#xe5;" horiz-adv-x="1366" d="M84 303q0 74 34 141.5t93 108.5q52 36 132 58.5t205.5 33t231.5 14t293 5.5q0 103 -35 153q-71 101 -383 101q-93 0 -160 -9.5t-109 -24.5t-71 -43.5t-44.5 -57t-30.5 -74.5l-144 8q8 32 16 53.5t28.5 62t56 75.5t84.5 61q131 71 362 71q368 0 487 -131 q41 -47 54.5 -99.5t13.5 -123.5v-444q0 -83 30 -110.5t101 -27.5h35v-104q-70 -8 -135 -8q-30 0 -54 7t-39.5 20t-26.5 26t-17.5 31t-10 29t-6 25.5t-2.5 16.5q-62 -47 -110 -73q-186 -101 -426 -101q-82 0 -143 8t-129 39t-113 86q-68 84 -68 197zM229 299q0 -57 30.5 -99 t80.5 -64t103 -32t110 -10q49 0 111.5 10t136 31t138.5 62.5t97 97.5q37 64 37 201v53h-63q-434 0 -607.5 -53t-173.5 -197zM442 1290q0 60 38 101.5t89 58t107 16.5q115 0 175 -50t60 -124q0 -48 -25 -84.5t-63.5 -55.5t-77 -28.5t-73.5 -9.5q-37 0 -74.5 9.5t-73.5 29 t-59 55.5t-23 82zM547 1290q0 -37 33.5 -60.5t93.5 -23.5q58 0 92.5 24t34.5 60q0 38 -32 65t-93 27q-59 0 -94 -27.5t-35 -64.5z" />
<glyph unicode="&#xe6;" horiz-adv-x="2347" d="M82 311q0 24 4.5 53t26.5 76t59 78q40 33 95.5 53.5t123.5 29t116.5 11t117.5 2.5h481q-2 79 -10 121.5t-29 73.5q-25 37 -75 62.5t-111.5 36.5t-111 15.5t-99.5 4.5q-177 0 -281 -54q-92 -47 -121 -159l-145 14q23 87 57 135q126 178 502 178q446 0 528 -204 q18 30 51.5 61.5t89 65.5t141.5 55.5t187 21.5q86 0 166 -18.5t155.5 -60t131.5 -103t90.5 -153.5t36.5 -205h-1018q0 -197 125.5 -304.5t341.5 -107.5q19 0 39.5 1t58.5 7t73 15.5t77.5 29t77.5 45.5t67 67.5t51 92.5l107 -69q-32 -70 -81.5 -125t-106 -86.5t-110 -53 t-110 -30t-88 -11t-61.5 -2.5q-191 0 -335 70t-198 186q-7 -21 -22 -45t-43 -54t-73.5 -57t-105 -50t-146.5 -36.5t-189 -13.5q-346 0 -457 166q-51 76 -51 174zM236 305q0 -104 79 -155q98 -64 295 -64q63 0 126 10t126.5 31.5t116.5 61.5t82 94q26 47 34.5 97t10.5 122 h-520q-59 0 -99.5 -2.5t-96 -17.5t-91.5 -42q-63 -49 -63 -135zM1247 614h858q-9 61 -34.5 111t-58 81.5t-75.5 55.5t-79.5 35.5t-76.5 18.5t-61 8.5t-39 1.5q-75 0 -144.5 -18.5t-129 -55t-102 -98t-58.5 -140.5z" />
<glyph unicode="&#xe7;" horiz-adv-x="1366" d="M82 512q0 110 38 201.5t101 153t145.5 104.5t170.5 62.5t178 19.5q29 0 58 -1.5t94 -14t122 -34.5t126.5 -68.5t123.5 -109.5q41 -48 68 -96l-136 -57q-36 58 -74.5 101t-93 82t-128.5 60t-164 21q-106 0 -191.5 -29t-137.5 -74t-87 -103.5t-48.5 -113t-13.5 -106.5 q0 -103 42 -185t111 -130.5t150.5 -73.5t168.5 -25q101 0 193 29t172.5 98.5t119.5 171.5l137 -51q-33 -54 -58 -90t-70.5 -84.5t-93.5 -80.5t-121 -61t-159 -42q-66 -7 -92 -9v-100q26 -1 50 -4t52.5 -12.5t48.5 -24.5t34 -41t14 -61q0 -73 -65.5 -113.5t-178.5 -40.5 q-54 0 -160 12v68q82 -8 125 -8q148 0 148 72q0 77 -144 77h-14v176q-111 8 -192 35q-51 17 -98 42t-98 67.5t-88 95.5t-61 129.5t-24 165.5z" />
<glyph unicode="&#xe8;" horiz-adv-x="1366" d="M96 528q0 107 42 206t120 167q60 54 167 98.5t249 44.5q40 0 83 -5t109.5 -21t135.5 -55t126 -97q145 -145 156 -374h-1046q9 -127 78 -219t173 -136.5t230 -44.5q304 0 459 260l106 -76q-89 -126 -203 -200q-164 -103 -376 -103q-209 0 -369 107q-113 74 -176.5 192 t-63.5 256zM242 606h878q-34 159 -172 248q-117 76 -284 76q-187 0 -299 -107q-44 -42 -72 -87t-36 -70t-15 -60zM379 1432h225l154 -297h-88z" />
<glyph unicode="&#xe9;" horiz-adv-x="1366" d="M96 528q0 107 42 206t120 167q60 54 167 98.5t249 44.5q40 0 83 -5t109.5 -21t135.5 -55t126 -97q145 -145 156 -374h-1046q9 -127 78 -219t173 -136.5t230 -44.5q304 0 459 260l106 -76q-89 -126 -203 -200q-164 -103 -376 -103q-209 0 -369 107q-113 74 -176.5 192 t-63.5 256zM242 606h878q-34 159 -172 248q-117 76 -284 76q-187 0 -299 -107q-44 -42 -72 -87t-36 -70t-15 -60zM606 1137l160 297h223l-295 -297h-88z" />
<glyph unicode="&#xea;" horiz-adv-x="1366" d="M96 528q0 107 42 206t120 167q60 54 167 98.5t249 44.5q40 0 83 -5t109.5 -21t135.5 -55t126 -97q145 -145 156 -374h-1046q9 -127 78 -219t173 -136.5t230 -44.5q304 0 459 260l106 -76q-89 -126 -203 -200q-164 -103 -376 -103q-209 0 -369 107q-113 74 -176.5 192 t-63.5 256zM242 606h878q-34 159 -172 248q-117 76 -284 76q-187 0 -299 -107q-44 -42 -72 -87t-36 -70t-15 -60zM403 1124l222 271h120l213 -271h-104l-168 174l-170 -174h-113z" />
<glyph unicode="&#xeb;" horiz-adv-x="1366" d="M96 528q0 107 42 206t120 167q60 54 167 98.5t249 44.5q40 0 83 -5t109.5 -21t135.5 -55t126 -97q145 -145 156 -374h-1046q9 -127 78 -219t173 -136.5t230 -44.5q304 0 459 260l106 -76q-89 -126 -203 -200q-164 -103 -376 -103q-209 0 -369 107q-113 74 -176.5 192 t-63.5 256zM242 606h878q-34 159 -172 248q-117 76 -284 76q-187 0 -299 -107q-44 -42 -72 -87t-36 -70t-15 -60zM342 1155v197h143v-197h-143zM885 1155v197h143v-197h-143z" />
<glyph unicode="&#xec;" horiz-adv-x="425" d="M-90 1432h225l154 -297h-88zM145 0v1012h136v-1012h-136z" />
<glyph unicode="&#xed;" horiz-adv-x="425" d="M137 1137l160 297h223l-295 -297h-88zM145 0v1012h136v-1012h-136z" />
<glyph unicode="&#xee;" horiz-adv-x="425" d="M-66 1124l222 271h120l213 -271h-104l-168 174l-170 -174h-113zM145 0v1012h136v-1012h-136z" />
<glyph unicode="&#xef;" horiz-adv-x="425" d="M-127 1155v197h143v-197h-143zM145 0v1012h136v-1012h-136zM416 1155v197h143v-197h-143z" />
<glyph unicode="&#xf0;" d="M90 512q0 107 38.5 197t101.5 151t145.5 103.5t169.5 61.5t174 19q267 0 428 -161q-17 38 -25 54t-32 57.5t-48.5 71t-67 72t-95.5 83.5l-457 -97l-49 95l403 90q-28 21 -50 36t-41 27t-29 18t-30.5 17t-29.5 16l172 50q28 -17 58 -38.5t67 -50t55 -41.5l283 62l51 -96 l-235 -52q28 -20 94 -96q62 -70 108 -150t68.5 -142.5t36 -129.5t16 -102.5t2.5 -69.5q0 -281 -196 -448q-171 -146 -459 -146q-72 0 -159.5 15t-151.5 41q-59 25 -111.5 64t-100 97t-76 141.5t-28.5 180.5zM242 506q0 -58 13.5 -113.5t48 -112.5t87 -99t138 -68.5 t192.5 -26.5q92 0 176 24t155 72.5t113.5 132.5t42.5 193q0 106 -41 189.5t-110 134t-154 76.5t-178 26q-119 0 -214 -36t-152 -97t-87 -136.5t-30 -158.5z" />
<glyph unicode="&#xf1;" d="M145 0v1012h138v-142q13 16 29.5 31.5t57.5 42.5t89.5 46.5t127.5 34.5t169 15q106 0 205 -22q229 -54 305 -217q41 -89 41 -242v-559h-136v588q0 51 -9.5 93.5t-38.5 86.5t-75.5 74t-126 49.5t-184.5 19.5q-111 0 -200 -26t-143.5 -69.5t-83.5 -97.5t-29 -112v-606h-136 zM375 1192q38 81 86 130.5t119 49.5q53 0 117 -25t120.5 -50t93.5 -25q62 0 113 100l59 -29q-16 -41 -31 -68.5t-37.5 -56t-54 -43t-71.5 -14.5q-51 0 -171 51.5t-169 51.5q-61 0 -117 -103z" />
<glyph unicode="&#xf2;" d="M88 506q0 81 22.5 153.5t54.5 121t75.5 90t77 63.5t67.5 39q53 27 146.5 49t205.5 22q267 0 434 -137q48 -39 84 -88t55.5 -93t31 -91t15 -78t3.5 -59q0 -153 -84 -275q-31 -44 -75 -83.5t-110.5 -80t-162.5 -64.5t-207 -24q-81 0 -160 15q-257 45 -385 231 q-88 129 -88 289zM242 504q0 -29 4 -62.5t24 -90.5t54 -101q65 -84 172 -124t223 -40q260 0 395 154q94 109 94 266q0 133 -67.5 232t-175.5 147.5t-238 48.5q-179 0 -309 -86q-28 -19 -54 -44.5t-56 -67t-48 -102t-18 -130.5zM422 1432h225l154 -297h-88z" />
<glyph unicode="&#xf3;" d="M88 506q0 81 22.5 153.5t54.5 121t75.5 90t77 63.5t67.5 39q53 27 146.5 49t205.5 22q267 0 434 -137q48 -39 84 -88t55.5 -93t31 -91t15 -78t3.5 -59q0 -153 -84 -275q-31 -44 -75 -83.5t-110.5 -80t-162.5 -64.5t-207 -24q-81 0 -160 15q-257 45 -385 231 q-88 129 -88 289zM242 504q0 -29 4 -62.5t24 -90.5t54 -101q65 -84 172 -124t223 -40q260 0 395 154q94 109 94 266q0 133 -67.5 232t-175.5 147.5t-238 48.5q-179 0 -309 -86q-28 -19 -54 -44.5t-56 -67t-48 -102t-18 -130.5zM649 1137l160 297h223l-295 -297h-88z" />
<glyph unicode="&#xf4;" d="M88 506q0 81 22.5 153.5t54.5 121t75.5 90t77 63.5t67.5 39q53 27 146.5 49t205.5 22q267 0 434 -137q48 -39 84 -88t55.5 -93t31 -91t15 -78t3.5 -59q0 -153 -84 -275q-31 -44 -75 -83.5t-110.5 -80t-162.5 -64.5t-207 -24q-81 0 -160 15q-257 45 -385 231 q-88 129 -88 289zM242 504q0 -29 4 -62.5t24 -90.5t54 -101q65 -84 172 -124t223 -40q260 0 395 154q94 109 94 266q0 133 -67.5 232t-175.5 147.5t-238 48.5q-179 0 -309 -86q-28 -19 -54 -44.5t-56 -67t-48 -102t-18 -130.5zM446 1124l222 271h120l213 -271h-104l-168 174 l-170 -174h-113z" />
<glyph unicode="&#xf5;" d="M88 506q0 163 83.5 286t230.5 187.5t335 64.5q267 0 434 -137q48 -39 84 -88t55.5 -93t31 -91t15 -78t3.5 -59q0 -153 -84 -275q-31 -44 -75 -83.5t-110.5 -80t-162.5 -64.5t-207 -24q-132 0 -247.5 37t-201 104.5t-135 169.5t-49.5 224zM242 504q0 -29 4 -62.5t24 -90.5 t54 -101q65 -84 172 -124t223 -40q260 0 395 154q94 109 94 266q0 81 -22.5 147.5t-57 109.5t-82.5 76t-92.5 50.5t-93 28t-79 13.5t-54.5 3q-179 0 -309 -86q-28 -19 -54 -44.5t-56 -67t-48 -102t-18 -130.5zM348 1198q39 79 89.5 126.5t127.5 47.5q56 0 125 -25t130.5 -50 t101.5 -25q39 0 66.5 26.5t53.5 73.5l62 -31q-19 -42 -34 -68.5t-39.5 -55t-57.5 -42.5t-76 -14q-56 0 -185 51.5t-180 51.5q-26 0 -49.5 -16.5t-37 -33.5t-37.5 -53z" />
<glyph unicode="&#xf6;" d="M88 506q0 81 22.5 153.5t54.5 121t75.5 90t77 63.5t67.5 39q53 27 146.5 49t205.5 22q267 0 434 -137q48 -39 84 -88t55.5 -93t31 -91t15 -78t3.5 -59q0 -153 -84 -275q-31 -44 -75 -83.5t-110.5 -80t-162.5 -64.5t-207 -24q-81 0 -160 15q-257 45 -385 231 q-88 129 -88 289zM242 504q0 -29 4 -62.5t24 -90.5t54 -101q65 -84 172 -124t223 -40q260 0 395 154q94 109 94 266q0 133 -67.5 232t-175.5 147.5t-238 48.5q-179 0 -309 -86q-28 -19 -54 -44.5t-56 -67t-48 -102t-18 -130.5zM381 1155v197h143v-197h-143zM924 1155v197 h143v-197h-143z" />
<glyph unicode="&#xf7;" horiz-adv-x="1581" d="M135 539v123h1311v-123h-1311zM705 809v168h169v-168h-169zM707 217v168h170v-168h-170z" />
<glyph unicode="&#xf8;" d="M66 51l145 123q-26 35 -40.5 57.5t-38.5 68t-36 98t-12 110.5q0 131 63 248q80 148 234.5 219.5t337.5 71.5q247 0 403 -115l146 121l71 -80l-133 -113q27 -31 45.5 -57t44.5 -72t40 -103.5t14 -121.5q0 -68 -16.5 -130t-43 -108t-49 -74.5t-45.5 -50.5 q-70 -66 -191 -118t-286 -52q-234 0 -426 127l-156 -131zM223 506q0 -147 88 -250l715 596q-112 80 -301 80q-96 0 -185 -28.5t-160 -81t-114 -135t-43 -181.5zM391 180q50 -35 136.5 -62.5t191.5 -27.5q26 0 58.5 3.5t83.5 14t105.5 35.5t98.5 62q71 59 108 141t37 174 q0 50 -9.5 93t-27.5 77t-29.5 51t-31.5 41z" />
<glyph unicode="&#xf9;" d="M145 446v566h136v-553q0 -42 2 -72.5t11 -71t24.5 -69t44.5 -58.5t70 -48t102 -30t139 -12q131 0 266 40.5t195 127.5q23 34 29.5 65t6.5 79v602h134v-1012h-134v145q-183 -172 -499 -172q-75 0 -142.5 10t-137.5 34t-124.5 72t-83.5 116q-21 46 -30 97.5t-9 143.5z M422 1432h225l154 -297h-88z" />
<glyph unicode="&#xfa;" d="M145 446v566h136v-553q0 -42 2 -72.5t11 -71t24.5 -69t44.5 -58.5t70 -48t102 -30t139 -12q131 0 266 40.5t195 127.5q23 34 29.5 65t6.5 79v602h134v-1012h-134v145q-183 -172 -499 -172q-75 0 -142.5 10t-137.5 34t-124.5 72t-83.5 116q-21 46 -30 97.5t-9 143.5z M649 1137l160 297h223l-295 -297h-88z" />
<glyph unicode="&#xfb;" d="M145 446v566h136v-553q0 -42 2 -72.5t11 -71t24.5 -69t44.5 -58.5t70 -48t102 -30t139 -12q131 0 266 40.5t195 127.5q23 34 29.5 65t6.5 79v602h134v-1012h-134v145q-183 -172 -499 -172q-75 0 -142.5 10t-137.5 34t-124.5 72t-83.5 116q-21 46 -30 97.5t-9 143.5z M446 1124l222 271h120l211 -271h-104l-168 174l-170 -174h-111z" />
<glyph unicode="&#xfc;" d="M145 446v566h136v-553q0 -42 2 -72.5t11 -71t24.5 -69t44.5 -58.5t70 -48t102 -30t139 -12q131 0 266 40.5t195 127.5q23 34 29.5 65t6.5 79v602h134v-1012h-134v145q-183 -172 -499 -172q-75 0 -142.5 10t-137.5 34t-124.5 72t-83.5 116q-21 46 -30 97.5t-9 143.5z M383 1153v197h141v-197h-141zM926 1153v197h141v-197h-141z" />
<glyph unicode="&#xfd;" horiz-adv-x="1150" d="M0 1012h162l452 -918l387 918h146l-477 -1090q-48 -112 -77.5 -163t-76.5 -87q-89 -69 -285 -69q-100 0 -208 24v127q109 -37 204 -37q64 0 113.5 13.5t80 32.5t56 53.5t37.5 59.5t29 69zM500 1137l159 297h224l-295 -297h-88z" />
<glyph unicode="&#xfe;" d="M152 -383v1829h131v-594q46 56 109.5 95.5t132.5 58.5t128 26.5t119 7.5q111 0 203 -26.5t153 -71t106.5 -99t70 -116t36 -115.5t11.5 -104q0 -105 -36 -194t-96.5 -150.5t-140 -105t-165.5 -63.5t-173 -20q-134 0 -248.5 38.5t-209.5 142.5v-539h-131zM285 514 q0 -138 43 -219q30 -55 83.5 -95.5t113 -61t111.5 -29.5t97 -9q91 0 173.5 25.5t149 74.5t105.5 129t39 181q0 50 -12.5 101.5t-45 108t-81.5 100t-130 72t-183 28.5q-92 0 -166.5 -19.5t-122 -48.5t-82 -70.5t-52 -78t-27 -79t-11.5 -65.5t-2 -45z" />
<glyph unicode="&#xff;" horiz-adv-x="1150" d="M0 1012h162l452 -918l387 918h146l-477 -1090q-48 -112 -77.5 -163t-76.5 -87q-89 -69 -285 -69q-100 0 -208 24v127q109 -37 204 -37q64 0 113.5 13.5t80 32.5t56 53.5t37.5 59.5t29 69zM236 1155v197h143v-197h-143zM778 1155v197h144v-197h-144z" />
<glyph unicode="&#x100;" horiz-adv-x="1622" d="M12 0l713 1446h156l729 -1446h-150l-186 375h-932l-184 -375h-146zM397 489h820l-414 828zM461 1657v106h686v-106h-686z" />
<glyph unicode="&#x101;" horiz-adv-x="1366" d="M84 303q0 74 34 141.5t93 108.5q52 36 132 58.5t205.5 33t231.5 14t293 5.5q0 103 -35 153q-71 101 -383 101q-93 0 -160 -9.5t-109 -24.5t-71 -43.5t-44.5 -57t-30.5 -74.5l-144 8q8 32 16 53.5t28.5 62t56 75.5t84.5 61q131 71 362 71q368 0 487 -131 q41 -47 54.5 -99.5t13.5 -123.5v-444q0 -83 30 -110.5t101 -27.5h35v-104q-70 -8 -135 -8q-30 0 -54 7t-39.5 20t-26.5 26t-17.5 31t-10 29t-6 25.5t-2.5 16.5q-62 -47 -110 -73q-186 -101 -426 -101q-82 0 -143 8t-129 39t-113 86q-68 84 -68 197zM229 299q0 -57 30.5 -99 t80.5 -64t103 -32t110 -10q49 0 111.5 10t136 31t138.5 62.5t97 97.5q37 64 37 201v53h-63q-434 0 -607.5 -53t-173.5 -197zM354 1165v107h686v-107h-686z" />
<glyph unicode="&#x102;" horiz-adv-x="1622" d="M12 0l713 1446h156l729 -1446h-150l-186 375h-932l-184 -375h-146zM397 489h820l-414 828zM504 1837h102q4 -24 13 -45.5t28.5 -46.5t58 -40t91.5 -15q186 0 207 147h100q-9 -69 -39.5 -118.5t-75 -75.5t-90.5 -37t-98 -11q-32 0 -62.5 4t-71.5 18.5t-72 39.5t-57 71.5 t-34 108.5z" />
<glyph unicode="&#x103;" horiz-adv-x="1366" d="M84 303q0 74 34 141.5t93 108.5q52 36 132 58.5t205.5 33t231.5 14t293 5.5q0 103 -35 153q-71 101 -383 101q-93 0 -160 -9.5t-109 -24.5t-71 -43.5t-44.5 -57t-30.5 -74.5l-144 8q8 32 16 53.5t28.5 62t56 75.5t84.5 61q131 71 362 71q368 0 487 -131 q41 -47 54.5 -99.5t13.5 -123.5v-444q0 -83 30 -110.5t101 -27.5h35v-104q-70 -8 -135 -8q-30 0 -54 7t-39.5 20t-26.5 26t-17.5 31t-10 29t-6 25.5t-2.5 16.5q-62 -47 -110 -73q-186 -101 -426 -101q-82 0 -143 8t-129 39t-113 86q-68 84 -68 197zM229 299q0 -57 30.5 -99 t80.5 -64t103 -32t110 -10q49 0 111.5 10t136 31t138.5 62.5t97 97.5q37 64 37 201v53h-63q-434 0 -607.5 -53t-173.5 -197zM383 1397h102q4 -24 13 -48t28 -51t55 -44t83 -17q22 0 45.5 5t56.5 19.5t57 49.5t31 86h100q-14 -128 -95 -191t-191 -63q-28 0 -56.5 4t-68 19.5 t-70 41.5t-56.5 75t-34 114z" />
<glyph unicode="&#x104;" horiz-adv-x="1622" d="M12 0l713 1446h156l729 -1446h-11q-84 -14 -139 -58t-55 -100q0 -48 37 -80t108 -32q28 0 109 8v-103q-98 -12 -137 -12q-118 0 -180 46.5t-62 125.5q0 54 41.5 110.5t136.5 98.5l-184 371h-932l-184 -375h-146zM397 489h820l-414 828z" />
<glyph unicode="&#x105;" horiz-adv-x="1366" d="M84 303q0 74 34 141.5t93 108.5q52 36 132 58.5t205.5 33t231.5 14t293 5.5q0 103 -35 153q-71 101 -383 101q-93 0 -160 -9.5t-109 -24.5t-71 -43.5t-44.5 -57t-30.5 -74.5l-144 8q8 32 16 53.5t28.5 62t56 75.5t84.5 61q131 71 362 71q368 0 487 -131 q41 -47 54.5 -99.5t13.5 -123.5v-444q0 -83 30 -110.5t101 -27.5h35v-104q-70 -8 -123 -8q-97 0 -156 -46t-59 -104q0 -48 37 -80t108 -32q28 0 109 8v-103q-98 -12 -137 -12q-118 0 -180 46.5t-62 125.5q0 25 11 54t35.5 62t71.5 63.5t111 50.5q-14 12 -24.5 26.5t-16 30 t-8.5 27t-5.5 24t-2.5 14.5q-62 -47 -110 -73q-186 -101 -426 -101q-82 0 -143 8t-129 39t-113 86q-68 84 -68 197zM229 299q0 -57 30.5 -99t80.5 -64t103 -32t110 -10q49 0 111.5 10t136 31t138.5 62.5t97 97.5q37 64 37 201v53h-63q-434 0 -607.5 -53t-173.5 -197z" />
<glyph unicode="&#x106;" horiz-adv-x="1693" d="M84 729q0 273 168 473q63 76 142 132t147.5 85t144.5 46.5t122 21.5t91 4q46 0 99.5 -6.5t135 -25t169.5 -64t161 -111.5q45 -41 78 -83t74 -107l-123 -68q-35 65 -80.5 117t-90.5 86.5t-97 60t-95 39t-90 21.5t-77 10t-60 2q-42 0 -88.5 -6t-118 -23.5t-147.5 -60 t-137 -105.5q-56 -57 -94 -126t-53.5 -133.5t-21 -107t-5.5 -81.5q0 -40 5.5 -82t21.5 -105.5t55.5 -131t97.5 -124.5q50 -50 111 -86.5t112.5 -55t109 -29.5t89.5 -13t65 -2q412 0 623 359l125 -60q-26 -45 -45.5 -75t-70 -85.5t-112.5 -101.5q-222 -164 -528 -164 q-304 0 -506 148q-147 108 -227 269.5t-80 348.5zM754 1585l172 258h227l-307 -258h-92z" />
<glyph unicode="&#x107;" horiz-adv-x="1366" d="M82 512q0 206 133 348q88 94 224 143.5t274 49.5q45 0 88 -4t116 -23t135.5 -51t132.5 -95.5t122 -150.5l-136 -55q-18 38 -71.5 98t-108.5 92q-117 72 -282 72q-155 0 -260.5 -60.5t-155.5 -146.5q-60 -97 -60 -215q0 -105 42.5 -188t112 -131.5t151 -73.5t166.5 -25 q103 0 207.5 37t172.5 103q58 58 107 159l135 -51q-82 -134 -153 -201q-178 -166 -484 -166q-125 0 -227 31q-42 13 -83 32t-98 60.5t-98.5 93.5t-71.5 135.5t-30 182.5zM567 1137l160 297h223l-295 -297h-88z" />
<glyph unicode="&#x108;" horiz-adv-x="1693" d="M84 729q0 273 168 473q63 76 142 132t147.5 85t144.5 46.5t122 21.5t91 4q46 0 99.5 -6.5t135 -25t169.5 -64t161 -111.5q45 -41 78 -83t74 -107l-123 -68q-35 65 -80.5 117t-90.5 86.5t-97 60t-95 39t-90 21.5t-77 10t-60 2q-42 0 -88.5 -6t-118 -23.5t-147.5 -60 t-137 -105.5q-56 -57 -94 -126t-53.5 -133.5t-21 -107t-5.5 -81.5q0 -40 5.5 -82t21.5 -105.5t55.5 -131t97.5 -124.5q50 -50 111 -86.5t112.5 -55t109 -29.5t89.5 -13t65 -2q412 0 623 359l125 -60q-26 -45 -45.5 -75t-70 -85.5t-112.5 -101.5q-222 -164 -528 -164 q-304 0 -506 148q-147 108 -227 269.5t-80 348.5zM602 1585l234 258h161l222 -258h-132l-174 158l-182 -158h-129z" />
<glyph unicode="&#x109;" horiz-adv-x="1366" d="M82 512q0 206 133 348q88 94 224 143.5t274 49.5q45 0 88 -4t116 -23t135.5 -51t132.5 -95.5t122 -150.5l-136 -55q-18 38 -71.5 98t-108.5 92q-117 72 -282 72q-155 0 -260.5 -60.5t-155.5 -146.5q-60 -97 -60 -215q0 -105 42.5 -188t112 -131.5t151 -73.5t166.5 -25 q103 0 207.5 37t172.5 103q58 58 107 159l135 -51q-82 -134 -153 -201q-178 -166 -484 -166q-125 0 -227 31q-42 13 -83 32t-98 60.5t-98.5 93.5t-71.5 135.5t-30 182.5zM444 1124l222 271h120l213 -271h-104l-168 174l-170 -174h-113z" />
<glyph unicode="&#x10a;" horiz-adv-x="1693" d="M84 729q0 273 168 473q63 76 142 132t147.5 85t144.5 46.5t122 21.5t91 4q46 0 99.5 -6.5t135 -25t169.5 -64t161 -111.5q45 -41 78 -83t74 -107l-123 -68q-35 65 -80.5 117t-90.5 86.5t-97 60t-95 39t-90 21.5t-77 10t-60 2q-42 0 -88.5 -6t-118 -23.5t-147.5 -60 t-137 -105.5q-56 -57 -94 -126t-53.5 -133.5t-21 -107t-5.5 -81.5q0 -40 5.5 -82t21.5 -105.5t55.5 -131t97.5 -124.5q50 -50 111 -86.5t112.5 -55t109 -29.5t89.5 -13t65 -2q412 0 623 359l125 -60q-26 -45 -45.5 -75t-70 -85.5t-112.5 -101.5q-222 -164 -528 -164 q-304 0 -506 148q-147 108 -227 269.5t-80 348.5zM827 1634v193h134v-193h-134z" />
<glyph unicode="&#x10b;" horiz-adv-x="1366" d="M82 512q0 206 133 348q88 94 224 143.5t274 49.5q45 0 88 -4t116 -23t135.5 -51t132.5 -95.5t122 -150.5l-136 -55q-18 38 -71.5 98t-108.5 92q-117 72 -282 72q-155 0 -260.5 -60.5t-155.5 -146.5q-60 -97 -60 -215q0 -105 42.5 -188t112 -131.5t151 -73.5t166.5 -25 q103 0 207.5 37t172.5 103q58 58 107 159l135 -51q-82 -134 -153 -201q-178 -166 -484 -166q-125 0 -227 31q-42 13 -83 32t-98 60.5t-98.5 93.5t-71.5 135.5t-30 182.5zM651 1200v193h133v-193h-133z" />
<glyph unicode="&#x10c;" horiz-adv-x="1693" d="M84 729q0 273 168 473q63 76 142 132t147.5 85t144.5 46.5t122 21.5t91 4q46 0 99.5 -6.5t135 -25t169.5 -64t161 -111.5q45 -41 78 -83t74 -107l-123 -68q-35 65 -80.5 117t-90.5 86.5t-97 60t-95 39t-90 21.5t-77 10t-60 2q-42 0 -88.5 -6t-118 -23.5t-147.5 -60 t-137 -105.5q-56 -57 -94 -126t-53.5 -133.5t-21 -107t-5.5 -81.5q0 -40 5.5 -82t21.5 -105.5t55.5 -131t97.5 -124.5q50 -50 111 -86.5t112.5 -55t109 -29.5t89.5 -13t65 -2q412 0 623 359l125 -60q-26 -45 -45.5 -75t-70 -85.5t-112.5 -101.5q-222 -164 -528 -164 q-304 0 -506 148q-147 108 -227 269.5t-80 348.5zM594 1843h133l174 -155l180 155h133l-235 -258h-166z" />
<glyph unicode="&#x10d;" horiz-adv-x="1366" d="M82 512q0 206 133 348q88 94 224 143.5t274 49.5q45 0 88 -4t116 -23t135.5 -51t132.5 -95.5t122 -150.5l-136 -55q-18 38 -71.5 98t-108.5 92q-117 72 -282 72q-155 0 -260.5 -60.5t-155.5 -146.5q-60 -97 -60 -215q0 -105 42.5 -188t112 -131.5t151 -73.5t166.5 -25 q103 0 207.5 37t172.5 103q58 58 107 159l135 -51q-82 -134 -153 -201q-178 -166 -484 -166q-125 0 -227 31q-42 13 -83 32t-98 60.5t-98.5 93.5t-71.5 135.5t-30 182.5zM436 1395h109l166 -174l170 174h110l-219 -271h-125z" />
<glyph unicode="&#x10e;" horiz-adv-x="1748" d="M170 0v1446h723q167 0 285.5 -31.5t224.5 -118.5q66 -55 114.5 -126.5t73 -133.5t38.5 -131.5t17 -108.5t3 -77q0 -120 -29 -225q-38 -140 -125.5 -250.5t-214.5 -169.5q-100 -46 -205.5 -60t-249.5 -14h-655zM313 121h461q74 0 120.5 1.5t117 9.5t121 22.5t106.5 43.5 t100 70q164 156 164 443q0 127 -34.5 237.5t-114.5 202.5t-197 135q-110 41 -264 41h-580v-1206zM442 1843h133l175 -155l180 155h133l-236 -258h-165z" />
<glyph unicode="&#x10f;" d="M90 512q0 101 34.5 187.5t94.5 148.5t139.5 106.5t169.5 66t185 21.5q26 0 58.5 -2.5t92 -13.5t111 -30t105.5 -57t85 -89v596h135v-1446h-135v154q-21 -26 -52.5 -52t-86.5 -58.5t-139 -52.5t-182 -20q-157 0 -302 63t-227 185q-86 122 -86 293zM242 506q0 -99 45 -189 q32 -63 84.5 -109t100 -68.5t105.5 -35t87 -14.5t59 -2q110 0 214 39.5t161 120.5q67 93 67 262q0 205 -112 301q-138 117 -342 117q-100 0 -195 -35q-69 -24 -121.5 -64.5t-80.5 -81.5t-45.5 -89.5t-22 -83t-4.5 -68.5zM1376 1071v66q38 6 57 33.5t19 66.5v39h-76v170h152 v-205q0 -159 -152 -170z" />
<glyph unicode="&#x110;" horiz-adv-x="1748" d="M0 729v107h170v610h739q178 0 289 -37q99 -33 178.5 -92t129.5 -128.5t83 -152.5t46.5 -161t13.5 -156q0 -244 -115 -422q-38 -60 -86 -107t-94.5 -77.5t-105 -52.5t-106 -33.5t-110.5 -17.5t-105 -7.5t-102 -1.5h-655v729h-170zM313 121h461q69 0 108 1t101.5 6 t115.5 17.5t101 32.5q73 31 128 80.5t87.5 103t53 118t27.5 120t7 115.5q0 22 -1 45.5t-8.5 74.5t-20.5 96t-40.5 102.5t-64.5 103.5t-96.5 88.5t-132.5 66.5q-104 35 -246 35h-580v-493h713v-105h-713v-608z" />
<glyph unicode="&#x111;" d="M90 512q0 101 34.5 187.5t94.5 148.5t139.5 106.5t169.5 66t185 21.5q26 0 58.5 -2.5t92 -13.5t111 -30t105.5 -57t85 -89v289h-534v102h534v205h135v-205h150v-102h-150v-1139h-135v154q-21 -26 -52.5 -52t-86.5 -58.5t-139 -52.5t-182 -20q-157 0 -302 63t-227 185 q-86 122 -86 293zM242 506q0 -99 45 -189q32 -63 84.5 -109t100 -68.5t105.5 -35t87 -14.5t59 -2q110 0 214 39.5t161 120.5q67 93 67 262q0 205 -112 301q-138 117 -342 117q-100 0 -195 -35q-69 -24 -121.5 -64.5t-80.5 -81.5t-45.5 -89.5t-22 -83t-4.5 -68.5z" />
<glyph unicode="&#x112;" horiz-adv-x="1705" d="M170 0v1446h1384v-119h-1243v-508h1149v-123h-1149v-575h1303v-121h-1444zM530 1657v106h687v-106h-687z" />
<glyph unicode="&#x113;" horiz-adv-x="1366" d="M96 528q0 107 42 206t120 167q60 54 167 98.5t249 44.5q40 0 83 -5t109.5 -21t135.5 -55t126 -97q145 -145 156 -374h-1046q9 -127 78 -219t173 -136.5t230 -44.5q304 0 459 260l106 -76q-89 -126 -203 -200q-164 -103 -376 -103q-209 0 -369 107q-113 74 -176.5 192 t-63.5 256zM242 606h878q-34 159 -172 248q-117 76 -284 76q-187 0 -299 -107q-44 -42 -72 -87t-36 -70t-15 -60zM354 1165v107h686v-107h-686z" />
<glyph unicode="&#x114;" horiz-adv-x="1705" d="M170 0v1446h1384v-119h-1243v-508h1149v-123h-1149v-575h1303v-121h-1444zM578 1837h102q4 -24 13 -45.5t28.5 -46.5t57.5 -40t91 -15q186 0 207 147h101q-9 -69 -39.5 -118.5t-75 -75.5t-91 -37t-98.5 -11q-32 0 -62 4t-71 18.5t-72 39.5t-57 71.5t-34 108.5z" />
<glyph unicode="&#x115;" horiz-adv-x="1366" d="M96 528q0 107 42 206t120 167q60 54 167 98.5t249 44.5q40 0 83 -5t109.5 -21t135.5 -55t126 -97q145 -145 156 -374h-1046q9 -127 78 -219t173 -136.5t230 -44.5q304 0 459 260l106 -76q-89 -126 -203 -200q-164 -103 -376 -103q-209 0 -369 107q-113 74 -176.5 192 t-63.5 256zM242 606h878q-34 159 -172 248q-117 76 -284 76q-187 0 -299 -107q-44 -42 -72 -87t-36 -70t-15 -60zM408 1397h102q4 -25 13 -48.5t27.5 -50.5t54.5 -44t83 -17q22 0 45.5 5t56.5 19.5t57.5 49.5t31.5 86h100q-7 -66 -34 -116t-67.5 -79.5t-87 -44t-98.5 -14.5 q-28 0 -56.5 4t-67.5 19.5t-69.5 41.5t-56.5 75t-34 114z" />
<glyph unicode="&#x116;" horiz-adv-x="1705" d="M170 0v1446h1384v-119h-1243v-508h1149v-123h-1149v-575h1303v-121h-1444zM825 1634v193h133v-193h-133z" />
<glyph unicode="&#x117;" horiz-adv-x="1366" d="M96 528q0 107 42 206t120 167q60 54 167 98.5t249 44.5q40 0 83 -5t109.5 -21t135.5 -55t126 -97q145 -145 156 -374h-1046q9 -127 78 -219t173 -136.5t230 -44.5q304 0 459 260l106 -76q-89 -126 -203 -200q-164 -103 -376 -103q-209 0 -369 107q-113 74 -176.5 192 t-63.5 256zM242 606h878q-34 159 -172 248q-117 76 -284 76q-187 0 -299 -107q-44 -42 -72 -87t-36 -70t-15 -60zM627 1200v193h133v-193h-133z" />
<glyph unicode="&#x118;" horiz-adv-x="1705" d="M170 0v1446h1384v-119h-1243v-508h1149v-123h-1149v-575h1303v-121h-123q-93 -12 -149 -57t-56 -101q0 -48 37.5 -80t108.5 -32q27 0 108 8v-103q-98 -12 -137 -12q-118 0 -180 46.5t-62 125.5q0 53 39.5 108t132.5 97h-1163z" />
<glyph unicode="&#x119;" horiz-adv-x="1366" d="M96 528q0 107 42 206t120 167q60 54 167 98.5t249 44.5q29 0 65 -3.5t95.5 -17.5t115 -36t115.5 -64.5t105.5 -98.5t77 -142t36.5 -190h-1046q9 -127 78 -219t173 -136.5t230 -44.5q304 0 459 260l106 -76q-156 -215 -364 -272q-94 -26 -140.5 -70t-46.5 -92t37.5 -80 t108.5 -32q27 0 108 8v-103q-98 -12 -137 -12q-118 0 -180 46.5t-62 125.5q0 104 119 178h-22q-209 0 -369 107q-113 74 -176.5 192t-63.5 256zM242 606h878q-34 159 -172 248q-117 76 -284 76q-187 0 -299 -107q-44 -42 -72 -87t-36 -70t-15 -60z" />
<glyph unicode="&#x11a;" horiz-adv-x="1705" d="M170 0v1446h1384v-119h-1243v-508h1149v-123h-1149v-575h1303v-121h-1444zM584 1843h133l174 -155l180 155h133l-235 -258h-166z" />
<glyph unicode="&#x11b;" horiz-adv-x="1366" d="M96 528q0 107 42 206t120 167q60 54 167 98.5t249 44.5q40 0 83 -5t109.5 -21t135.5 -55t126 -97q145 -145 156 -374h-1046q9 -127 78 -219t173 -136.5t230 -44.5q304 0 459 260l106 -76q-89 -126 -203 -200q-164 -103 -376 -103q-209 0 -369 107q-113 74 -176.5 192 t-63.5 256zM242 606h878q-34 159 -172 248q-117 76 -284 76q-187 0 -299 -107q-44 -42 -72 -87t-36 -70t-15 -60zM418 1395h108l166 -174l170 174h111l-219 -271h-125z" />
<glyph unicode="&#x11c;" horiz-adv-x="1835" d="M90 719q0 294 176 498q40 48 92 90t131 86.5t189 71t235 26.5q43 0 93 -5t133.5 -20.5t173 -55t162.5 -97.5q98 -80 174 -205l-136 -78q-45 87 -113.5 152t-149.5 103t-168 56.5t-181 18.5q-147 0 -271.5 -49t-209.5 -134.5t-132.5 -202.5t-47.5 -251q0 -244 139 -410 q34 -40 77.5 -75t109.5 -71t159.5 -57.5t200.5 -21.5q90 0 179 22.5t169.5 69t142.5 110t100.5 152.5t41.5 191h-768v123h892v-756h-124v295q-48 -85 -113 -145q-33 -31 -79 -60.5t-113.5 -60.5t-158.5 -50.5t-190 -19.5q-117 0 -231 27.5t-220.5 88.5t-186.5 148 t-128.5 215t-48.5 281zM621 1585l233 258h162l221 -258h-131l-174 158l-182 -158h-129z" />
<glyph unicode="&#x11d;" horiz-adv-x="1409" d="M82 512q0 194 119 332q173 198 487 198q140 0 261.5 -49.5t187.5 -128.5q-4 113 -4 148h131v-934q0 -127 -27 -209q-67 -212 -352 -262q-105 -17 -197 -17q-27 0 -60.5 2t-95 8.5t-123 25t-106.5 46.5q-129 79 -149 254h141q3 -26 7 -41.5t15.5 -41t36.5 -47t62 -38.5 q107 -47 266 -47q121 0 227 27q57 14 95 34t69 57t45.5 96.5t14.5 146.5v88q-14 -19 -30.5 -36.5t-57 -47.5t-88 -51t-124 -37.5t-163.5 -16.5q-154 0 -271 49q-40 17 -76.5 38.5t-82.5 63.5t-79 93t-56 129t-23 168zM229 510q0 -90 39 -182q29 -64 77.5 -110.5t94 -70 t100.5 -37t85.5 -16t60.5 -2.5q97 0 193 31.5t157 93.5q101 101 101 295q0 224 -123 319q-49 39 -129.5 69t-186.5 30q-200 0 -334.5 -112.5t-134.5 -307.5zM406 1124l221 271h121l213 -271h-105l-168 174l-170 -174h-112z" />
<glyph unicode="&#x11e;" horiz-adv-x="1835" d="M90 719q0 294 176 498q40 48 92 90t131 86.5t189 71t235 26.5q43 0 93 -5t133.5 -20.5t173 -55t162.5 -97.5q98 -80 174 -205l-136 -78q-45 87 -113.5 152t-149.5 103t-168 56.5t-181 18.5q-147 0 -271.5 -49t-209.5 -134.5t-132.5 -202.5t-47.5 -251q0 -244 139 -410 q34 -40 77.5 -75t109.5 -71t159.5 -57.5t200.5 -21.5q90 0 179 22.5t169.5 69t142.5 110t100.5 152.5t41.5 191h-768v123h892v-756h-124v295q-48 -85 -113 -145q-33 -31 -79 -60.5t-113.5 -60.5t-158.5 -50.5t-190 -19.5q-117 0 -231 27.5t-220.5 88.5t-186.5 148 t-128.5 215t-48.5 281zM612 1837h103q4 -24 13 -45.5t28.5 -46.5t57.5 -40t91 -15q186 0 207 147h100q-9 -69 -39.5 -118.5t-75 -75.5t-90.5 -37t-98 -11q-32 0 -62.5 4t-71.5 18.5t-72 39.5t-57 71.5t-34 108.5z" />
<glyph unicode="&#x11f;" horiz-adv-x="1409" d="M82 512q0 194 119 332q173 198 487 198q140 0 261.5 -49.5t187.5 -128.5q-4 113 -4 148h131v-934q0 -127 -27 -209q-67 -212 -352 -262q-105 -17 -197 -17q-27 0 -60.5 2t-95 8.5t-123 25t-106.5 46.5q-129 79 -149 254h141q3 -26 7 -41.5t15.5 -41t36.5 -47t62 -38.5 q107 -47 266 -47q121 0 227 27q57 14 95 34t69 57t45.5 96.5t14.5 146.5v88q-14 -19 -30.5 -36.5t-57 -47.5t-88 -51t-124 -37.5t-163.5 -16.5q-154 0 -271 49q-40 17 -76.5 38.5t-82.5 63.5t-79 93t-56 129t-23 168zM229 510q0 -90 39 -182q29 -64 77.5 -110.5t94 -70 t100.5 -37t85.5 -16t60.5 -2.5q97 0 193 31.5t157 93.5q101 101 101 295q0 224 -123 319q-49 39 -129.5 69t-186.5 30q-200 0 -334.5 -112.5t-134.5 -307.5zM412 1397h102q4 -25 13 -48.5t27.5 -50.5t54.5 -44t83 -17q22 0 45.5 5t56.5 19.5t57.5 49.5t31.5 86h100 q-7 -66 -34 -116t-67.5 -79.5t-87 -44t-98.5 -14.5q-28 0 -56.5 4t-67.5 19.5t-69.5 41.5t-56.5 75t-34 114z" />
<glyph unicode="&#x120;" horiz-adv-x="1835" d="M90 719q0 294 176 498q40 48 92 90t131 86.5t189 71t235 26.5q43 0 93 -5t133.5 -20.5t173 -55t162.5 -97.5q98 -80 174 -205l-136 -78q-45 87 -113.5 152t-149.5 103t-168 56.5t-181 18.5q-147 0 -271.5 -49t-209.5 -134.5t-132.5 -202.5t-47.5 -251q0 -244 139 -410 q34 -40 77.5 -75t109.5 -71t159.5 -57.5t200.5 -21.5q90 0 179 22.5t169.5 69t142.5 110t100.5 152.5t41.5 191h-768v123h892v-756h-124v295q-48 -85 -113 -145q-33 -31 -79 -60.5t-113.5 -60.5t-158.5 -50.5t-190 -19.5q-117 0 -231 27.5t-220.5 88.5t-186.5 148 t-128.5 215t-48.5 281zM852 1634v193h133v-193h-133z" />
<glyph unicode="&#x121;" horiz-adv-x="1409" d="M82 512q0 194 119 332q173 198 487 198q140 0 261.5 -49.5t187.5 -128.5q-4 113 -4 148h131v-934q0 -127 -27 -209q-67 -212 -352 -262q-105 -17 -197 -17q-27 0 -60.5 2t-95 8.5t-123 25t-106.5 46.5q-129 79 -149 254h141q3 -26 7 -41.5t15.5 -41t36.5 -47t62 -38.5 q107 -47 266 -47q121 0 227 27q57 14 95 34t69 57t45.5 96.5t14.5 146.5v88q-14 -19 -30.5 -36.5t-57 -47.5t-88 -51t-124 -37.5t-163.5 -16.5q-154 0 -271 49q-40 17 -76.5 38.5t-82.5 63.5t-79 93t-56 129t-23 168zM229 510q0 -90 39 -182q29 -64 77.5 -110.5t94 -70 t100.5 -37t85.5 -16t60.5 -2.5q97 0 193 31.5t157 93.5q101 101 101 295q0 224 -123 319q-49 39 -129.5 69t-186.5 30q-200 0 -334.5 -112.5t-134.5 -307.5zM610 1200v193h133v-193h-133z" />
<glyph unicode="&#x122;" horiz-adv-x="1835" d="M90 719q0 294 176 498q40 48 92 90t131 86.5t189 71t235 26.5q43 0 93 -5t133.5 -20.5t173 -55t162.5 -97.5q98 -80 174 -205l-136 -78q-45 87 -113.5 152t-149.5 103t-168 56.5t-181 18.5q-147 0 -271.5 -49t-209.5 -134.5t-132.5 -202.5t-47.5 -251q0 -244 139 -410 q34 -40 77.5 -75t109.5 -71t159.5 -57.5t200.5 -21.5q90 0 179 22.5t169.5 69t142.5 110t100.5 152.5t41.5 191h-768v123h892v-756h-124v295q-48 -85 -113 -145q-33 -31 -79 -60.5t-113.5 -60.5t-158.5 -50.5t-190 -19.5q-117 0 -231 27.5t-220.5 88.5t-186.5 148 t-128.5 215t-48.5 281zM834 -82h145v-133q0 -152 -145 -164v60q67 15 67 92h-67v145z" />
<glyph unicode="&#x123;" horiz-adv-x="1409" d="M82 512q0 194 119 332q173 198 487 198q140 0 261.5 -49.5t187.5 -128.5q-4 113 -4 148h131v-934q0 -127 -27 -209q-67 -212 -352 -262q-105 -17 -197 -17q-27 0 -60.5 2t-95 8.5t-123 25t-106.5 46.5q-129 79 -149 254h141q3 -26 7 -41.5t15.5 -41t36.5 -47t62 -38.5 q107 -47 266 -47q121 0 227 27q57 14 95 34t69 57t45.5 96.5t14.5 146.5v88q-14 -19 -30.5 -36.5t-57 -47.5t-88 -51t-124 -37.5t-163.5 -16.5q-154 0 -271 49q-40 17 -76.5 38.5t-82.5 63.5t-79 93t-56 129t-23 168zM229 510q0 -90 39 -182q29 -64 77.5 -110.5t94 -70 t100.5 -37t85.5 -16t60.5 -2.5q97 0 193 31.5t157 93.5q101 101 101 295q0 224 -123 319q-49 39 -129.5 69t-186.5 30q-200 0 -334.5 -112.5t-134.5 -307.5zM606 1137v133q0 152 146 164v-60q-68 -15 -68 -92h68v-145h-146z" />
<glyph unicode="&#x124;" horiz-adv-x="1835" d="M170 0v1446h141v-619h1215v619h137v-1446h-137v707h-1215v-707h-141zM608 1585l234 258h162l221 -258h-131l-174 158l-183 -158h-129z" />
<glyph unicode="&#x125;" d="M-100 1585l233 258h162l221 -258h-131l-174 158l-182 -158h-129zM143 0v1446h136v-598q47 81 175.5 135.5t305.5 54.5q64 0 127 -9t137.5 -31.5t135.5 -71.5t93 -119q28 -57 36.5 -115t8.5 -139v-553h-133v532q0 116 -26 182.5t-76 108.5q-105 92 -338 92 q-216 0 -342 -110q-63 -55 -83.5 -108.5t-20.5 -137.5v-559h-136z" />
<glyph unicode="&#x126;" horiz-adv-x="1835" d="M25 1055v121h145v270h141v-270h1215v270h137v-270h143v-121h-143v-1055h-137v707h-1215v-707h-141v1055h-145zM311 827h1215v228h-1215v-228z" />
<glyph unicode="&#x127;" d="M0 1139v102h143v205h136v-205h534v-102h-534v-291q47 81 175.5 135.5t305.5 54.5q64 0 127 -9t137.5 -31.5t135.5 -71.5t93 -119q28 -57 36.5 -115t8.5 -139v-553h-133v532q0 116 -26 182.5t-76 108.5q-105 92 -338 92q-216 0 -342 -110q-63 -55 -83.5 -108.5 t-20.5 -137.5v-559h-136v1139h-143z" />
<glyph unicode="&#x128;" horiz-adv-x="468" d="M-135 1645q39 81 88.5 128.5t124.5 47.5q56 0 122.5 -25.5t126.5 -50.5t99 -25q37 0 64 26.5t53 74.5l61 -27q-17 -41 -32.5 -68.5t-39.5 -57t-57 -44t-74 -14.5q-55 0 -180.5 51t-175.5 51q-26 0 -49 -16t-36.5 -33.5t-35.5 -52.5zM168 0v1446h137v-1446h-137z" />
<glyph unicode="&#x129;" horiz-adv-x="425" d="M-139 1192q38 81 86 130.5t119 49.5q53 0 117 -25t120.5 -50t93.5 -25q62 0 113 100l59 -29q-16 -41 -31 -68.5t-37.5 -56t-54 -43t-71.5 -14.5q-51 0 -171.5 51.5t-168.5 51.5q-61 0 -117 -103zM145 0v1012h136v-1012h-136z" />
<glyph unicode="&#x12a;" horiz-adv-x="468" d="M-20 1657v106h509v-106h-509zM168 0v1446h137v-1446h-137z" />
<glyph unicode="&#x12b;" horiz-adv-x="425" d="M-18 1165v107h462v-107h-462zM145 0v1012h136v-1012h-136z" />
<glyph unicode="&#x12c;" horiz-adv-x="468" d="M-66 1837h103q4 -24 13 -45.5t28.5 -46.5t57.5 -40t91 -15q186 0 207 147h101q-9 -69 -39.5 -118.5t-75 -75.5t-91 -37t-98.5 -11q-32 0 -62.5 4t-71.5 18.5t-72 39.5t-57 71.5t-34 108.5zM168 0v1446h137v-1446h-137z" />
<glyph unicode="&#x12d;" horiz-adv-x="425" d="M-72 1397h103q4 -25 13 -48.5t27.5 -50.5t54.5 -44t83 -17q22 0 45.5 5t56.5 19.5t57 49.5t31 86h101q-7 -66 -34 -116t-67.5 -79.5t-87 -44t-98.5 -14.5q-28 0 -56.5 4t-68 19.5t-70 41.5t-56.5 75t-34 114zM145 0v1012h136v-1012h-136z" />
<glyph unicode="&#x12e;" horiz-adv-x="468" d="M18 -205q0 52 39.5 107.5t128.5 97.5h-18v1446h137v-1446q-162 -62 -162 -158q0 -48 37.5 -80t108.5 -32q27 0 108 8v-103q-98 -12 -137 -12q-118 0 -180 46.5t-62 125.5z" />
<glyph unicode="&#x12f;" horiz-adv-x="425" d="M-6 -205q0 52 41.5 109t128.5 96h-19v1012h136v-1012q-87 -34 -124.5 -72t-37.5 -86t37 -80t108 -32q28 0 109 8v-103q-98 -12 -137 -12q-118 0 -180 46.5t-62 125.5zM145 1192v197h136v-197h-136z" />
<glyph unicode="&#x130;" horiz-adv-x="468" d="M168 0v1446h137v-1446h-137zM168 1634v193h133v-193h-133z" />
<glyph unicode="&#x131;" horiz-adv-x="425" d="M145 0v1012h136v-1012h-136z" />
<glyph unicode="&#x132;" horiz-adv-x="1748" d="M168 0v1446h137v-1446h-137zM481 354l144 54q15 -63 44.5 -114t63.5 -83t77 -56t78.5 -35.5t76.5 -18.5t62.5 -8t43.5 -1q19 0 37 1t60.5 7.5t77.5 18.5t75.5 38t67.5 62q39 50 60 133t24.5 144.5t3.5 150.5v799h135v-893q0 -70 -6 -127.5t-22.5 -119t-43.5 -110 t-73 -92.5t-107 -75q-130 -66 -299 -66q-214 0 -361 96q-142 91 -219 295z" />
<glyph unicode="&#x133;" horiz-adv-x="851" d="M145 0v1012h136v-1012h-136zM145 1192v197h136v-197h-136zM244 -242q88 -26 159 -26q56 0 92 13t52 38t21 48t5 56v1125h132v-1123q0 -30 -1 -49.5t-6.5 -51.5t-15.5 -53.5t-30 -47t-48 -40.5t-71.5 -25.5t-98.5 -10.5q-90 0 -190 24v123zM573 1188v198h132v-198h-132z " />
<glyph unicode="&#x134;" horiz-adv-x="1280" d="M12 354l144 54q15 -63 44.5 -114t63.5 -83t77 -56t78.5 -35.5t76.5 -18.5t62.5 -8t43.5 -1q19 0 37 1t60.5 7.5t77.5 18.5t75.5 38t67.5 62q39 50 60 133t24.5 144.5t3.5 150.5v799h135v-893q0 -70 -6 -127.5t-22.5 -119t-43.5 -110t-73 -92.5t-107 -75 q-130 -66 -299 -66q-214 0 -361 96q-142 91 -219 295zM768 1585l233 258h162l221 -258h-131l-174 158l-182 -158h-129z" />
<glyph unicode="&#x135;" horiz-adv-x="425" d="M-182 -242q88 -26 159 -26q56 0 92 13t52 38t21 48t5 56v1125h132v-1123q0 -30 -1 -49.5t-6.5 -51.5t-15.5 -53.5t-30 -47t-48 -40.5t-71.5 -25.5t-98.5 -10.5q-90 0 -190 24v123zM-63 1124l221 271h121l213 -271h-105l-168 174l-170 -174h-112z" />
<glyph unicode="&#x136;" horiz-adv-x="1622" d="M170 0v1446h137v-879l1082 879h190l-684 -557l719 -889h-182l-646 801l-479 -389v-412h-137zM784 -82h146v-133q0 -152 -146 -164v60q68 15 68 92h-68v145z" />
<glyph unicode="&#x137;" horiz-adv-x="1366" d="M147 0v1446h134v-1010l757 576h205l-512 -391l643 -621h-200l-556 537l-337 -261v-276h-134zM649 -82h146v-133q0 -152 -146 -164v60q68 15 68 92h-68v145z" />
<glyph unicode="&#x138;" horiz-adv-x="1366" d="M147 0v1012h134v-576l757 576h205l-512 -391l643 -621h-200l-556 537l-337 -261v-276h-134z" />
<glyph unicode="&#x139;" horiz-adv-x="1409" d="M170 0v1446h143v-1325h1053v-121h-1196zM215 1585l172 258h227l-307 -258h-92z" />
<glyph unicode="&#x13a;" horiz-adv-x="425" d="M141 1585l172 258h228l-308 -258h-92zM147 0v1446h136v-1446h-136z" />
<glyph unicode="&#x13b;" horiz-adv-x="1409" d="M170 0v1446h143v-1325h1053v-121h-1196zM696 -82h146v-133q0 -152 -146 -164v60q68 15 68 92h-68v145z" />
<glyph unicode="&#x13c;" horiz-adv-x="425" d="M141 -82h146v-133q0 -152 -146 -164v60q68 15 68 92h-68v145zM147 0v1446h136v-1446h-136z" />
<glyph unicode="&#x13d;" horiz-adv-x="1409" d="M170 0v1446h143v-1325h1053v-121h-1196zM389 1071v66q38 6 57 33.5t19 66.5v39h-76v170h152v-205q0 -159 -152 -170z" />
<glyph unicode="&#x13e;" horiz-adv-x="425" d="M147 0v1446h136v-1446h-136zM358 1071v66q38 6 57 33.5t19 66.5v39h-76v170h152v-205q0 -159 -152 -170z" />
<glyph unicode="&#x13f;" horiz-adv-x="1409" d="M170 0v1446h143v-1325h1053v-121h-1196zM797 664v192h159v-192h-159z" />
<glyph unicode="&#x140;" horiz-adv-x="505" d="M147 0v1446h136v-1446h-136zM397 657v193h144v-193h-144z" />
<glyph unicode="&#x141;" horiz-adv-x="1409" d="M0 369v123l170 96v858h143v-778l746 417v-122l-746 -418v-424h1053v-121h-1196v465z" />
<glyph unicode="&#x142;" horiz-adv-x="425" d="M0 563v131l147 113v639h136v-535l143 111v-131l-143 -111v-780h-136v676z" />
<glyph unicode="&#x143;" horiz-adv-x="1835" d="M170 0v1446h129l1239 -1268v1268h129v-1446h-129l-1239 1262v-1262h-129zM834 1585l172 258h227l-307 -258h-92z" />
<glyph unicode="&#x144;" d="M145 0v1012h138v-142q13 16 29.5 31.5t57.5 42.5t89.5 46.5t127.5 34.5t169 15q106 0 205 -22q229 -54 305 -217q41 -89 41 -242v-559h-136v588q0 51 -9.5 93.5t-38.5 86.5t-75.5 74t-126 49.5t-184.5 19.5q-111 0 -200 -26t-143.5 -69.5t-83.5 -97.5t-29 -112v-606h-136 zM639 1137l160 297h223l-295 -297h-88z" />
<glyph unicode="&#x145;" horiz-adv-x="1835" d="M170 0v1446h129l1239 -1268v1268h129v-1446h-129l-1239 1262v-1262h-129zM844 -82h145v-133q0 -152 -145 -164v60q67 15 67 92h-67v145z" />
<glyph unicode="&#x146;" d="M145 0v1012h138v-142q13 16 29.5 31.5t57.5 42.5t89.5 46.5t127.5 34.5t169 15q106 0 205 -22q229 -54 305 -217q41 -89 41 -242v-559h-136v588q0 51 -9.5 93.5t-38.5 86.5t-75.5 74t-126 49.5t-184.5 19.5q-111 0 -200 -26t-143.5 -69.5t-83.5 -97.5t-29 -112v-606h-136 zM653 -82h146v-133q0 -152 -146 -164v60q68 15 68 92h-68v145z" />
<glyph unicode="&#x147;" horiz-adv-x="1835" d="M170 0v1446h129l1239 -1268v1268h129v-1446h-129l-1239 1262v-1262h-129zM612 1843h133l175 -155l180 155h133l-236 -258h-166z" />
<glyph unicode="&#x148;" d="M145 0v1012h138v-142q13 16 29.5 31.5t57.5 42.5t89.5 46.5t127.5 34.5t169 15q106 0 205 -22q229 -54 305 -217q41 -89 41 -242v-559h-136v588q0 51 -9.5 93.5t-38.5 86.5t-75.5 74t-126 49.5t-184.5 19.5q-111 0 -200 -26t-143.5 -69.5t-83.5 -97.5t-29 -112v-606h-136 zM440 1395h109l166 -174l170 174h110l-219 -271h-125z" />
<glyph unicode="&#x149;" d="M43 1071v66q38 6 57 33.5t19 66.5v39h-76v170h152v-205q0 -159 -152 -170zM145 0v1012h138v-142q13 16 29.5 31.5t57.5 42.5t89.5 46.5t127.5 34.5t169 15q106 0 205 -22q229 -54 305 -217q41 -89 41 -242v-559h-136v588q0 51 -9.5 93.5t-38.5 86.5t-75.5 74t-126 49.5 t-184.5 19.5q-111 0 -200 -26t-143.5 -69.5t-83.5 -97.5t-29 -112v-606h-136z" />
<glyph unicode="&#x14a;" horiz-adv-x="1835" d="M170 0v1446h129l1239 -1268v1268h129v-1532q0 -69 -10.5 -118.5t-37.5 -90.5t-78.5 -61.5t-127.5 -20.5q-82 0 -153 17v131q64 -19 139 -19q84 0 110.5 36.5t26.5 123.5v90l-1237 1260v-1262h-129z" />
<glyph unicode="&#x14b;" d="M145 0v1012h138v-142q13 16 29.5 31.5t57.5 42.5t89.5 46.5t127.5 34.5t169 15q106 0 205 -22q229 -54 305 -217q41 -89 41 -242v-622q0 -126 -45 -189q-63 -86 -207 -86q-75 0 -144 19v122q52 -20 125 -20q72 0 109 43q26 30 26 125v637q0 51 -9.5 93.5t-38.5 86.5 t-75.5 74t-126 49.5t-184.5 19.5q-111 0 -200 -26t-143.5 -69.5t-83.5 -97.5t-29 -112v-606h-136z" />
<glyph unicode="&#x14c;" horiz-adv-x="1878" d="M86 725q0 147 47.5 273t129 215.5t190 153t232 94t253.5 30.5q42 0 83.5 -3.5t112.5 -13.5t139 -35t141 -62.5t142 -102t121 -146.5q117 -187 117 -401q0 -40 -5.5 -85t-20.5 -110.5t-51 -138t-89 -135.5q-66 -80 -152 -138.5t-159.5 -88t-157.5 -46.5t-131 -20.5 t-94 -3.5q-33 0 -68 2t-96 11t-117 24t-125.5 44.5t-128.5 69.5t-117.5 102t-101.5 138q-94 169 -94 373zM238 719q0 -132 47 -248q30 -75 77.5 -136.5t98 -101t112 -69t113 -44t107.5 -23.5t87.5 -11t61.5 -2q146 0 265 38.5t197.5 103t132 152.5t76.5 182t23 196 q0 123 -47 232.5t-133.5 194t-221 134t-298.5 49.5q-269 0 -449 -133q-38 -28 -75.5 -67.5t-79.5 -102t-68 -152.5t-26 -192zM596 1657v106h686v-106h-686z" />
<glyph unicode="&#x14d;" d="M88 506q0 81 22.5 153.5t54.5 121t75.5 90t77 63.5t67.5 39q53 27 146.5 49t205.5 22q267 0 434 -137q48 -39 84 -88t55.5 -93t31 -91t15 -78t3.5 -59q0 -153 -84 -275q-31 -44 -75 -83.5t-110.5 -80t-162.5 -64.5t-207 -24q-81 0 -160 15q-257 45 -385 231 q-88 129 -88 289zM242 504q0 -29 4 -62.5t24 -90.5t54 -101q65 -84 172 -124t223 -40q260 0 395 154q94 109 94 266q0 133 -67.5 232t-175.5 147.5t-238 48.5q-179 0 -309 -86q-28 -19 -54 -44.5t-56 -67t-48 -102t-18 -130.5zM381 1165v107h686v-107h-686z" />
<glyph unicode="&#x14e;" horiz-adv-x="1878" d="M86 725q0 147 47.5 273t129 215.5t190 153t232 94t253.5 30.5q42 0 83.5 -3.5t112.5 -13.5t139 -35t141 -62.5t142 -102t121 -146.5q117 -187 117 -401q0 -40 -5.5 -85t-20.5 -110.5t-51 -138t-89 -135.5q-66 -80 -152 -138.5t-159.5 -88t-157.5 -46.5t-131 -20.5 t-94 -3.5q-33 0 -68 2t-96 11t-117 24t-125.5 44.5t-128.5 69.5t-117.5 102t-101.5 138q-94 169 -94 373zM238 719q0 -132 47 -248q30 -75 77.5 -136.5t98 -101t112 -69t113 -44t107.5 -23.5t87.5 -11t61.5 -2q146 0 265 38.5t197.5 103t132 152.5t76.5 182t23 196 q0 123 -47 232.5t-133.5 194t-221 134t-298.5 49.5q-269 0 -449 -133q-38 -28 -75.5 -67.5t-79.5 -102t-68 -152.5t-26 -192zM639 1837h102q4 -24 13 -45.5t28.5 -46.5t58 -40t91.5 -15q186 0 207 147h100q-9 -69 -39.5 -118.5t-75 -75.5t-90.5 -37t-98 -11q-32 0 -62.5 4 t-71.5 18.5t-72 39.5t-57 71.5t-34 108.5z" />
<glyph unicode="&#x14f;" d="M88 506q0 81 22.5 153.5t54.5 121t75.5 90t77 63.5t67.5 39q53 27 146.5 49t205.5 22q267 0 434 -137q48 -39 84 -88t55.5 -93t31 -91t15 -78t3.5 -59q0 -153 -84 -275q-31 -44 -75 -83.5t-110.5 -80t-162.5 -64.5t-207 -24q-81 0 -160 15q-257 45 -385 231 q-88 129 -88 289zM242 504q0 -29 4 -62.5t24 -90.5t54 -101q65 -84 172 -124t223 -40q260 0 395 154q94 109 94 266q0 133 -67.5 232t-175.5 147.5t-238 48.5q-179 0 -309 -86q-28 -19 -54 -44.5t-56 -67t-48 -102t-18 -130.5zM438 1397h103q4 -25 13 -48.5t27.5 -50.5 t54.5 -44t83 -17q22 0 45.5 5t56.5 19.5t57 49.5t31 86h101q-7 -66 -34 -116t-67.5 -79.5t-87 -44t-98.5 -14.5q-28 0 -56.5 4t-68 19.5t-70 41.5t-56.5 75t-34 114z" />
<glyph unicode="&#x150;" horiz-adv-x="1878" d="M86 725q0 147 47.5 273t129 215.5t190 153t232 94t253.5 30.5q42 0 83.5 -3.5t112.5 -13.5t139 -35t141 -62.5t142 -102t121 -146.5q117 -187 117 -401q0 -40 -5.5 -85t-20.5 -110.5t-51 -138t-89 -135.5q-66 -80 -152 -138.5t-159.5 -88t-157.5 -46.5t-131 -20.5 t-94 -3.5q-33 0 -68 2t-96 11t-117 24t-125.5 44.5t-128.5 69.5t-117.5 102t-101.5 138q-94 169 -94 373zM238 719q0 -132 47 -248q30 -75 77.5 -136.5t98 -101t112 -69t113 -44t107.5 -23.5t87.5 -11t61.5 -2q146 0 265 38.5t197.5 103t132 152.5t76.5 182t23 196 q0 123 -47 232.5t-133.5 194t-221 134t-298.5 49.5q-269 0 -449 -133q-38 -28 -75.5 -67.5t-79.5 -102t-68 -152.5t-26 -192zM723 1585l170 258h209l-299 -258h-80zM1034 1585l170 258h209l-299 -258h-80z" />
<glyph unicode="&#x151;" d="M88 506q0 81 22.5 153.5t54.5 121t75.5 90t77 63.5t67.5 39q53 27 146.5 49t205.5 22q267 0 434 -137q48 -39 84 -88t55.5 -93t31 -91t15 -78t3.5 -59q0 -153 -84 -275q-31 -44 -75 -83.5t-110.5 -80t-162.5 -64.5t-207 -24q-81 0 -160 15q-257 45 -385 231 q-88 129 -88 289zM242 504q0 -29 4 -62.5t24 -90.5t54 -101q65 -84 172 -124t223 -40q260 0 395 154q94 109 94 266q0 133 -67.5 232t-175.5 147.5t-238 48.5q-179 0 -309 -86q-28 -19 -54 -44.5t-56 -67t-48 -102t-18 -130.5zM514 1137l166 297h199l-281 -297h-84z M803 1137l166 297h198l-280 -297h-84z" />
<glyph unicode="&#x152;" horiz-adv-x="2347" d="M80 729q0 48 7 105.5t39 153.5t85 173q27 39 61 76.5t92 83t124 78.5t159.5 55.5t196.5 22.5q111 0 187 -18t190 -66v53h1024v-119h-883v-516h821v-121h-821v-569h913v-121h-1054v47q-3 -1 -32 -14.5t-41.5 -18.5t-47.5 -16.5t-65 -16.5t-77.5 -9.5t-99.5 -4.5 q-331 0 -547 205q-118 114 -174.5 262.5t-56.5 294.5zM233 727q0 -120 48.5 -249.5t150.5 -223.5q176 -162 455 -162q94 0 165 18t169 60v1094q-3 1 -24.5 12t-39.5 19t-52.5 20.5t-68.5 20.5t-82 14t-98 6q-238 0 -407 -144q-67 -58 -114 -132t-67 -145t-27.5 -119.5 t-7.5 -88.5z" />
<glyph unicode="&#x153;" horiz-adv-x="2433" d="M82 508q0 34 5 71.5t19.5 91.5t49 110t84.5 102q178 164 458 164q27 0 56.5 -2t84 -12t103.5 -27.5t106 -52t99 -81.5q35 -37 74 -98q73 135 211.5 202.5t304.5 67.5q100 0 187.5 -23.5t145 -57t104.5 -79t71.5 -81.5t42.5 -72q17 -36 29.5 -79.5t17 -71.5t12.5 -86 h-1047q11 -130 82.5 -222.5t174.5 -135t227 -42.5q155 0 276 73.5t178 186.5l109 -78q-32 -52 -82.5 -101.5t-121.5 -96t-169 -75t-205 -28.5q-37 0 -82.5 5.5t-113 24.5t-127.5 48.5t-119.5 84t-95.5 124.5q-33 -55 -80 -102.5t-113 -90t-157 -67.5t-195 -25q-34 0 -70 3 t-102 17t-123.5 39t-121 75t-107.5 118q-80 122 -80 279zM236 508q0 -24 3.5 -52.5t14 -73.5t37 -91t65.5 -82q50 -46 134 -81.5t200 -35.5q100 0 187 33q30 11 60 27t69.5 48.5t68.5 72.5t49.5 101.5t20.5 133.5q0 126 -62 224t-164.5 149t-226.5 51q-192 0 -324 -116.5 t-132 -307.5zM1303 606h880q-2 14 -8 33t-21 52t-36 63.5t-57.5 63.5t-80.5 57.5t-109.5 40.5t-141.5 16q-22 0 -43.5 -1.5t-60.5 -8.5t-73 -19.5t-74.5 -37t-72.5 -57.5t-60 -85.5t-42 -116.5z" />
<glyph unicode="&#x154;" horiz-adv-x="1792" d="M170 0v1446h1065q50 0 92 -5.5t95 -21t101 -51.5t83 -90q63 -96 63 -229q0 -30 -4.5 -60.5t-17.5 -77t-45 -92.5t-80 -82q-39 -29 -82.5 -47t-97.5 -27t-88.5 -12t-98.5 -6l582 -645h-195l-571 645h-662v-645h-139zM309 768h781q57 0 91.5 1.5t87.5 9.5t88 22.5t71 44.5 t57 72q33 66 33 139q0 18 -3.5 41t-14 57t-34.5 67.5t-59 57.5q-34 22 -77 33t-72.5 12.5t-83.5 1.5h-865v-559zM719 1585l172 258h227l-307 -258h-92z" />
<glyph unicode="&#x155;" horiz-adv-x="811" d="M145 0v1012h136v-164q37 56 93 96.5t118 61t118 29.5t111 9l65 -2v-141q-70 8 -106 8q-110 0 -192 -35.5t-123 -80.5q-84 -91 -84 -248v-545h-136zM264 1137l160 297h223l-295 -297h-88z" />
<glyph unicode="&#x156;" horiz-adv-x="1792" d="M170 0v1446h1065q50 0 92 -5.5t95 -21t101 -51.5t83 -90q63 -96 63 -229q0 -30 -4.5 -60.5t-17.5 -77t-45 -92.5t-80 -82q-39 -29 -82.5 -47t-97.5 -27t-88.5 -12t-98.5 -6l582 -645h-195l-571 645h-662v-645h-139zM309 768h781q57 0 91.5 1.5t87.5 9.5t88 22.5t71 44.5 t57 72q33 66 33 139q0 18 -3.5 41t-14 57t-34.5 67.5t-59 57.5q-34 22 -77 33t-72.5 12.5t-83.5 1.5h-865v-559zM823 -82h146v-133q0 -152 -146 -164v60q68 15 68 92h-68v145z" />
<glyph unicode="&#x157;" horiz-adv-x="811" d="M139 -82h146v-133q0 -152 -146 -164v60q68 15 68 92h-68v145zM145 0v1012h136v-164q37 56 93 96.5t118 61t118 29.5t111 9l65 -2v-141q-70 8 -106 8q-110 0 -192 -35.5t-123 -80.5q-84 -91 -84 -248v-545h-136z" />
<glyph unicode="&#x158;" horiz-adv-x="1792" d="M170 0v1446h1065q50 0 92 -5.5t95 -21t101 -51.5t83 -90q63 -96 63 -229q0 -30 -4.5 -60.5t-17.5 -77t-45 -92.5t-80 -82q-39 -29 -82.5 -47t-97.5 -27t-88.5 -12t-98.5 -6l582 -645h-195l-571 645h-662v-645h-139zM309 768h781q57 0 91.5 1.5t87.5 9.5t88 22.5t71 44.5 t57 72q33 66 33 139q0 18 -3.5 41t-14 57t-34.5 67.5t-59 57.5q-34 22 -77 33t-72.5 12.5t-83.5 1.5h-865v-559zM522 1843h133l174 -155l181 155h133l-236 -258h-166z" />
<glyph unicode="&#x159;" horiz-adv-x="811" d="M143 1395h109l166 -174l170 174h110l-219 -271h-125zM145 0v1012h136v-164q37 56 93 96.5t118 61t118 29.5t111 9l65 -2v-141q-70 8 -106 8q-110 0 -192 -35.5t-123 -80.5q-84 -91 -84 -248v-545h-136z" />
<glyph unicode="&#x15a;" horiz-adv-x="1662" d="M66 362l151 58l13.5 -34.5t20.5 -41.5t30.5 -48.5t43.5 -48t60.5 -48.5t79 -42t101.5 -36t126.5 -22t155.5 -9q110 0 210.5 21.5t181 61.5t128 104.5t47.5 144.5q0 49 -15 86t-53.5 63.5t-71 43.5t-102 31.5t-109 20.5t-127.5 18q-5 1 -7 1l-316 43q-181 25 -264 68 q-25 13 -48.5 30t-54.5 49t-50 81t-19 108q0 183 175.5 301.5t490.5 118.5q45 0 89.5 -3t129 -19t157 -44t156.5 -84.5t146 -134.5l-131 -70q-164 230 -557 230q-75 0 -146 -10t-137.5 -32.5t-116 -55t-79 -82t-29.5 -109.5q0 -102 112 -156q42 -20 96.5 -31t172.5 -26 q49 -7 145.5 -20.5t136 -19t107.5 -16.5t103.5 -19.5t77.5 -20.5t73 -25q99 -42 157 -122t58 -185q0 -117 -68 -215q-87 -123 -249 -187.5t-435 -64.5q-38 0 -82.5 3t-122 16t-147 34t-145 63.5t-128.5 98.5q-26 27 -49 60t-36 55.5t-37 68.5zM696 1585l172 258h228 l-308 -258h-92z" />
<glyph unicode="&#x15b;" horiz-adv-x="1280" d="M61 250l148 33q35 -87 145 -136q125 -49 314 -49q110 0 198 21t144.5 68t56.5 114q0 37 -22 64.5t-63 43.5t-87.5 24.5t-106.5 12.5q-70 4 -169 8.5t-149 7t-106.5 10.5t-93.5 22q-23 8 -46 22t-52 40t-47.5 69.5t-18.5 97.5q0 71 27.5 126t74.5 90.5t114 58.5 t141.5 32.5t161.5 9.5q456 0 557 -237l-150 -31q-26 43 -43 59q-55 48 -164.5 69.5t-208.5 21.5q-42 0 -84 -3.5t-96 -15t-94 -30.5t-68 -55t-28 -83q0 -40 27 -73t67 -44q36 -10 197 -20q34 -2 102 -5.5t96.5 -5t80 -5.5t77.5 -7.5t61 -10t60 -15t47 -19.5q20 -10 40.5 -25 t45.5 -42t41 -69t16 -91q0 -22 -4 -45.5t-18 -57t-36.5 -63t-63.5 -60t-95 -52.5t-135 -36t-180 -14q-270 0 -419.5 73t-191.5 202zM551 1137l160 297h223l-295 -297h-88z" />
<glyph unicode="&#x15c;" horiz-adv-x="1662" d="M66 362l151 58l13.5 -34.5t20.5 -41.5t30.5 -48.5t43.5 -48t60.5 -48.5t79 -42t101.5 -36t126.5 -22t155.5 -9q110 0 210.5 21.5t181 61.5t128 104.5t47.5 144.5q0 49 -15 86t-53.5 63.5t-71 43.5t-102 31.5t-109 20.5t-127.5 18q-5 1 -7 1l-316 43q-181 25 -264 68 q-25 13 -48.5 30t-54.5 49t-50 81t-19 108q0 183 175.5 301.5t490.5 118.5q45 0 89.5 -3t129 -19t157 -44t156.5 -84.5t146 -134.5l-131 -70q-164 230 -557 230q-75 0 -146 -10t-137.5 -32.5t-116 -55t-79 -82t-29.5 -109.5q0 -102 112 -156q42 -20 96.5 -31t172.5 -26 q49 -7 145.5 -20.5t136 -19t107.5 -16.5t103.5 -19.5t77.5 -20.5t73 -25q99 -42 157 -122t58 -185q0 -117 -68 -215q-87 -123 -249 -187.5t-435 -64.5q-38 0 -82.5 3t-122 16t-147 34t-145 63.5t-128.5 98.5q-26 27 -49 60t-36 55.5t-37 68.5zM539 1585l233 258h162 l221 -258h-131l-174 158l-182 -158h-129z" />
<glyph unicode="&#x15d;" horiz-adv-x="1280" d="M61 250l148 33q35 -87 145 -136q125 -49 314 -49q110 0 198 21t144.5 68t56.5 114q0 37 -22 64.5t-63 43.5t-87.5 24.5t-106.5 12.5q-70 4 -169 8.5t-149 7t-106.5 10.5t-93.5 22q-23 8 -46 22t-52 40t-47.5 69.5t-18.5 97.5q0 71 27.5 126t74.5 90.5t114 58.5 t141.5 32.5t161.5 9.5q456 0 557 -237l-150 -31q-26 43 -43 59q-55 48 -164.5 69.5t-208.5 21.5q-42 0 -84 -3.5t-96 -15t-94 -30.5t-68 -55t-28 -83q0 -40 27 -73t67 -44q36 -10 197 -20q34 -2 102 -5.5t96.5 -5t80 -5.5t77.5 -7.5t61 -10t60 -15t47 -19.5q20 -10 40.5 -25 t45.5 -42t41 -69t16 -91q0 -22 -4 -45.5t-18 -57t-36.5 -63t-63.5 -60t-95 -52.5t-135 -36t-180 -14q-270 0 -419.5 73t-191.5 202zM377 1124l221 271h121l213 -271h-105l-168 174l-170 -174h-112z" />
<glyph unicode="&#x15e;" horiz-adv-x="1662" d="M66 362l151 58l13.5 -34.5t20.5 -41.5t30.5 -48.5t43.5 -48t60.5 -48.5t79 -42t101.5 -36t126.5 -22t155.5 -9q110 0 210.5 21.5t181 61.5t128 104.5t47.5 144.5q0 49 -15 86t-53.5 63.5t-71 43.5t-102 31.5t-109 20.5t-127.5 18q-5 1 -7 1l-316 43q-181 25 -264 68 q-25 13 -48.5 30t-54.5 49t-50 81t-19 108q0 183 175.5 301.5t490.5 118.5q45 0 89.5 -3t129 -19t157 -44t156.5 -84.5t146 -134.5l-131 -70q-164 230 -557 230q-75 0 -146 -10t-137.5 -32.5t-116 -55t-79 -82t-29.5 -109.5q0 -102 112 -156q42 -20 96.5 -31t172.5 -26 q49 -7 145.5 -20.5t136 -19t107.5 -16.5t103.5 -19.5t77.5 -20.5t73 -25q99 -42 157 -122t58 -185q0 -117 -68 -215q-82 -118 -235 -182t-408 -70v-86q47 0 88.5 -11.5t75 -45.5t33.5 -86q0 -67 -60 -110.5t-180 -43.5q-61 0 -164 12v68q90 -8 133 -8q20 0 41 2.5t45.5 9.5 t40 22.5t15.5 37.5q0 77 -150 77h-10v164q-62 3 -126 12.5t-148 31t-164 65t-136 104.5q-26 27 -49 60t-36 55.5t-37 68.5z" />
<glyph unicode="&#x15f;" horiz-adv-x="1280" d="M61 250l148 33q35 -87 145 -136q125 -49 314 -49q110 0 198 21t144.5 68t56.5 114q0 37 -22 64.5t-63 43.5t-87.5 24.5t-106.5 12.5q-70 4 -169 8.5t-149 7t-106.5 10.5t-93.5 22q-23 8 -46 22t-52 40t-47.5 69.5t-18.5 97.5q0 71 27.5 126t74.5 90.5t114 58.5 t141.5 32.5t161.5 9.5q456 0 557 -237l-150 -31q-26 43 -43 59q-55 48 -164.5 69.5t-208.5 21.5q-42 0 -84 -3.5t-96 -15t-94 -30.5t-68 -55t-28 -83q0 -40 27 -73t67 -44q36 -10 197 -20q34 -2 102 -5.5t96.5 -5t80 -5.5t77.5 -7.5t61 -10t60 -15t47 -19.5q20 -10 40.5 -25 t45.5 -42t41 -69t16 -91q0 -22 -4 -45.5t-18 -57t-36.5 -63t-64 -60t-95.5 -52.5t-136.5 -36t-181.5 -14v-98q47 0 88 -11.5t74.5 -45.5t33.5 -86q0 -67 -59.5 -110.5t-179.5 -43.5q-61 0 -164 12v68q90 -8 133 -8q29 0 57 4t56 21.5t28 46.5q0 77 -149 77h-11v179 q-225 11 -351 82.5t-163 187.5z" />
<glyph unicode="&#x160;" horiz-adv-x="1662" d="M66 362l151 58l13.5 -34.5t20.5 -41.5t30.5 -48.5t43.5 -48t60.5 -48.5t79 -42t101.5 -36t126.5 -22t155.5 -9q110 0 210.5 21.5t181 61.5t128 104.5t47.5 144.5q0 49 -15 86t-53.5 63.5t-71 43.5t-102 31.5t-109 20.5t-127.5 18q-5 1 -7 1l-316 43q-181 25 -264 68 q-25 13 -48.5 30t-54.5 49t-50 81t-19 108q0 183 175.5 301.5t490.5 118.5q45 0 89.5 -3t129 -19t157 -44t156.5 -84.5t146 -134.5l-131 -70q-164 230 -557 230q-75 0 -146 -10t-137.5 -32.5t-116 -55t-79 -82t-29.5 -109.5q0 -102 112 -156q42 -20 96.5 -31t172.5 -26 q49 -7 145.5 -20.5t136 -19t107.5 -16.5t103.5 -19.5t77.5 -20.5t73 -25q99 -42 157 -122t58 -185q0 -117 -68 -215q-87 -123 -249 -187.5t-435 -64.5q-38 0 -82.5 3t-122 16t-147 34t-145 63.5t-128.5 98.5q-26 27 -49 60t-36 55.5t-37 68.5zM526 1843h133l175 -155 l180 155h133l-236 -258h-166z" />
<glyph unicode="&#x161;" horiz-adv-x="1280" d="M61 250l148 33q35 -87 145 -136q125 -49 314 -49q110 0 198 21t144.5 68t56.5 114q0 37 -22 64.5t-63 43.5t-87.5 24.5t-106.5 12.5q-70 4 -169 8.5t-149 7t-106.5 10.5t-93.5 22q-23 8 -46 22t-52 40t-47.5 69.5t-18.5 97.5q0 71 27.5 126t74.5 90.5t114 58.5 t141.5 32.5t161.5 9.5q456 0 557 -237l-150 -31q-26 43 -43 59q-55 48 -164.5 69.5t-208.5 21.5q-42 0 -84 -3.5t-96 -15t-94 -30.5t-68 -55t-28 -83q0 -40 27 -73t67 -44q36 -10 197 -20q34 -2 102 -5.5t96.5 -5t80 -5.5t77.5 -7.5t61 -10t60 -15t47 -19.5q20 -10 40.5 -25 t45.5 -42t41 -69t16 -91q0 -22 -4 -45.5t-18 -57t-36.5 -63t-63.5 -60t-95 -52.5t-135 -36t-180 -14q-270 0 -419.5 73t-191.5 202zM371 1395h108l166 -174l170 174h111l-219 -271h-125z" />
<glyph unicode="&#x162;" horiz-adv-x="1409" d="M-2 1327v119h1407v-119h-621v-1327h-137v1327h-649zM643 -82h145v-133q0 -152 -145 -164v60q68 15 68 92h-68v145z" />
<glyph unicode="&#x163;" horiz-adv-x="641" d="M18 907v105h193v346l135 63v-409h287v-105h-287v-481q0 -52 1 -85.5t5.5 -72.5t12.5 -62t22.5 -46.5t35.5 -36t51 -20t69 -7.5q3 0 90 6v-110q-99 -15 -135 -15q-173 0 -240 109q-30 48 -38.5 114t-8.5 201v506h-193zM322 -82h145v-133q0 -152 -145 -164v60q67 15 67 92 h-67v145z" />
<glyph unicode="&#x164;" horiz-adv-x="1409" d="M-2 1327v119h1407v-119h-621v-1327h-137v1327h-649zM408 1843h133l174 -155l180 155h133l-235 -258h-166z" />
<glyph unicode="&#x165;" horiz-adv-x="641" d="M18 907v105h193v346l135 63v-409h287v-105h-287v-481q0 -52 1 -85.5t5.5 -72.5t12.5 -62t22.5 -46.5t35.5 -36t51 -20t69 -7.5q3 0 90 6v-110q-99 -15 -135 -15q-173 0 -240 109q-30 48 -38.5 114t-8.5 201v506h-193zM422 1071v66q38 6 57 33.5t19 66.5v39h-76v170h151 v-205q0 -159 -151 -170z" />
<glyph unicode="&#x166;" horiz-adv-x="1409" d="M-2 1327v119h1407v-119h-621v-315h424v-121h-424v-891h-137v891h-424v121h424v315h-649z" />
<glyph unicode="&#x167;" horiz-adv-x="641" d="M18 907v105h193v346l135 63v-409h287v-105h-287v-182h258v-104h-258v-195q0 -52 1 -85.5t5.5 -72.5t12.5 -62t22.5 -46.5t35.5 -36t51 -20t69 -7.5q3 0 90 6v-110q-99 -15 -135 -15q-173 0 -240 109q-30 48 -38.5 114t-8.5 201v220h-184v104h184v182h-193z" />
<glyph unicode="&#x168;" horiz-adv-x="1792" d="M162 610v836h133v-830q0 -113 14 -192t64 -148q132 -182 489 -182q243 0 375 50t197 163q36 63 48.5 144t12.5 231v764h131v-873q0 -213 -86 -350q-60 -97 -149.5 -151.5t-212.5 -81.5t-269 -27q-206 0 -356 43q-269 77 -354 311q-37 99 -37 293zM524 1645 q39 81 88.5 128.5t124.5 47.5q56 0 122.5 -25.5t126.5 -50.5t99 -25q37 0 64 26.5t53 74.5l62 -27q-37 -87 -81.5 -135.5t-121.5 -48.5q-55 0 -180.5 51t-175.5 51q-26 0 -49 -16t-36.5 -33.5t-35.5 -52.5z" />
<glyph unicode="&#x169;" d="M145 446v566h136v-592q0 -32 2.5 -58t12 -61t25.5 -61.5t45.5 -54.5t70 -46t101 -29.5t136.5 -11.5q131 0 266 40.5t195 127.5q23 34 29.5 65t6.5 79v602h134v-1012h-134v145q-193 -172 -499 -172q-75 0 -142.5 10t-137.5 34t-124.5 72t-83.5 116q-21 46 -30 97.5 t-9 143.5zM371 1192q38 81 85.5 130.5t118.5 49.5q53 0 117 -25t121 -50t94 -25q62 0 113 100l59 -29q-16 -41 -31 -68.5t-37.5 -56t-54 -43t-71.5 -14.5q-51 0 -171 51.5t-169 51.5q-61 0 -117 -103z" />
<glyph unicode="&#x16a;" horiz-adv-x="1792" d="M162 610v836h133v-830q0 -113 14 -192t64 -148q132 -182 489 -182q243 0 375 50t197 163q36 63 48.5 144t12.5 231v764h131v-873q0 -213 -86 -350q-60 -97 -149.5 -151.5t-212.5 -81.5t-269 -27q-206 0 -356 43q-269 77 -354 311q-37 99 -37 293zM553 1657v106h686v-106 h-686z" />
<glyph unicode="&#x16b;" d="M145 446v566h136v-592q0 -32 2.5 -58t12 -61t25.5 -61.5t45.5 -54.5t70 -46t101 -29.5t136.5 -11.5q131 0 266 40.5t195 127.5q23 34 29.5 65t6.5 79v602h134v-1012h-134v145q-193 -172 -499 -172q-75 0 -142.5 10t-137.5 34t-124.5 72t-83.5 116q-21 46 -30 97.5 t-9 143.5zM385 1165v107h686v-107h-686z" />
<glyph unicode="&#x16c;" horiz-adv-x="1792" d="M162 610v836h133v-830q0 -113 14 -192t64 -148q132 -182 489 -182q243 0 375 50t197 163q36 63 48.5 144t12.5 231v764h131v-873q0 -213 -86 -350q-60 -97 -149.5 -151.5t-212.5 -81.5t-269 -27q-206 0 -356 43q-269 77 -354 311q-37 99 -37 293zM596 1837h102 q4 -24 13 -45.5t28.5 -46.5t58 -40t91.5 -15q186 0 207 147h100q-9 -69 -39.5 -118.5t-75 -75.5t-90.5 -37t-98 -11q-32 0 -62.5 4t-71.5 18.5t-72 39.5t-57 71.5t-34 108.5z" />
<glyph unicode="&#x16d;" d="M145 446v566h136v-592q0 -32 2.5 -58t12 -61t25.5 -61.5t45.5 -54.5t70 -46t101 -29.5t136.5 -11.5q131 0 266 40.5t195 127.5q23 34 29.5 65t6.5 79v602h134v-1012h-134v145q-193 -172 -499 -172q-75 0 -142.5 10t-137.5 34t-124.5 72t-83.5 116q-21 46 -30 97.5 t-9 143.5zM438 1397h103q4 -25 13 -48.5t27.5 -50.5t54.5 -44t83 -17q22 0 45.5 5t56.5 19.5t57 49.5t31 86h101q-7 -66 -34 -116t-67.5 -79.5t-87 -44t-98.5 -14.5q-28 0 -56.5 4t-68 19.5t-70 41.5t-56.5 75t-34 114z" />
<glyph unicode="&#x16e;" horiz-adv-x="1792" d="M162 610v836h133v-830q0 -113 14 -192t64 -148q132 -182 489 -182q243 0 375 50t197 163q36 63 48.5 144t12.5 231v764h131v-873q0 -213 -86 -350q-60 -97 -149.5 -151.5t-212.5 -81.5t-269 -27q-206 0 -356 43q-269 77 -354 311q-37 99 -37 293zM662 1694q0 49 25 85.5 t64.5 55t78.5 27t77 8.5q109 0 164 -51t55 -117q0 -62 -37 -105t-87 -60t-105 -17q-56 0 -99 12.5t-68 31.5t-41 43.5t-21.5 45.5t-5.5 41zM768 1694q0 -35 32 -59.5t93 -24.5q48 0 86.5 20t38.5 66q0 36 -30 63t-91 27q-66 0 -97.5 -27.5t-31.5 -64.5z" />
<glyph unicode="&#x16f;" d="M145 446v566h136v-592q0 -32 2.5 -58t12 -61t25.5 -61.5t45.5 -54.5t70 -46t101 -29.5t136.5 -11.5q131 0 266 40.5t195 127.5q23 34 29.5 65t6.5 79v602h134v-1012h-134v145q-193 -172 -499 -172q-75 0 -142.5 10t-137.5 34t-124.5 72t-83.5 116q-21 46 -30 97.5 t-9 143.5zM489 1290q0 60 38 101.5t89 58t107 16.5q115 0 175 -50t60 -124q0 -48 -25 -84.5t-63.5 -55.5t-77 -28.5t-73.5 -9.5q-37 0 -74.5 9.5t-73.5 29t-59 55.5t-23 82zM594 1290q0 -37 33.5 -60.5t93.5 -23.5q58 0 92.5 24t34.5 60q0 38 -32 65t-93 27q-59 0 -94 -27.5 t-35 -64.5z" />
<glyph unicode="&#x170;" horiz-adv-x="1792" d="M162 610v836h133v-830q0 -113 14 -192t64 -148q132 -182 489 -182q243 0 375 50t197 163q36 63 48.5 144t12.5 231v764h131v-873q0 -213 -86 -350q-60 -97 -149.5 -151.5t-212.5 -81.5t-269 -27q-206 0 -356 43q-269 77 -354 311q-37 99 -37 293zM653 1585l170 258h209 l-299 -258h-80zM965 1585l170 258h208l-299 -258h-79z" />
<glyph unicode="&#x171;" d="M145 446v566h136v-592q0 -32 2.5 -58t12 -61t25.5 -61.5t45.5 -54.5t70 -46t101 -29.5t136.5 -11.5q131 0 266 40.5t195 127.5q23 34 29.5 65t6.5 79v602h134v-1012h-134v145q-193 -172 -499 -172q-75 0 -142.5 10t-137.5 34t-124.5 72t-83.5 116q-21 46 -30 97.5 t-9 143.5zM502 1137l166 297h198l-280 -297h-84zM791 1137l165 297h199l-281 -297h-83z" />
<glyph unicode="&#x172;" horiz-adv-x="1792" d="M162 610v836h133v-830q0 -113 14 -192t64 -148q132 -182 489 -182q243 0 375 50t197 163q36 63 48.5 144t12.5 231v764h131v-873q0 -213 -86 -350q-66 -108 -182 -170.5t-311 -83.5q-36 -4 -67.5 -15t-58 -40t-26.5 -72q0 -48 37 -80t108 -32q28 0 109 8v-103 q-98 -12 -137 -12q-118 0 -180 46.5t-62 125.5q0 96 102 168q-187 6 -319 43q-269 77 -354 311q-37 99 -37 293z" />
<glyph unicode="&#x173;" d="M145 446v566h136v-592q0 -32 2.5 -58t12 -61t25.5 -61.5t45.5 -54.5t70 -46t101 -29.5t136.5 -11.5q131 0 266 40.5t195 127.5q23 34 29.5 65t6.5 79v602h134v-1012q-94 -16 -144.5 -61.5t-50.5 -96.5q0 -48 37 -80t108 -32q28 0 109 8v-103q-98 -12 -137 -12 q-118 0 -180 46.5t-62 125.5q0 55 43.5 113t142.5 100v137q-193 -172 -499 -172q-75 0 -142.5 10t-137.5 34t-124.5 72t-83.5 116q-21 46 -30 97.5t-9 143.5z" />
<glyph unicode="&#x174;" horiz-adv-x="2174" d="M6 1446h146l421 -1299l447 1299h149l457 -1299l406 1299h137l-459 -1446h-168l-448 1300l-445 -1300h-164zM778 1585l234 258h162l221 -258h-131l-174 158l-183 -158h-129z" />
<glyph unicode="&#x175;" horiz-adv-x="1748" d="M0 1012h145l336 -846l324 846h141l328 -846l334 846h139l-410 -1012h-129l-334 856l-327 -856h-129zM596 1124l221 271h121l213 -271h-104l-168 174l-170 -174h-113z" />
<glyph unicode="&#x176;" horiz-adv-x="1492" d="M12 1446h172l576 -744l557 744h164l-656 -860v-586h-131v586zM455 1585l233 258h162l221 -258h-131l-174 158l-182 -158h-129z" />
<glyph unicode="&#x177;" horiz-adv-x="1150" d="M0 1012h162l452 -918l387 918h146l-477 -1090q-48 -112 -77.5 -163t-76.5 -87q-89 -69 -285 -69q-100 0 -208 24v127q109 -37 204 -37q64 0 113.5 13.5t80 32.5t56 53.5t37.5 59.5t29 69zM322 1124l221 271h121l213 -271h-105l-168 174l-170 -174h-112z" />
<glyph unicode="&#x178;" horiz-adv-x="1492" d="M12 1446h172l576 -744l557 744h164l-656 -860v-586h-131v586zM346 1634v197h150v-197h-150zM1008 1634v197h149v-197h-149z" />
<glyph unicode="&#x179;" horiz-adv-x="1536" d="M0 0v117l1350 1210h-1237v119h1423v-127l-1337 -1198h1300v-121h-1499zM688 1585l172 258h227l-307 -258h-92z" />
<glyph unicode="&#x17a;" horiz-adv-x="1150" d="M23 0v111l901 790h-836v111h1030v-94l-907 -805h907v-113h-1095zM498 1137l159 297h224l-295 -297h-88z" />
<glyph unicode="&#x17b;" horiz-adv-x="1536" d="M0 0v117l1350 1210h-1237v119h1423v-127l-1337 -1198h1300v-121h-1499zM741 1634v193h133v-193h-133z" />
<glyph unicode="&#x17c;" horiz-adv-x="1150" d="M23 0v111l901 790h-836v111h1030v-94l-907 -805h907v-113h-1095zM522 1200v193h133v-193h-133z" />
<glyph unicode="&#x17d;" horiz-adv-x="1536" d="M0 0v117l1350 1210h-1237v119h1423v-127l-1337 -1198h1300v-121h-1499zM504 1843h133l174 -155l180 155h133l-235 -258h-166z" />
<glyph unicode="&#x17e;" horiz-adv-x="1150" d="M23 0v111l901 790h-836v111h1030v-94l-907 -805h907v-113h-1095zM328 1395h108l166 -174l170 174h111l-219 -271h-125z" />
<glyph unicode="&#x17f;" horiz-adv-x="540" d="M20 907v105h201v198q0 64 11.5 108t46.5 85q40 47 95.5 62.5t131.5 15.5q98 0 192 -21v-119q-97 21 -184 21q-21 0 -36.5 -1.5t-40.5 -10t-41 -24.5t-28 -48t-12 -76v-1202h-135v907h-201z" />
<glyph unicode="&#x192;" horiz-adv-x="724" d="M-233 -446l12 118q86 -20 172 -20q98 0 138 43.5t50 140.5l115 1036h-201l13 105h200l23 197q5 41 13 73t29.5 71.5t53 65.5t87 44t128.5 18q107 0 193 -21l-13 -118q-94 20 -172 20q-95 0 -136 -44t-52 -140l-19 -166h342l-12 -105h-342l-119 -1071q-24 -185 -164 -245 q-53 -23 -147 -23q-106 0 -192 21z" />
<glyph unicode="&#x1fa;" horiz-adv-x="1622" d="M12 0l713 1446h156l729 -1446h-150l-186 375h-932l-184 -375h-146zM397 489h820l-414 828zM621 1657q0 41 18 71t47 45t58.5 22t58.5 7q86 0 130 -40t44 -99q0 -75 -54 -113.5t-122 -38.5q-53 0 -91 15.5t-56 40t-25.5 46.5t-7.5 44zM690 1839l172 205h228l-308 -205h-92 zM711 1657q0 -27 22.5 -44.5t65.5 -17.5q33 0 59.5 15t26.5 49q0 28 -20.5 46.5t-63.5 18.5q-90 0 -90 -67z" />
<glyph unicode="&#x1fb;" horiz-adv-x="1366" d="M84 303q0 74 34 141.5t93 108.5q52 36 132 58.5t205.5 33t231.5 14t293 5.5q0 103 -35 153q-71 101 -383 101q-93 0 -160 -9.5t-109 -24.5t-71 -43.5t-44.5 -57t-30.5 -74.5l-144 8q8 32 16 53.5t28.5 62t56 75.5t84.5 61q131 71 362 71q368 0 487 -131 q41 -47 54.5 -99.5t13.5 -123.5v-444q0 -83 30 -110.5t101 -27.5h35v-104q-70 -8 -135 -8q-30 0 -54 7t-39.5 20t-26.5 26t-17.5 31t-10 29t-6 25.5t-2.5 16.5q-62 -47 -110 -73q-186 -101 -426 -101q-82 0 -143 8t-129 39t-113 86q-68 84 -68 197zM229 299q0 -57 30.5 -99 t80.5 -64t103 -32t110 -10q49 0 111.5 10t136 31t138.5 62.5t97 97.5q37 64 37 201v53h-63q-434 0 -607.5 -53t-173.5 -197zM442 1290q0 60 38 101.5t89 58t107 16.5q115 0 175 -50t60 -124q0 -48 -23.5 -84.5t-60.5 -55.5t-76.5 -28.5t-78.5 -9.5t-77.5 9.5t-74 29t-57 55 t-21.5 82.5zM547 1290q0 -38 33.5 -62t93.5 -24q58 0 92.5 24t34.5 60q0 39 -32 65.5t-93 26.5t-95 -26t-34 -64zM553 1538l168 283h223l-303 -283h-88z" />
<glyph unicode="&#x1fc;" horiz-adv-x="2304" d="M-25 0l1037 1446h1181v-119h-997v-520h913v-123h-913v-563h1026v-121h-1163v356h-674l-254 -356h-156zM467 471h594v844zM1356 1585l172 258h227l-307 -258h-92z" />
<glyph unicode="&#x1fd;" horiz-adv-x="2347" d="M82 311q0 24 4.5 53t26.5 76t59 78q40 33 95.5 53.5t123.5 29t116.5 11t117.5 2.5h481q-2 79 -10 121.5t-29 73.5q-25 37 -75 62.5t-111.5 36.5t-111 15.5t-99.5 4.5q-177 0 -281 -54q-92 -47 -121 -159l-145 14q23 87 57 135q126 178 502 178q446 0 528 -204 q18 30 51.5 61.5t89 65.5t141.5 55.5t187 21.5q86 0 166 -18.5t155.5 -60t131.5 -103t90.5 -153.5t36.5 -205h-1018q0 -197 125.5 -304.5t341.5 -107.5q19 0 39.5 1t58.5 7t73 15.5t77.5 29t77.5 45.5t67 67.5t51 92.5l107 -69q-32 -70 -81.5 -125t-106 -86.5t-110 -53 t-110 -30t-88 -11t-61.5 -2.5q-191 0 -335 70t-198 186q-7 -21 -22 -45t-43 -54t-73.5 -57t-105 -50t-146.5 -36.5t-189 -13.5q-346 0 -457 166q-51 76 -51 174zM236 305q0 -104 79 -155q98 -64 295 -64q63 0 126 10t126.5 31.5t116.5 61.5t82 94q26 47 34.5 97t10.5 122 h-520q-59 0 -99.5 -2.5t-96 -17.5t-91.5 -42q-63 -49 -63 -135zM1126 1137l160 297h223l-295 -297h-88zM1247 614h858q-9 61 -34.5 111t-58 81.5t-75.5 55.5t-79.5 35.5t-76.5 18.5t-61 8.5t-39 1.5q-75 0 -144.5 -18.5t-129 -55t-102 -98t-58.5 -140.5z" />
<glyph unicode="&#x1fe;" horiz-adv-x="1878" d="M74 82l182 151q-172 212 -172 480q0 46 5.5 94.5t26.5 122t55.5 140t99.5 139.5t151 128q223 140 524 140q353 0 588 -199l188 154l74 -86l-182 -150q30 -33 57.5 -75t56.5 -102t46.5 -139t17.5 -163q0 -43 -6.5 -91.5t-24 -119t-59.5 -147t-103 -142.5 q-66 -71 -149.5 -124t-154.5 -79t-150.5 -41.5t-124.5 -18.5t-90 -3q-357 0 -594 201l-193 -156zM233 715q0 -102 34 -214.5t95 -183.5l1070 877q-75 62 -203 112t-299 50q-30 0 -60.5 -2t-80.5 -10t-96.5 -21t-102.5 -39t-104 -61t-95 -89t-82 -120q-76 -137 -76 -299z M440 238q77 -72 208.5 -118t297.5 -46q93 0 178 18.5t146 46.5t114 66t85.5 71.5t56.5 67.5q110 158 110 377q0 110 -34 216.5t-93 174.5zM821 1585l172 258h228l-308 -258h-92z" />
<glyph unicode="&#x1ff;" d="M66 51l145 123q-26 35 -40.5 57.5t-38.5 68t-36 98t-12 110.5q0 131 63 248q80 148 234.5 219.5t337.5 71.5q247 0 403 -115l146 121l71 -80l-133 -113q27 -31 45.5 -57t44.5 -72t40 -103.5t14 -121.5q0 -68 -16.5 -130t-43 -108t-49 -74.5t-45.5 -50.5 q-70 -66 -191 -118t-286 -52q-234 0 -426 127l-156 -131zM223 506q0 -147 88 -250l715 596q-112 80 -301 80q-96 0 -185 -28.5t-160 -81t-114 -135t-43 -181.5zM391 180q50 -35 136.5 -62.5t191.5 -27.5q26 0 58.5 3.5t83.5 14t105.5 35.5t98.5 62q71 59 108 141t37 174 q0 50 -9.5 93t-27.5 77t-29.5 51t-31.5 41zM586 1137l159 297h224l-295 -297h-88z" />
<glyph unicode="&#x218;" horiz-adv-x="1662" d="M66 362l151 58l13.5 -34.5t20.5 -41.5t30.5 -48.5t43.5 -48t60.5 -48.5t79 -42t101.5 -36t126.5 -22t155.5 -9q110 0 210.5 21.5t181 61.5t128 104.5t47.5 144.5q0 49 -15 86t-53.5 63.5t-71 43.5t-102 31.5t-109 20.5t-127.5 18q-5 1 -7 1l-316 43q-181 25 -264 68 q-25 13 -48.5 30t-54.5 49t-50 81t-19 108q0 183 175.5 301.5t490.5 118.5q45 0 89.5 -3t129 -19t157 -44t156.5 -84.5t146 -134.5l-131 -70q-164 230 -557 230q-75 0 -146 -10t-137.5 -32.5t-116 -55t-79 -82t-29.5 -109.5q0 -102 112 -156q42 -20 96.5 -31t172.5 -26 q49 -7 145.5 -20.5t136 -19t107.5 -16.5t103.5 -19.5t77.5 -20.5t73 -25q99 -42 157 -122t58 -185q0 -117 -68 -215q-87 -123 -249 -187.5t-435 -64.5q-38 0 -82.5 3t-122 16t-147 34t-145 63.5t-128.5 98.5q-26 27 -49 60t-36 55.5t-37 68.5zM797 -82h145v-133 q0 -152 -145 -164v60q67 15 67 92h-67v145z" />
<glyph unicode="&#x219;" horiz-adv-x="1280" d="M61 250l148 33q35 -87 145 -136q125 -49 314 -49q110 0 198 21t144.5 68t56.5 114q0 37 -22 64.5t-63 43.5t-87.5 24.5t-106.5 12.5q-70 4 -169 8.5t-149 7t-106.5 10.5t-93.5 22q-23 8 -46 22t-52 40t-47.5 69.5t-18.5 97.5q0 71 27.5 126t74.5 90.5t114 58.5 t141.5 32.5t161.5 9.5q456 0 557 -237l-150 -31q-26 43 -43 59q-55 48 -164.5 69.5t-208.5 21.5q-42 0 -84 -3.5t-96 -15t-94 -30.5t-68 -55t-28 -83q0 -40 27 -73t67 -44q36 -10 197 -20q34 -2 102 -5.5t96.5 -5t80 -5.5t77.5 -7.5t61 -10t60 -15t47 -19.5q20 -10 40.5 -25 t45.5 -42t41 -69t16 -91q0 -22 -4 -45.5t-18 -57t-36.5 -63t-63.5 -60t-95 -52.5t-135 -36t-180 -14q-270 0 -419.5 73t-191.5 202zM584 -82h145v-133q0 -152 -145 -164v60q67 15 67 92h-67v145z" />
<glyph unicode="&#x21a;" horiz-adv-x="1409" d="M-2 1327v119h1407v-119h-621v-1327h-137v1327h-649zM643 -82h145v-133q0 -152 -145 -164v60q68 15 68 92h-68v145z" />
<glyph unicode="&#x21b;" horiz-adv-x="641" d="M18 907v105h193v346l135 63v-409h287v-105h-287v-481q0 -52 1 -85.5t5.5 -72.5t12.5 -62t22.5 -46.5t35.5 -36t51 -20t69 -7.5q3 0 90 6v-110q-99 -15 -135 -15q-173 0 -240 109q-30 48 -38.5 114t-8.5 201v506h-193zM322 -82h145v-133q0 -152 -145 -164v60q67 15 67 92 h-67v145z" />
<glyph unicode="&#x2c6;" horiz-adv-x="768" d="M106 1124l222 271h121l213 -271h-105l-168 174l-170 -174h-113z" />
<glyph unicode="&#x2c7;" horiz-adv-x="768" d="M106 1395h109l166 -174l170 174h111l-220 -271h-125z" />
<glyph unicode="&#x2d8;" horiz-adv-x="768" d="M98 1397h103q4 -25 13 -48.5t27.5 -50.5t54.5 -44t83 -17q22 0 45.5 5t56.5 19.5t57 49.5t31 86h101q-7 -66 -34 -116t-67.5 -79.5t-87 -44t-98.5 -14.5q-28 0 -56.5 4t-68 19.5t-70 41.5t-56.5 75t-34 114z" />
<glyph unicode="&#x2d9;" horiz-adv-x="768" d="M317 1200v193h134v-193h-134z" />
<glyph unicode="&#x2da;" horiz-adv-x="768" d="M150 1290q0 60 37.5 101.5t88.5 58t107 16.5q115 0 175 -50t60 -124q0 -48 -25 -84.5t-63.5 -55.5t-77 -28.5t-73.5 -9.5q-37 0 -74.5 9.5t-73.5 29t-58.5 55t-22.5 82.5zM254 1290q0 -37 33.5 -60.5t93.5 -23.5q58 0 92.5 24t34.5 60q0 38 -32 65t-93 27 q-59 0 -94 -27.5t-35 -64.5z" />
<glyph unicode="&#x2db;" horiz-adv-x="768" d="M195 -205q0 55 43.5 113t142.5 100h104v-8q-166 -60 -166 -158q0 -48 37.5 -80t108.5 -32q27 0 108 8v-103q-98 -12 -137 -12q-118 0 -179.5 46.5t-61.5 125.5z" />
<glyph unicode="&#x2dc;" horiz-adv-x="768" d="M31 1192q38 81 86 130.5t119 49.5q53 0 117 -25t120.5 -50t93.5 -25q62 0 113 100l59 -29q-16 -41 -31 -68.5t-37.5 -56t-54 -43t-71.5 -14.5q-51 0 -171 51.5t-169 51.5q-61 0 -117 -103z" />
<glyph unicode="&#x2dd;" horiz-adv-x="768" d="M57 1137l166 297h199l-281 -297h-84zM346 1137l166 297h199l-281 -297h-84z" />
<glyph unicode="&#x37e;" horiz-adv-x="641" d="M283 0v203h153v-256q0 -76 -38 -127t-111 -58v74q73 12 73 129v35h-77zM283 801v200h161v-200h-161z" />
<glyph unicode="&#x386;" horiz-adv-x="1622" d="M-18 1149l159 297h224l-295 -297h-88zM12 0l713 1446h156l729 -1446h-150l-186 375h-932l-184 -375h-146zM397 489h820l-414 828z" />
<glyph unicode="&#x388;" horiz-adv-x="1705" d="M-360 1149l159 297h224l-295 -297h-88zM170 0v1446h1384v-119h-1243v-508h1149v-123h-1149v-575h1303v-121h-1444z" />
<glyph unicode="&#x389;" horiz-adv-x="1835" d="M-360 1149l159 297h224l-295 -297h-88zM170 0v1446h141v-619h1215v619h137v-1446h-137v707h-1215v-707h-141z" />
<glyph unicode="&#x38a;" horiz-adv-x="468" d="M-360 1149l159 297h224l-295 -297h-88zM168 0v1446h137v-1446h-137z" />
<glyph unicode="&#x38c;" horiz-adv-x="1878" d="M-217 1149l160 297h223l-295 -297h-88zM86 725q0 147 47.5 273t129 215.5t190 153t232 94t253.5 30.5q42 0 83.5 -3.5t112.5 -13.5t139 -35t141 -62.5t142 -102t121 -146.5q117 -187 117 -401q0 -40 -5.5 -85t-20.5 -110.5t-51 -138t-89 -135.5q-66 -80 -152 -138.5 t-159.5 -88t-157.5 -46.5t-131 -20.5t-94 -3.5q-33 0 -68 2t-96 11t-117 24t-125.5 44.5t-128.5 69.5t-117.5 102t-101.5 138q-94 169 -94 373zM238 719q0 -132 47 -248q30 -75 77.5 -136.5t98 -101t112 -69t113 -44t107.5 -23.5t87.5 -11t61.5 -2q146 0 265 38.5t197.5 103 t132 152.5t76.5 182t23 196q0 123 -47 232.5t-133.5 194t-221 134t-298.5 49.5q-269 0 -449 -133q-38 -28 -75.5 -67.5t-79.5 -102t-68 -152.5t-26 -192z" />
<glyph unicode="&#x38e;" horiz-adv-x="1492" d="M-401 1149l159 297h224l-295 -297h-88zM12 1446h172l576 -744l557 744h164l-656 -860v-586h-131v586z" />
<glyph unicode="&#x38f;" horiz-adv-x="1880" d="M-217 1149l160 297h223l-295 -297h-88zM82 0v127h403q-393 195 -393 608q0 163 53.5 300t156.5 239t266.5 159.5t371.5 57.5t373 -57.5t269.5 -159.5t159 -239t54.5 -300q0 -413 -393 -608h403v-127h-714v127q262 49 404 212t142 404q0 139 -43 252.5t-127.5 196.5 t-218.5 128.5t-309 45.5t-309 -45.5t-218 -128.5t-126.5 -196.5t-42.5 -252.5q0 -240 145 -403.5t408 -212.5v-127h-715z" />
<glyph unicode="&#x390;" horiz-adv-x="458" d="M-61 1155v197h143v-197h-143zM154 156v856h135v-809q0 -62 15 -84.5t52 -22.5q18 0 78 6v-96q-60 -29 -129 -29q-67 0 -109 48t-42 131zM162 1155l88 279h215l-217 -279h-86zM477 1155v197h144v-197h-144z" />
<glyph unicode="&#x391;" horiz-adv-x="1622" d="M12 0l713 1446h156l729 -1446h-150l-186 375h-932l-184 -375h-146zM397 489h820l-414 828z" />
<glyph unicode="&#x392;" horiz-adv-x="1878" d="M168 0v1446h1132q203 0 316 -154q67 -90 67 -209q0 -133 -73 -214.5t-178 -102.5q152 -12 238.5 -118.5t86.5 -254.5q0 -28 -4 -58t-16.5 -78t-44.5 -95.5t-80 -81.5q-66 -48 -142 -64t-176 -16h-1126zM309 121h987q97 0 168.5 28t112.5 103q37 66 37 141q0 105 -55 178 q-31 42 -74.5 69t-100 37.5t-98.5 13.5t-106 3h-871v-573zM309 817h883q98 0 167 18.5t120 79.5q55 65 55 160q0 82 -39 144q-45 69 -112.5 89.5t-170.5 20.5h-903v-512z" />
<glyph unicode="&#x393;" horiz-adv-x="1425" d="M170 0v1446h1251v-119h-1110v-1327h-141z" />
<glyph unicode="&#x394;" horiz-adv-x="1492" d="M-4 0l686 1446h123l692 -1446h-1501zM217 129h1049l-527 1143z" />
<glyph unicode="&#x395;" horiz-adv-x="1705" d="M170 0v1446h1384v-119h-1243v-508h1149v-123h-1149v-575h1303v-121h-1444z" />
<glyph unicode="&#x396;" horiz-adv-x="1536" d="M0 0v117l1350 1210h-1237v119h1423v-127l-1337 -1198h1300v-121h-1499z" />
<glyph unicode="&#x397;" horiz-adv-x="1835" d="M170 0v1446h141v-619h1215v619h137v-1446h-137v707h-1215v-707h-141z" />
<glyph unicode="&#x398;" horiz-adv-x="1878" d="M86 725q0 147 47.5 273t129 215.5t190 153t232 94t253.5 30.5q42 0 83.5 -3.5t112.5 -13.5t139 -35t141 -62.5t142 -102t121 -146.5q117 -187 117 -401q0 -40 -5.5 -85t-20.5 -110.5t-51 -138t-89 -135.5q-66 -80 -152 -138.5t-159.5 -88t-157.5 -46.5t-131 -20.5 t-94 -3.5q-33 0 -68 2t-96 11t-117 24t-125.5 44.5t-128.5 69.5t-117.5 102t-101.5 138q-94 169 -94 373zM238 719q0 -132 47 -248q30 -75 77.5 -136.5t98 -101t112 -69t113 -44t107.5 -23.5t87.5 -11t61.5 -2q146 0 265 38.5t197.5 103t132 152.5t76.5 182t23 196 q0 123 -47 232.5t-133.5 194t-221 134t-298.5 49.5q-269 0 -449 -133q-38 -28 -75.5 -67.5t-79.5 -102t-68 -152.5t-26 -192zM504 696v123h866v-123h-866z" />
<glyph unicode="&#x399;" horiz-adv-x="468" d="M168 0v1446h137v-1446h-137z" />
<glyph unicode="&#x39a;" horiz-adv-x="1622" d="M170 0v1446h137v-879l1082 879h190l-684 -557l719 -889h-182l-646 801l-479 -389v-412h-137z" />
<glyph unicode="&#x39b;" horiz-adv-x="1605" d="M25 0l692 1446h155l709 -1446h-149l-637 1309l-625 -1309h-145z" />
<glyph unicode="&#x39c;" horiz-adv-x="1921" d="M168 0v1446h184l617 -1315l606 1315h180v-1446h-129v1282l-590 -1282h-143l-594 1270v-1270h-131z" />
<glyph unicode="&#x39d;" horiz-adv-x="1835" d="M170 0v1446h129l1239 -1268v1268h129v-1446h-129l-1239 1262v-1262h-129z" />
<glyph unicode="&#x39e;" horiz-adv-x="1781" d="M92 0v133h1598v-133h-1598zM133 1315v131h1514v-131h-1514zM240 690v133h1302v-133h-1302z" />
<glyph unicode="&#x39f;" horiz-adv-x="1878" d="M86 725q0 147 47.5 273t129 215.5t190 153t232 94t253.5 30.5q42 0 83.5 -3.5t112.5 -13.5t139 -35t141 -62.5t142 -102t121 -146.5q117 -187 117 -401q0 -40 -5.5 -85t-20.5 -110.5t-51 -138t-89 -135.5q-66 -80 -152 -138.5t-159.5 -88t-157.5 -46.5t-131 -20.5 t-94 -3.5q-33 0 -68 2t-96 11t-117 24t-125.5 44.5t-128.5 69.5t-117.5 102t-101.5 138q-94 169 -94 373zM238 719q0 -132 47 -248q30 -75 77.5 -136.5t98 -101t112 -69t113 -44t107.5 -23.5t87.5 -11t61.5 -2q146 0 265 38.5t197.5 103t132 152.5t76.5 182t23 196 q0 123 -47 232.5t-133.5 194t-221 134t-298.5 49.5q-269 0 -449 -133q-38 -28 -75.5 -67.5t-79.5 -102t-68 -152.5t-26 -192z" />
<glyph unicode="&#x3a0;" horiz-adv-x="1804" d="M170 0v1446h1462v-1446h-137v1323h-1184v-1323h-141z" />
<glyph unicode="&#x3a1;" horiz-adv-x="1662" d="M168 0v1446h960q53 0 93 -2.5t92 -11.5t91 -25t78.5 -46t67.5 -71q76 -104 76 -239q0 -198 -147 -310q-75 -58 -167.5 -76t-215.5 -18h-785v-647h-143zM311 766h736q61 0 95 1.5t87.5 9.5t95 27.5t74.5 51.5q78 73 78 195q0 17 -3.5 39.5t-12.5 57t-32.5 68.5t-56.5 58 q-77 53 -229 53h-832v-561z" />
<glyph unicode="&#x3a3;" horiz-adv-x="1566" d="M31 0v117l700 631l-637 571v127h1413v-119h-1226l649 -579l-701 -627h1301v-121h-1499z" />
<glyph unicode="&#x3a4;" horiz-adv-x="1402" d="M-2 1327v119h1407v-119h-621v-1327h-137v1327h-649z" />
<glyph unicode="&#x3a5;" horiz-adv-x="1492" d="M12 1446h172l576 -744l557 744h164l-656 -860v-586h-131v586z" />
<glyph unicode="&#x3a6;" horiz-adv-x="1990" d="M66 731q0 57 9.5 110.5t35.5 113.5t67 112t108.5 101t155 85t211.5 60t273 30v103h137v-103q149 -6 273 -29.5t211.5 -58t155.5 -82.5t109 -98.5t67 -109.5t36 -112t10 -110t-10 -111t-36 -115t-67 -114t-109 -103t-155.5 -87t-211.5 -61.5t-273 -30.5v-121h-137v121 q-117 4 -218.5 20t-179.5 39.5t-143.5 56t-112.5 69t-83.5 79t-59 85t-37.5 88.5t-20.5 88t-5.5 85zM217 729q0 -75 22 -142t74.5 -129t132.5 -108t202.5 -75.5t277.5 -34.5v991q-155 -5 -277.5 -36t-202.5 -78t-132.5 -111t-74.5 -132.5t-22 -144.5zM1063 240 q130 4 237.5 26.5t184 58.5t133.5 82.5t90.5 102.5t49.5 114t16 121q0 76 -22.5 143t-75 128.5t-133 106.5t-203 74t-277.5 34v-991z" />
<glyph unicode="&#x3a7;" horiz-adv-x="1507" d="M-8 1446h178l567 -606l527 606h172l-613 -705l693 -741h-179l-600 645l-557 -645h-172l641 741z" />
<glyph unicode="&#x3a8;" horiz-adv-x="1980" d="M152 936v510h133v-518q0 -233 155 -350t484 -127v995h133v-995q323 11 482 128.5t159 348.5v518h131v-510q0 -577 -772 -604v-332h-133v332q-92 3 -171.5 12t-159.5 29t-144.5 50.5t-121 77.5t-94.5 107.5t-59.5 144t-21.5 183.5z" />
<glyph unicode="&#x3a9;" horiz-adv-x="1699" d="M90 0v127h365q-166 96 -255 257.5t-89 371.5q0 159 56 294.5t155 230.5t241 148.5t309 53.5q323 0 517 -191.5t194 -509.5q0 -221 -97 -391.5t-278 -263.5h402v-127h-633v127q220 50 338.5 229.5t118.5 431.5q0 259 -158.5 420.5t-413.5 161.5q-272 0 -437 -165.5 t-165 -440.5q0 -245 120 -417t343 -220v-127h-633z" />
<glyph unicode="&#x3aa;" horiz-adv-x="468" d="M-166 1634v197h150v-197h-150zM168 0v1446h137v-1446h-137zM496 1634v197h149v-197h-149z" />
<glyph unicode="&#x3ab;" horiz-adv-x="1492" d="M12 1446h172l576 -744l557 744h164l-656 -860v-586h-131v586zM346 1634v197h150v-197h-150zM1008 1634v197h149v-197h-149z" />
<glyph unicode="&#x3ac;" horiz-adv-x="1464" d="M88 512q0 167 79 290t213 185t304 62q159 0 282 -48t195 -129v140h133v-809q0 -62 15 -84.5t53 -22.5q18 0 78 6v-96q-60 -29 -129 -29q-67 0 -108 46.5t-44 130.5q-145 -183 -454 -183q-171 0 -309.5 62.5t-223 187t-84.5 291.5zM240 522q0 -199 125 -314.5t350 -115.5 q128 0 227.5 44.5t160 140.5t60.5 233q0 70 -15.5 130.5t-51 114t-88.5 91.5t-133.5 60t-180.5 22q-210 0 -332 -112t-122 -294zM692 1137l160 297h223l-295 -297h-88z" />
<glyph unicode="&#x3ad;" horiz-adv-x="1325" d="M78 270q0 108 91.5 181t238.5 84q-143 16 -207 79.5t-64 147.5q0 93 67 158t183.5 96t274.5 31q44 0 80 -2t90 -9.5t102.5 -23.5t101.5 -41t103.5 -66.5t93.5 -95.5l-131 -64q-47 78 -155 132.5t-281 54.5q-385 0 -385 -172q0 -86 77 -125t244 -39h322v-115h-318 q-375 0 -375 -205q0 -41 17 -71.5t60.5 -57.5t129 -41t211.5 -14q47 0 92.5 4.5t109.5 20t119.5 41.5t114.5 74t103 112l106 -78q-203 -293 -671 -293q-273 0 -409 72t-136 225zM612 1137l160 297h223l-295 -297h-88z" />
<glyph unicode="&#x3ae;" horiz-adv-x="1490" d="M51 907v105q75 12 127 12q63 0 102 -36t39 -118q13 15 30 31.5t59 43t91.5 46t128.5 34.5t169 15q117 0 214.5 -25.5t174 -77t119.5 -138t43 -201.5v-981h-136v971q0 51 -9.5 93.5t-38.5 86.5t-75.5 74t-126 49.5t-184.5 19.5q-111 0 -200 -26t-143.5 -69.5t-83.5 -97.5 t-29 -112v-606h-136v758q0 90 -15 121.5t-60 31.5q-20 0 -60 -4zM729 1137l160 297h223l-295 -297h-88z" />
<glyph unicode="&#x3af;" horiz-adv-x="458" d="M154 156v856h135v-809q0 -62 15 -84.5t52 -22.5q18 0 78 6v-96q-60 -29 -129 -29q-67 0 -109 48t-42 131zM180 1137l160 297h223l-295 -297h-88z" />
<glyph unicode="&#x3b0;" horiz-adv-x="1447" d="M145 438v574h136v-555q0 -82 27 -147.5t70.5 -106.5t103 -68t119.5 -38t124 -11t124 11t119.5 38t103 68t70.5 106.5t27 147.5v555h134v-574q0 -82 -23.5 -151t-61 -116t-89.5 -84t-105 -58t-110.5 -35t-102.5 -18.5t-86 -4.5t-86 4.5t-103 18.5t-111 35t-105 58t-90 84 t-61.5 116t-23.5 151zM424 1155v197h143v-197h-143zM647 1155l88 279h215l-217 -279h-86zM963 1155v197h143v-197h-143z" />
<glyph unicode="&#x3b1;" horiz-adv-x="1464" d="M88 512q0 167 79 290t213 185t304 62q159 0 282 -48t195 -129v140h133v-809q0 -62 15 -84.5t53 -22.5q18 0 78 6v-96q-60 -29 -129 -29q-67 0 -108 46.5t-44 130.5q-145 -183 -454 -183q-171 0 -309.5 62.5t-223 187t-84.5 291.5zM240 522q0 -199 125 -314.5t350 -115.5 q128 0 227.5 44.5t160 140.5t60.5 233q0 70 -15.5 130.5t-51 114t-88.5 91.5t-133.5 60t-180.5 22q-210 0 -332 -112t-122 -294z" />
<glyph unicode="&#x3b2;" horiz-adv-x="1437" d="M147 -383v1397q0 222 138 344.5t422 122.5q115 0 205.5 -19.5t147.5 -50.5t94 -73.5t52 -85.5t15 -89q0 -119 -79.5 -209t-238.5 -127q235 -25 342 -131.5t107 -271.5q0 -63 -18 -124t-61.5 -120.5t-108 -104.5t-166.5 -72.5t-228 -27.5q-172 0 -289.5 44t-197.5 137 v-539h-136zM285 469q0 -166 122 -267.5t369 -101.5q428 0 428 344q0 64 -25.5 118.5t-78.5 100t-148 71.5t-223 26h-139v112h106q52 0 103 9.5t102.5 31.5t90 54t63 82.5t24.5 111.5q0 95 -88 151t-278 56q-111 0 -192.5 -24t-125.5 -58t-70 -84t-33 -90t-7 -88v-555z" />
<glyph unicode="&#x3b3;" horiz-adv-x="1251" d="M12 901v111h43q41 0 65.5 -1.5t54 -7t49 -16.5t41.5 -30t41 -48.5t38 -70.5l324 -691l432 865h153l-522 -1008v-387h-131v391l-381 774q-21 43 -38.5 67.5t-40 36t-40 13.5t-53.5 2h-35z" />
<glyph unicode="&#x3b4;" horiz-adv-x="1445" d="M88 465q0 70 18 134.5t59.5 125.5t103 107t155 75.5t209.5 34.5q-197 37 -282 104t-85 164q0 73 40.5 128t109.5 85t146.5 44t164.5 14q187 0 321 -70.5t183 -175.5l-154 -31q-23 47 -67.5 81t-97 51t-99.5 24.5t-90 7.5q-52 0 -103 -7.5t-100 -24.5t-79.5 -48.5 t-30.5 -73.5t33 -78.5t96 -65.5t132.5 -51t162.5 -44q524 -122 524 -500q0 -127 -52 -225.5t-142 -158t-202 -90t-241 -30.5q-287 0 -460 131.5t-173 362.5zM242 465q0 -86 27.5 -153t72.5 -109t108.5 -69t129.5 -37.5t141 -10.5q73 0 139.5 11t131.5 39t112.5 70 t76.5 110.5t29 154.5q0 74 -29 141t-86.5 123t-156 89.5t-225.5 33.5q-219 0 -345 -108.5t-126 -284.5z" />
<glyph unicode="&#x3b5;" horiz-adv-x="1325" d="M78 270q0 108 91.5 181t238.5 84q-143 16 -207 79.5t-64 147.5q0 93 67 158t183.5 96t274.5 31q44 0 80 -2t90 -9.5t102.5 -23.5t101.5 -41t103.5 -66.5t93.5 -95.5l-131 -64q-47 78 -155 132.5t-281 54.5q-385 0 -385 -172q0 -86 77 -125t244 -39h322v-115h-318 q-375 0 -375 -205q0 -41 17 -71.5t60.5 -57.5t129 -41t211.5 -14q47 0 92.5 4.5t109.5 20t119.5 41.5t114.5 74t103 112l106 -78q-203 -293 -671 -293q-273 0 -409 72t-136 225z" />
<glyph unicode="&#x3b6;" horiz-adv-x="1124" d="M66 352q0 258 219 509.5t598 465.5h-742v119h994v-105q-130 -69 -246 -140.5t-243 -171.5t-217.5 -200t-150 -223t-59.5 -244q0 -53 15 -92t47.5 -65.5t73 -43t103.5 -25.5t126 -12t153 -3q80 0 136.5 -5t106.5 -18t79.5 -36.5t46 -60.5t16.5 -89q0 -136 -200 -295 l-91 115q150 79 150 170q0 23 -7 40t-24 27.5t-35 17t-52 9t-62.5 3.5t-77.5 1q-86 0 -154.5 3.5t-138.5 13t-122.5 26t-100 43t-77 63t-47 88t-17.5 115.5z" />
<glyph unicode="&#x3b7;" horiz-adv-x="1490" d="M51 907v105q75 12 127 12q63 0 102 -36t39 -118q13 15 30 31.5t59 43t91.5 46t128.5 34.5t169 15q117 0 214.5 -25.5t174 -77t119.5 -138t43 -201.5v-981h-136v971q0 51 -9.5 93.5t-38.5 86.5t-75.5 74t-126 49.5t-184.5 19.5q-111 0 -200 -26t-143.5 -69.5t-83.5 -97.5 t-29 -112v-606h-136v758q0 90 -15 121.5t-60 31.5q-20 0 -60 -4z" />
<glyph unicode="&#x3b8;" d="M113 764q0 37 1.5 72.5t9 90.5t19.5 103.5t34.5 106t53.5 105t78 93t105 77t137.5 50.5t173.5 19t174 -19t138 -50t105 -77t77.5 -93t53.5 -105t35 -106.5t19 -104t8.5 -90.5t1.5 -72q0 -139 -16 -251.5t-58 -216t-109.5 -173t-176 -111t-252.5 -41.5q-143 0 -251 41 t-176 111t-110 173.5t-58.5 216t-16.5 251.5zM268 709q0 -106 11.5 -193t42.5 -169t81.5 -138t132 -89.5t189.5 -33.5q109 0 190.5 32.5t131.5 87.5t81 137t42.5 169t11.5 197h-914zM268 817h914q-3 53 -8.5 98.5t-19.5 104t-34.5 105t-55.5 93.5t-80.5 78.5t-111.5 51.5 t-147 20q-426 0 -457 -551z" />
<glyph unicode="&#x3b9;" horiz-adv-x="458" d="M154 156v856h135v-809q0 -62 15 -84.5t52 -22.5q18 0 78 6v-96q-60 -29 -129 -29q-67 0 -109 48t-42 131z" />
<glyph unicode="&#x3ba;" horiz-adv-x="1380" d="M145 0v1012h136v-535l688 459q76 51 136 63.5t165 12.5h18v-111h-24q-54 0 -80 -3t-70 -21t-102 -58l-303 -205l651 -614h-205l-565 539l-309 -209v-330h-136z" />
<glyph unicode="&#x3bb;" horiz-adv-x="1296" d="M0 0l565 1001l-94 211q-36 79 -82.5 114.5t-118.5 35.5q-97 0 -172 -33v117q78 35 189 35q65 0 114.5 -16.5t89 -54.5t70 -88t64.5 -128l415 -936q43 -98 84 -130t93 -32q23 0 83 6v-96q-29 -13 -64.5 -21t-51.5 -8q-59 0 -97 14t-82.5 67.5t-89.5 156.5l-288 649 l-490 -864h-137z" />
<glyph unicode="&#x3bc;" horiz-adv-x="1476" d="M145 -383v1395h136v-594q0 -167 96 -243.5t295 -76.5q140 0 251 33t179.5 101.5t68.5 162.5v617h134v-791q0 -57 30 -89t84 -32q31 0 51 2v-104q-88 -8 -118 -8q-85 0 -123 38t-47 130q-103 -96 -226 -140.5t-286 -44.5q-274 0 -389 131v-487h-136z" />
<glyph unicode="&#x3bd;" horiz-adv-x="1153" d="M20 1012h154l422 -862l319 612q1 2 9.5 18.5t13.5 28.5t12.5 31t11 40t3.5 42q0 54 -9 90h140q12 -69 12 -101q0 -77 -64 -190l-387 -721h-125z" />
<glyph unicode="&#x3be;" horiz-adv-x="1193" d="M78 371q0 160 111 275.5t335 152.5q-90 12 -156.5 39.5t-105 66t-56.5 81t-18 89.5q0 55 23.5 100t64.5 76t90.5 51t108.5 31h-307v113h1003v-113h-233q-128 0 -235.5 -15t-190 -45t-128.5 -78.5t-46 -111.5q0 -237 461 -237h211v-111h-291q-99 0 -185 -20.5t-154.5 -61 t-108.5 -108.5t-40 -156q0 -65 24 -112t67 -77t114.5 -47.5t155.5 -24.5t201 -7q80 0 136.5 -5t106.5 -18t79.5 -36.5t46 -60.5t16.5 -89q0 -135 -201 -295l-90 115q149 79 149 170q0 23 -7 40t-24 27.5t-35 17t-52 9t-62.5 3.5t-77.5 1q-128 0 -228 9.5t-191 34.5t-151 66 t-95 107t-35 154z" />
<glyph unicode="&#x3bf;" d="M88 506q0 81 22.5 153.5t54.5 121t75.5 90t77 63.5t67.5 39q53 27 146.5 49t205.5 22q267 0 434 -137q48 -39 84 -88t55.5 -93t31 -91t15 -78t3.5 -59q0 -153 -84 -275q-31 -44 -75 -83.5t-110.5 -80t-162.5 -64.5t-207 -24q-81 0 -160 15q-257 45 -385 231 q-88 129 -88 289zM242 504q0 -29 4 -62.5t24 -90.5t54 -101q65 -84 172 -124t223 -40q260 0 395 154q94 109 94 266q0 133 -67.5 232t-175.5 147.5t-238 48.5q-179 0 -309 -86q-28 -19 -54 -44.5t-56 -67t-48 -102t-18 -130.5z" />
<glyph unicode="&#x3c0;" horiz-adv-x="1282" d="M86 899v111h1083v-111h-122v-696q0 -54 27.5 -73t90.5 -19h37v-111h-47q-140 0 -193 52t-53 190v657h-569v-899h-135v899h-119z" />
<glyph unicode="&#x3c1;" horiz-adv-x="1392" d="M102 -383v870q0 121 37.5 218t98.5 159t143 103.5t166 59t172 17.5q117 0 222 -36.5t186 -103.5t128.5 -169.5t47.5 -226.5q0 -104 -40.5 -200t-114 -171.5t-187 -120.5t-248.5 -45q-168 0 -283 46t-197 139v-539h-131zM242 504q0 -193 115.5 -302.5t344.5 -109.5 q115 0 204 34.5t142 93.5t80 132.5t27 157.5q0 106 -39 190t-104.5 133.5t-144.5 75t-165 25.5q-63 0 -125.5 -14.5t-123.5 -48t-107.5 -81.5t-75 -122t-28.5 -164z" />
<glyph unicode="&#x3c2;" horiz-adv-x="1257" d="M80 512q0 206 133 348q88 94 224 143.5t274 49.5q321 0 508 -203l-99 -105q-62 77 -131 119q-117 72 -282 72q-155 0 -260.5 -60.5t-155.5 -146.5q-60 -97 -60 -215q0 -129 57.5 -212t164.5 -116q43 -13 97.5 -23.5t86 -14.5t109.5 -12.5t98 -10.5q254 -31 254 -213 q0 -135 -201 -295l-90 115q149 79 149 170q0 44 -33 69t-87 31q-6 1 -61.5 6.5t-77.5 8t-73.5 9t-81 11.5t-66.5 13t-62 16q-184 62 -259 169t-75 277z" />
<glyph unicode="&#x3c3;" horiz-adv-x="1484" d="M88 489q0 110 38.5 200t101.5 149t148 99t175 57.5t186 17.5h707v-111h-346q64 -26 113.5 -68.5t76.5 -87.5t44 -96.5t22.5 -89.5t5.5 -72q0 -222 -179.5 -369t-459.5 -147q-179 0 -323 64.5t-227 183t-83 270.5zM242 487q0 -177 128.5 -289t348.5 -112q94 0 179.5 24 t156 71.5t112 127t41.5 180.5q0 129 -67.5 224.5t-175 141.5t-238.5 46q-69 0 -135.5 -14.5t-130.5 -47t-112 -79t-77.5 -117.5t-29.5 -156z" />
<glyph unicode="&#x3c4;" horiz-adv-x="1064" d="M20 852v119q74 26 142 33.5t170 7.5h712v-111h-444v-475q0 -52 1 -85.5t5.5 -72.5t12.5 -62t22.5 -46.5t35.5 -36t51 -20t69 -7.5q3 0 90 6v-110q-99 -15 -135 -15q-54 0 -96.5 10.5t-72.5 28.5t-51.5 45.5t-34 57t-20 68.5t-10 74t-2.5 79v561h-213q-103 0 -201 -37z " />
<glyph unicode="&#x3c5;" horiz-adv-x="1447" d="M145 438v574h136v-555q0 -82 27 -147.5t70.5 -106.5t103 -68t119.5 -38t124 -11t124 11t119.5 38t103 68t70.5 106.5t27 147.5v555h134v-574q0 -82 -23.5 -151t-61 -116t-89.5 -84t-105 -58t-110.5 -35t-102.5 -18.5t-86 -4.5t-86 4.5t-103 18.5t-111 35t-105 58t-90 84 t-61.5 116t-23.5 151z" />
<glyph unicode="&#x3c6;" horiz-adv-x="1732" d="M90 498q0 86 23.5 162.5t77.5 147t134.5 122t202.5 84t273 35.5v309l135 63v-372q156 -3 280.5 -38.5t202.5 -89t129.5 -124.5t72.5 -141.5t21 -143.5q0 -243 -192 -389.5t-514 -155.5v-350h-135v350q-177 4 -315 46t-223.5 114.5t-129 166t-43.5 204.5zM244 498 q0 -199 150.5 -308t406.5 -114v866q-266 -6 -411.5 -124t-145.5 -320zM936 76q254 6 404.5 120t150.5 320q0 199 -149.5 308.5t-405.5 117.5v-866z" />
<glyph unicode="&#x3c7;" horiz-adv-x="1232" d="M12 907v105q46 12 97 12q79 0 132.5 -34.5t106.5 -117.5l273 -430l415 570h150l-498 -672l283 -451q67 -107 109.5 -145.5t101.5 -38.5q34 0 82 10v-110q-74 -15 -99 -15q-94 0 -163.5 57.5t-147.5 186.5l-244 404l-442 -621h-148l521 723l-305 469q-39 60 -77.5 81 t-105.5 21q-13 0 -41 -4z" />
<glyph unicode="&#x3c8;" horiz-adv-x="1814" d="M131 514v498h135v-506q0 -98 25.5 -169t70 -116.5t119 -74t158 -41.5t201.5 -19v1272l135 63v-1335q286 14 429.5 115.5t143.5 302.5v508h135v-498q0 -261 -173 -393.5t-535 -145.5v-358h-135v358q-151 6 -260 24.5t-197.5 56.5t-142 98t-81.5 149t-28 211z" />
<glyph unicode="&#x3c9;" horiz-adv-x="1814" d="M88 475q0 131 29.5 232t78 163t117.5 101.5t140.5 54.5t154.5 16v-114q-55 -5 -88.5 -11t-82.5 -22t-78.5 -46t-59 -76.5t-43.5 -121t-14 -172.5q0 -181 76.5 -286t240.5 -105q77 0 134 26.5t87.5 71.5t45 93.5t14.5 101.5v309h135v-317q0 -53 14.5 -100.5t45.5 -90.5 t88 -68.5t134 -25.5q72 0 128 23t91.5 61t58 91.5t31.5 110t9 122.5q0 83 -12 148.5t-28 108.5t-48.5 75t-56 48.5t-69 28t-69.5 14.5t-74 8q-3 0 -5.5 0.5t-4.5 0.5v114q84 -1 153.5 -14t139.5 -49.5t117.5 -96t77.5 -158.5t30 -230q0 -70 -12.5 -138t-45 -139t-82 -123.5 t-131.5 -86.5t-185 -34q-132 0 -230 60t-133 153q-33 -94 -131 -153.5t-229 -59.5q-104 0 -185.5 32t-132 82t-83.5 118t-45.5 134t-12.5 136z" />
<glyph unicode="&#x3ca;" horiz-adv-x="458" d="M-104 1155v197h143v-197h-143zM154 156v856h135v-809q0 -62 15 -84.5t52 -22.5q18 0 78 6v-96q-60 -29 -129 -29q-67 0 -109 48t-42 131zM438 1155v197h144v-197h-144z" />
<glyph unicode="&#x3cb;" horiz-adv-x="1447" d="M145 438v574h136v-555q0 -82 27 -147.5t70.5 -106.5t103 -68t119.5 -38t124 -11t124 11t119.5 38t103 68t70.5 106.5t27 147.5v555h134v-574q0 -82 -23.5 -151t-61 -116t-89.5 -84t-105 -58t-110.5 -35t-102.5 -18.5t-86 -4.5t-86 4.5t-103 18.5t-111 35t-105 58t-90 84 t-61.5 116t-23.5 151zM397 1155v197h144v-197h-144zM940 1155v197h143v-197h-143z" />
<glyph unicode="&#x3cc;" horiz-adv-x="1447" d="M88 506q0 81 22.5 153.5t54.5 121t75.5 90t77 63.5t67.5 39q53 27 146.5 49t205.5 22q267 0 434 -137q48 -39 84 -88t55.5 -93t31 -91t15 -78t3.5 -59q0 -153 -84 -275q-31 -44 -75 -83.5t-110.5 -80t-162.5 -64.5t-207 -24q-81 0 -160 15q-257 45 -385 231 q-88 129 -88 289zM242 504q0 -29 4 -62.5t24 -90.5t54 -101q65 -84 172 -124t223 -40q260 0 395 154q94 109 94 266q0 133 -67.5 232t-175.5 147.5t-238 48.5q-179 0 -309 -86q-28 -19 -54 -44.5t-56 -67t-48 -102t-18 -130.5zM690 1137l160 297h223l-295 -297h-88z" />
<glyph unicode="&#x3cd;" horiz-adv-x="1447" d="M145 438v574h136v-555q0 -82 27 -147.5t70.5 -106.5t103 -68t119.5 -38t124 -11t124 11t119.5 38t103 68t70.5 106.5t27 147.5v555h134v-574q0 -82 -23.5 -151t-61 -116t-89.5 -84t-105 -58t-110.5 -35t-102.5 -18.5t-86 -4.5t-86 4.5t-103 18.5t-111 35t-105 58t-90 84 t-61.5 116t-23.5 151zM668 1137l159 297h224l-295 -297h-88z" />
<glyph unicode="&#x3ce;" horiz-adv-x="1814" d="M88 475q0 131 29.5 232t78 163t117.5 101.5t140.5 54.5t154.5 16v-114q-55 -5 -88.5 -11t-82.5 -22t-78.5 -46t-59 -76.5t-43.5 -121t-14 -172.5q0 -181 76.5 -286t240.5 -105q77 0 134 26.5t87.5 71.5t45 93.5t14.5 101.5v309h135v-317q0 -53 14.5 -100.5t45.5 -90.5 t88 -68.5t134 -25.5q72 0 128 23t91.5 61t58 91.5t31.5 110t9 122.5q0 83 -12 148.5t-28 108.5t-48.5 75t-56 48.5t-69 28t-69.5 14.5t-74 8q-3 0 -5.5 0.5t-4.5 0.5v114q84 -1 153.5 -14t139.5 -49.5t117.5 -96t77.5 -158.5t30 -230q0 -70 -12.5 -138t-45 -139t-82 -123.5 t-131.5 -86.5t-185 -34q-132 0 -230 60t-133 153q-33 -94 -131 -153.5t-229 -59.5q-104 0 -185.5 32t-132 82t-83.5 118t-45.5 134t-12.5 136zM870 1137l160 297h223l-295 -297h-88z" />
<glyph unicode="&#x401;" horiz-adv-x="1705" d="M170 0v1446h1384v-119h-1243v-508h1149v-123h-1149v-575h1303v-121h-1444zM453 1634v197h149v-197h-149zM1114 1634v197h150v-197h-150z" />
<glyph unicode="&#x402;" horiz-adv-x="1945" d="M-2 1323v123h1407v-123h-621v-526q335 57 523 57q145 0 249.5 -17.5t184.5 -76.5q151 -116 151 -336q0 -154 -75 -268q-27 -41 -66.5 -71t-79 -46t-91 -25t-92 -11.5t-93.5 -2.5h-207v123h221q75 0 129.5 10t99.5 43q44 33 70 89.5t30.5 90.5t4.5 64q0 143 -82 221 q-34 31 -77.5 51t-97.5 27.5t-92 9.5t-98 2q-113 0 -261.5 -17.5t-250.5 -39.5v-674h-139v1323h-647z" />
<glyph unicode="&#x403;" horiz-adv-x="1368" d="M170 0v1446h1196v-123h-1057v-1323h-139zM676 1585l172 258h227l-307 -258h-92z" />
<glyph unicode="&#x404;" horiz-adv-x="1695" d="M84 729q0 273 168 473q63 76 142 132t147.5 85t144.5 46.5t122 21.5t91 4q46 0 99.5 -6.5t135 -25t169.5 -64t161 -111.5q45 -41 78 -83t74 -107l-123 -68q-35 65 -80.5 117t-90.5 86.5t-97 60t-95 39t-90 21.5t-77 10t-60 2q-42 0 -88.5 -6t-118 -23.5t-147.5 -60 t-137 -105.5q-145 -147 -168 -368h923v-123h-927q15 -236 178 -397q61 -61 136 -102.5t146.5 -58t116.5 -21.5t88 -5q404 0 623 357l125 -60q-26 -45 -45.5 -75t-70 -85.5t-112.5 -101.5q-222 -164 -528 -164q-304 0 -506 148q-147 108 -227 269.5t-80 348.5z" />
<glyph unicode="&#x405;" horiz-adv-x="1662" d="M66 362l151 58q36 -94 84 -149q161 -185 547 -185q149 0 275.5 37t209 115t82.5 184q0 49 -15 86t-53.5 63.5t-71 43.5t-102 31.5t-109 20.5t-127.5 18q-5 1 -7 1l-316 43q-71 10 -128.5 23.5t-117 39.5t-99.5 61t-65.5 89.5t-25.5 122.5q0 183 175.5 301.5t490.5 118.5 q45 0 89.5 -3t129 -19t157 -44t156.5 -84.5t146 -134.5l-131 -70q-89 124 -236 178t-321 54q-95 0 -182 -17t-161 -50.5t-118.5 -91.5t-44.5 -132q0 -33 11 -59.5t27 -45.5t46.5 -35t57.5 -26t72.5 -19.5t77.5 -14.5t87 -13q49 -7 145.5 -20.5t136 -19t107.5 -16.5 t103.5 -19.5t77.5 -20.5t73 -25q99 -42 157 -122t58 -185q0 -117 -68 -215q-87 -123 -249 -187.5t-435 -64.5q-38 0 -82.5 3t-122 16t-147 34t-145 63.5t-128.5 98.5q-26 27 -49 60t-36 55.5t-37 68.5z" />
<glyph unicode="&#x406;" horiz-adv-x="468" d="M168 0v1446h137v-1446h-137z" />
<glyph unicode="&#x407;" horiz-adv-x="532" d="M53 1634v197h150v-197h-150zM197 0v1446h139v-1446h-139zM330 1634v197h149v-197h-149z" />
<glyph unicode="&#x408;" horiz-adv-x="1280" d="M12 354l144 54q15 -63 44.5 -114t63.5 -83t77 -56t78.5 -35.5t76.5 -18.5t62.5 -8t43.5 -1q19 0 37 1t60.5 7.5t77.5 18.5t75.5 38t67.5 62q39 50 60 133t24.5 144.5t3.5 150.5v799h135v-893q0 -70 -6 -127.5t-22.5 -119t-43.5 -110t-73 -92.5t-107 -75 q-130 -66 -299 -66q-214 0 -361 96q-142 91 -219 295z" />
<glyph unicode="&#x409;" horiz-adv-x="2859" d="M25 0v123h53q52 0 89 18t67 63.5t48.5 116.5t31 185t17.5 261t5 351v328h1171v-629h768q123 0 215.5 -18t167.5 -76q148 -115 148 -317q0 -140 -76 -250q-28 -41 -67.5 -71t-78.5 -46t-91 -25t-92 -11.5t-93 -2.5h-940v1323h-893v-205q0 -169 -3 -295t-11.5 -241.5 t-21.5 -195t-35 -148.5t-51 -111t-69.5 -72.5t-90.5 -42.5t-115 -12h-53zM1507 123h815q153 0 230 53q33 24 56 59t32.5 70.5t12.5 58.5t3 42q0 128 -78 202q-33 31 -74.5 49.5t-95 26t-87.5 9t-95 1.5h-719v-571z" />
<glyph unicode="&#x40a;" horiz-adv-x="2899" d="M170 0v1446h139v-629h1100v629h139v-629h768q123 0 215.5 -18t167.5 -76q148 -115 148 -317q0 -140 -76 -250q-28 -41 -67.5 -71t-78.5 -46t-91 -25t-92 -11.5t-93 -2.5h-940v694h-1100v-694h-139zM1548 123h815q153 0 230 53q33 24 56 59t32.5 70.5t12.5 58.5t3 42 q0 128 -78 202q-33 31 -74.5 49.5t-95 26t-87.5 9t-95 1.5h-719v-571z" />
<glyph unicode="&#x40b;" horiz-adv-x="1990" d="M-2 1323v123h1407v-123h-621v-526q335 57 523 57q130 0 229 -18.5t164.5 -51t106.5 -82t58 -108t17 -131.5v-463h-139v416q0 172 -104.5 243.5t-342.5 71.5q-113 0 -261.5 -17.5t-250.5 -39.5v-674h-139v1323h-647z" />
<glyph unicode="&#x40c;" horiz-adv-x="1679" d="M170 0v1446h139v-615h563q120 0 207.5 28.5t135.5 72t84.5 110.5t53 127.5t43 141.5t54.5 135h152q-37 -60 -68.5 -148.5t-55.5 -161.5t-59 -146t-96 -128.5t-149 -83.5q82 -16 143.5 -54t99 -90.5t63.5 -114t45 -132t35.5 -135.5t42.5 -133.5t60 -118.5h-152 q-30 41 -52.5 98t-34.5 112.5t-29.5 117.5t-36 115.5t-55 103t-86.5 85t-131 56.5t-187 21h-590v-709h-139zM678 1585l172 258h227l-307 -258h-92z" />
<glyph unicode="&#x40e;" horiz-adv-x="1490" d="M12 1446h172l611 -983l532 983h152l-578 -1045q-90 -164 -138.5 -233.5t-103.5 -112.5q-93 -71 -266 -71q-69 0 -168 16v123q105 -17 164 -17q32 0 60.5 4.5t50.5 9.5t45 19t36 21t32.5 29t27 29.5t26.5 36t22.5 34.5t23.5 39zM426 1804l115 33q5 -22 17 -43.5 t36.5 -45.5t71 -39t108.5 -15q63 0 110 15t71.5 39t36.5 45.5t16 43.5l114 -33q-13 -57 -45 -99.5t-69 -65t-84.5 -36t-81 -17t-68.5 -3.5q-34 0 -67 3.5t-80 17t-84 36t-69.5 65t-47.5 99.5z" />
<glyph unicode="&#x40f;" horiz-adv-x="1802" d="M170 0v1446h139v-1323h1184v1323h139v-1446h-663v-328h-135v328h-664z" />
<glyph unicode="&#x410;" horiz-adv-x="1622" d="M12 0l713 1446h156l729 -1446h-150l-186 375h-932l-184 -375h-146zM397 489h820l-414 828z" />
<glyph unicode="&#x411;" horiz-adv-x="1843" d="M168 0v1446h1446v-123h-1307v-506h920q123 0 215.5 -18t167.5 -76q147 -114 147 -317q0 -140 -76 -250q-28 -41 -67 -71t-78.5 -46t-91 -25t-91.5 -11.5t-93 -2.5h-1092zM307 123h967q152 0 229 53q33 24 56.5 59t32.5 70.5t12.5 59t3.5 41.5q0 128 -78 202 q-33 31 -74.5 49.5t-95 26t-87.5 9t-95 1.5h-871v-571z" />
<glyph unicode="&#x412;" horiz-adv-x="1878" d="M168 0v1446h1132q203 0 316 -154q67 -90 67 -209q0 -133 -73 -214.5t-178 -102.5q152 -12 238.5 -118.5t86.5 -254.5q0 -28 -4 -58t-16.5 -78t-44.5 -95.5t-80 -81.5q-66 -48 -142 -64t-176 -16h-1126zM309 121h987q97 0 168.5 28t112.5 103q37 66 37 141q0 105 -55 178 q-31 42 -74.5 69t-100 37.5t-98.5 13.5t-106 3h-871v-573zM309 817h883q98 0 167 18.5t120 79.5q55 65 55 160q0 82 -39 144q-45 69 -112.5 89.5t-170.5 20.5h-903v-512z" />
<glyph unicode="&#x413;" horiz-adv-x="1368" d="M170 0v1446h1196v-123h-1057v-1323h-139z" />
<glyph unicode="&#x414;" horiz-adv-x="1908" d="M27 123h28q33 0 79 36.5t97 113t94 180t71 254t28 317.5v422h1192v-1323h205v-430h-135v307h-1524v-307h-135v430zM270 123h1207v1200h-918v-178q0 -726 -289 -1022z" />
<glyph unicode="&#x415;" horiz-adv-x="1705" d="M170 0v1446h1384v-123h-1245v-504h1151v-123h-1151v-573h1305v-123h-1444z" />
<glyph unicode="&#x416;" horiz-adv-x="2129" d="M16 0q32 49 57 118t41.5 134t35.5 135.5t46 132t65.5 114t100.5 90.5t144 54q-71 21 -124 64.5t-83.5 95.5t-57.5 120t-44 129.5t-44 134t-57 124.5h152q25 -54 48.5 -135t38.5 -141.5t47.5 -127.5t75.5 -110.5t121.5 -72t186.5 -28.5h229v615h140v-615h229 q108 0 186.5 28.5t121.5 72t75.5 110.5t47.5 127.5t38.5 141.5t48.5 135h152q-30 -52 -57 -124.5t-44 -134t-44 -129.5t-57.5 -120t-83.5 -95.5t-124 -64.5q82 -16 144 -54t100.5 -90.5t65.5 -114t46 -132t35.5 -135.5t41.5 -134t57 -118h-152q-30 41 -52.5 98t-34.5 112.5 t-29.5 117.5t-36 115.5t-55 103t-86.5 85t-131 56.5t-187 21h-215v-709h-140v709h-215q-106 0 -187 -21t-131 -56.5t-86.5 -85t-55 -103t-36 -115.5t-29.5 -117.5t-34.5 -112.5t-52.5 -98h-152z" />
<glyph unicode="&#x417;" horiz-adv-x="1658" d="M41 362l152 58q8 -22 21.5 -46t40 -57.5t60 -64t84.5 -61.5t110.5 -54t141 -37t172.5 -14q109 0 208.5 21t181 61.5t130 106t48.5 147.5q0 102 -56 168q-31 36 -72.5 58.5t-95 31.5t-94 11.5t-102.5 2.5h-451v123h467q94 0 162 25q25 9 48.5 22t59 40.5t57 73t21.5 101.5 t-23 101t-57 74t-85 50.5t-97 32t-102.5 17t-90.5 7.5t-73 1q-95 0 -179 -13t-162.5 -41.5t-136 -81.5t-83.5 -126l-131 69q58 149 232.5 232.5t469.5 83.5q666 0 666 -391q0 -125 -71.5 -211t-199.5 -117q66 -5 122.5 -26.5t104 -60.5t74.5 -103t27 -146q0 -119 -67 -215 q-87 -123 -249.5 -187.5t-435.5 -64.5q-48 0 -96.5 3t-123.5 16t-140.5 35t-138 63.5t-125.5 97.5q-57 59 -123 184z" />
<glyph unicode="&#x418;" horiz-adv-x="1843" d="M170 0v1446h139v-1137l1225 1004v133h139v-1446h-139v1157l-1225 -1003v-154h-139z" />
<glyph unicode="&#x419;" horiz-adv-x="1843" d="M170 0v1446h139v-1137l1225 1004v133h139v-1446h-139v1157l-1225 -1003v-154h-139zM524 1792l123 45q70 -143 275 -143q121 0 189.5 43t84.5 100l123 -45q-23 -63 -70.5 -109t-105.5 -69t-112.5 -33t-108.5 -10t-107 9.5t-112.5 31.5t-107.5 68.5t-71 111.5z" />
<glyph unicode="&#x41a;" horiz-adv-x="1679" d="M170 0v1446h139v-615h563q120 0 207.5 28.5t135.5 72t84.5 110.5t53 127.5t43 141.5t54.5 135h152q-37 -60 -68.5 -148.5t-55.5 -161.5t-59 -146t-96 -128.5t-149 -83.5q82 -16 143.5 -54t99 -90.5t63.5 -114t45 -132t35.5 -135.5t42.5 -133.5t60 -118.5h-152 q-30 41 -52.5 98t-34.5 112.5t-29.5 117.5t-36 115.5t-55 103t-86.5 85t-131 56.5t-187 21h-590v-709h-139z" />
<glyph unicode="&#x41b;" horiz-adv-x="1679" d="M27 0v123h53q62 0 104 27.5t73 91.5t48 181.5t25 283t8 411.5v328h1171v-1446h-139v1323h-893v-205q0 -169 -3 -295t-11.5 -241.5t-21.5 -195t-35 -148.5t-51 -111t-69.5 -72.5t-90.5 -42.5t-115 -12h-53z" />
<glyph unicode="&#x41c;" horiz-adv-x="1921" d="M168 0v1446h184l617 -1315l606 1315h180v-1446h-129v1282l-590 -1282h-143l-594 1270v-1270h-131z" />
<glyph unicode="&#x41d;" horiz-adv-x="1835" d="M170 0v1446h141v-619h1215v619h137v-1446h-137v707h-1215v-707h-141z" />
<glyph unicode="&#x41e;" horiz-adv-x="1878" d="M86 725q0 147 47.5 273t129 215.5t190 153t232 94t253.5 30.5q42 0 83.5 -3.5t112.5 -13.5t139 -35t141 -62.5t142 -102t121 -146.5q117 -187 117 -401q0 -40 -5.5 -85t-20.5 -110.5t-51 -138t-89 -135.5q-66 -80 -152 -138.5t-159.5 -88t-157.5 -46.5t-131 -20.5 t-94 -3.5q-33 0 -68 2t-96 11t-117 24t-125.5 44.5t-128.5 69.5t-117.5 102t-101.5 138q-94 169 -94 373zM238 719q0 -132 47 -248q30 -75 77.5 -136.5t98 -101t112 -69t113 -44t107.5 -23.5t87.5 -11t61.5 -2q146 0 265 38.5t197.5 103t132 152.5t76.5 182t23 196 q0 123 -47 232.5t-133.5 194t-221 134t-298.5 49.5q-269 0 -449 -133q-38 -28 -75.5 -67.5t-79.5 -102t-68 -152.5t-26 -192z" />
<glyph unicode="&#x41f;" horiz-adv-x="1802" d="M170 0v1446h1462v-1446h-139v1323h-1184v-1323h-139z" />
<glyph unicode="&#x420;" horiz-adv-x="1662" d="M168 0v1446h960q53 0 93 -2.5t92 -11.5t91 -25t78.5 -46t67.5 -71q76 -104 76 -239q0 -198 -147 -310q-75 -58 -167.5 -76t-215.5 -18h-789v-647h-139zM307 770h750q248 0 342 86q78 73 78 195q0 17 -3.5 39t-12.5 55.5t-32.5 67t-56.5 57.5q-77 53 -229 53h-836v-553z " />
<glyph unicode="&#x421;" horiz-adv-x="1693" d="M84 729q0 273 168 473q63 76 142 132t147.5 85t144.5 46.5t122 21.5t91 4q46 0 99.5 -6.5t135 -25t169.5 -64t161 -111.5q45 -41 78 -83t74 -107l-123 -68q-35 65 -80.5 117t-90.5 86.5t-97 60t-95 39t-90 21.5t-77 10t-60 2q-42 0 -88.5 -6t-118 -23.5t-147.5 -60 t-137 -105.5q-56 -57 -94 -126t-53.5 -133.5t-21 -107t-5.5 -81.5q0 -40 5.5 -82t21.5 -105.5t55.5 -131t97.5 -124.5q50 -50 111 -86.5t112.5 -55t109 -29.5t89.5 -13t65 -2q412 0 623 359l125 -60q-26 -45 -45.5 -75t-70 -85.5t-112.5 -101.5q-222 -164 -528 -164 q-304 0 -506 148q-147 108 -227 269.5t-80 348.5z" />
<glyph unicode="&#x422;" horiz-adv-x="1409" d="M-2 1323v123h1407v-123h-621v-1323h-139v1323h-647z" />
<glyph unicode="&#x423;" horiz-adv-x="1490" d="M12 1446h172l611 -983l532 983h152l-578 -1045q-90 -164 -138.5 -233.5t-103.5 -112.5q-93 -71 -266 -71q-69 0 -168 16v123q105 -17 164 -17q32 0 60.5 4.5t50.5 9.5t45 19t36 21t32.5 29t27 29.5t26.5 36t22.5 34.5t23.5 39z" />
<glyph unicode="&#x424;" horiz-adv-x="2048" d="M84 743q0 46 4 85t16 85.5t31.5 85.5t54 80t80 73.5t111.5 62t147.5 48.5t190 30.5t235.5 11.5v182h140v-182q127 0 235.5 -11.5t190 -30.5t147.5 -48.5t111.5 -62t80 -73.5t54 -80t31.5 -85.5t16 -85.5t4 -85q0 -60 -7 -110.5t-29.5 -110t-60.5 -106t-104.5 -92 t-155.5 -75.5t-220 -48.5t-293 -18.5v-202h-140v202q-165 0 -296.5 17t-221 45t-155.5 72.5t-103 89.5t-59 105.5t-28.5 113t-6.5 118.5zM233 745q0 -83 17.5 -146t65 -120.5t127 -94t208 -58t303.5 -21.5v877q-175 0 -303.5 -21.5t-208 -58.5t-127 -94t-65 -119.5 t-17.5 -143.5zM1094 305q175 0 303.5 21.5t208 58t127 94t65 120.5t17.5 146q0 81 -17.5 143.5t-65 119.5t-127 94t-208 58.5t-303.5 21.5v-877z" />
<glyph unicode="&#x425;" horiz-adv-x="1492" d="M-8 1446h178l567 -606l527 606h172l-613 -705l693 -741h-179l-600 645l-557 -645h-172l641 741z" />
<glyph unicode="&#x426;" horiz-adv-x="1925" d="M170 0v1446h139v-1323h1184v1323h139v-1323h205v-430h-135v307h-1532z" />
<glyph unicode="&#x427;" horiz-adv-x="1597" d="M109 922v524h139v-477q0 -173 104 -244.5t342 -71.5q131 0 302.5 18t291.5 40v735h139v-1446h-139v588q-394 -58 -604 -58q-130 0 -229 18.5t-164.5 51.5t-106.5 82.5t-58 108t-17 131.5z" />
<glyph unicode="&#x428;" horiz-adv-x="2396" d="M170 0v1446h139v-1323h819v1323h140v-1323h819v1323h139v-1446h-2056z" />
<glyph unicode="&#x429;" horiz-adv-x="2519" d="M170 0v1446h139v-1323h819v1323h140v-1323h819v1323h139v-1323h205v-430h-135v307h-2126z" />
<glyph unicode="&#x42a;" horiz-adv-x="2048" d="M20 1323v123h574v-629h870q123 0 215.5 -18t167.5 -76q148 -115 148 -317q0 -140 -76 -250q-28 -41 -67.5 -71t-78.5 -46t-91 -25t-92 -11.5t-93 -2.5h-1042v1323h-435zM594 123h917q153 0 230 53q33 24 56 59t32.5 70.5t12.5 58.5t3 42q0 128 -78 202q-33 31 -74.5 49.5 t-95 26t-87.5 9t-95 1.5h-821v-571z" />
<glyph unicode="&#x42b;" horiz-adv-x="2088" d="M170 0v1446h139v-629h768q123 0 215.5 -18t167.5 -76q148 -115 148 -317q0 -140 -76 -250q-28 -41 -67.5 -71t-78.5 -46t-91 -25t-92 -11.5t-93 -2.5h-940zM309 123h815q153 0 230 53q33 24 56 59t32.5 70.5t12.5 58.5t3 42q0 128 -78 202q-33 31 -74.5 49.5t-95 26 t-87.5 9t-95 1.5h-719v-571zM1780 0v1446h139v-1446h-139z" />
<glyph unicode="&#x42c;" horiz-adv-x="1761" d="M168 0v1446h139v-629h871q123 0 215.5 -18t167.5 -76q147 -114 147 -317q0 -140 -76 -250q-28 -41 -67.5 -71t-78.5 -46t-91 -25t-92 -11.5t-93 -2.5h-1042zM307 123h918q152 0 229 53q33 24 56.5 59t32.5 70.5t12.5 59t3.5 41.5q0 128 -78 202q-33 31 -75 49.5t-95.5 26 t-87.5 9t-95 1.5h-821v-571z" />
<glyph unicode="&#x42d;" horiz-adv-x="1695" d="M43 389l125 60q59 -96 133 -167t139 -107.5t138.5 -57.5t119 -26t93.5 -5q64 0 109 4t115 19.5t137.5 55t129.5 101.5q158 156 174 410h-928v123h924q-23 221 -168 368q-197 201 -491 201q-30 0 -60 -2t-77 -10t-90 -21.5t-95 -39t-97 -60t-90.5 -86.5t-80.5 -117 l-123 62q42 66 74 108t77 82q73 66 161 111.5t169.5 64t135 25t100.5 6.5q45 0 91 -4t122 -21.5t144.5 -46.5t147.5 -85t142 -132q168 -200 168 -473q0 -187 -80 -348.5t-227 -269.5q-202 -148 -506 -148q-307 0 -529 164q-48 35 -86 72t-66.5 75.5t-41.5 59.5t-33 55z" />
<glyph unicode="&#x42e;" horiz-adv-x="2498" d="M170 0v1446h139v-619h404q19 159 97.5 287.5t195.5 209.5t258.5 124t294.5 43q42 0 83.5 -3.5t112.5 -13.5t139 -35t141 -62.5t142 -102t121 -146.5q108 -172 108 -401q0 -281 -157 -469q-66 -80 -152 -138.5t-160 -88t-157.5 -46.5t-131 -20.5t-94.5 -3.5q-33 0 -68 2 t-96 11t-117 24t-125 44.5t-128 69.5t-117.5 102t-101.5 138q-94 166 -94 353h-398v-705h-139zM858 719q0 -144 47 -248q40 -90 108.5 -161t140.5 -112t153 -68t143 -36.5t113 -9.5q147 0 265.5 36.5t197 98t131.5 146t76.5 176.5t23.5 194q0 97 -30.5 190t-90.5 173 t-143.5 140.5t-196 95t-240.5 34.5q-278 0 -452 -129q-37 -27 -74.5 -68t-79 -104.5t-67 -154.5t-25.5 -193z" />
<glyph unicode="&#x42f;" horiz-adv-x="1802" d="M53 0q52 40 91.5 106.5t61.5 134t51.5 141t61.5 131.5t91.5 101t140.5 54q-102 1 -174.5 26.5t-114 73.5t-60 108.5t-18.5 139.5q0 206 132 318t360 112h956v-1446h-139v637h-614q-118 0 -203 -22t-135.5 -62t-83 -89t-54.5 -110.5t-41 -119t-51.5 -122t-77.5 -112.5 h-180zM334 1022q0 -51 12 -91.5t30.5 -68t50 -47t62 -30t75 -16.5t80 -7.5t85.5 -1.5h764v563h-791q-175 0 -271.5 -75.5t-96.5 -225.5z" />
<glyph unicode="&#x430;" horiz-adv-x="1366" d="M84 303q0 74 34 141.5t93 108.5q52 36 132 58.5t205.5 33t231.5 14t293 5.5q0 103 -35 153q-71 101 -383 101q-93 0 -160 -9.5t-109 -24.5t-71 -43.5t-44.5 -57t-30.5 -74.5l-144 8q8 32 16 53.5t28.5 62t56 75.5t84.5 61q131 71 362 71q368 0 487 -131 q41 -47 54.5 -99.5t13.5 -123.5v-444q0 -83 30 -110.5t101 -27.5h35v-104q-70 -8 -135 -8q-30 0 -54 7t-39.5 20t-26.5 26t-17.5 31t-10 29t-6 25.5t-2.5 16.5q-62 -47 -110 -73q-186 -101 -426 -101q-82 0 -143 8t-129 39t-113 86q-68 84 -68 197zM229 299q0 -57 30.5 -99 t80.5 -64t103 -32t110 -10q49 0 111.5 10t136 31t138.5 62.5t97 97.5q37 64 37 201v53h-63q-434 0 -607.5 -53t-173.5 -197z" />
<glyph unicode="&#x431;" d="M88 561q0 120 11.5 218t36.5 176t59 138.5t84.5 105.5t107.5 76.5t133 53t156.5 34t181.5 19.5q57 4 98.5 9.5t84.5 18.5t66 37t23 58h130q0 -129 -110 -193.5t-316 -64.5q-286 0 -435.5 -114.5t-181.5 -366.5q65 118 209 182t311 64q150 0 253 -26.5t190 -90.5 q180 -131 180 -385q0 -200 -135 -346q-180 -193 -504 -193q-303 0 -468 148.5t-165 441.5zM242 504q0 -29 4 -62.5t24 -90.5t54 -101q65 -84 172.5 -126t222.5 -42q24 0 45.5 1t73.5 8.5t94.5 22t94.5 45t89 72.5q94 107 94 275q0 128 -61.5 219t-162 133.5t-230.5 42.5 q-105 0 -202.5 -24t-145.5 -60q-166 -124 -166 -313z" />
<glyph unicode="&#x432;" horiz-adv-x="1351" d="M147 0v1012h787q154 0 230.5 -72t76.5 -188q0 -163 -180 -220q217 -37 217 -249q0 -137 -100 -210t-265 -73h-766zM283 111h581q59 0 102 6t85.5 23t65 53.5t22.5 91.5q0 101 -74 143.5t-244 42.5h-538v-360zM283 582h585q234 0 234 161q0 86 -58.5 122t-166.5 36h-594 v-319z" />
<glyph unicode="&#x433;" horiz-adv-x="1105" d="M147 0v1012h934v-111h-798v-901h-136z" />
<glyph unicode="&#x434;" horiz-adv-x="1474" d="M20 111q65 18 113.5 62t79.5 105.5t50.5 148.5t27 180.5t8.5 211.5v193h909v-901h185v-357h-127v246h-1119v-246h-127v357zM244 111h829v790h-647v-82q0 -275 -47.5 -461t-134.5 -247z" />
<glyph unicode="&#x435;" horiz-adv-x="1366" d="M96 518q0 233 168 379q59 53 174.5 100t257.5 47q297 0 447 -174q136 -156 141 -378h-1046q0 -124 66 -215.5t173.5 -136t241.5 -44.5q306 0 459 256l106 -76q-89 -126 -203 -200q-164 -103 -376 -103q-69 0 -120 5t-129 29.5t-149 70.5q-211 138 -211 440zM242 602h878 q-17 81 -50.5 136.5t-92.5 105.5q-39 33 -116.5 55.5t-180.5 22.5q-90 0 -173.5 -25t-141.5 -74q-47 -40 -75.5 -86t-35 -71.5t-12.5 -63.5z" />
<glyph unicode="&#x436;" horiz-adv-x="1720" d="M70 0q40 58 62 131.5t32 133t27 116.5t61 100t121 66q-59 22 -92.5 59.5t-47 85t-22 97t-29 111t-57.5 112.5h145q24 -32 39 -80.5t21 -91.5t19.5 -89t34 -78.5t65 -53.5t110.5 -21h238v414h127v-414h237q66 0 110.5 21t65 53.5t34 78.5t19.5 89t21 91.5t39 80.5h145 q-37 -51 -57.5 -112.5t-28.5 -111t-21.5 -97t-47 -85t-92.5 -59.5q79 -11 123.5 -50t61.5 -98.5t26 -122.5t30.5 -141t61.5 -135h-144q-26 33 -42 87t-21.5 105t-22 106t-43 95.5t-86 67t-149.5 26.5h-219v-487h-127v487h-219q-90 0 -149.5 -26.5t-86 -67t-43.5 -95.5 t-22.5 -106t-21.5 -105t-42 -87h-143z" />
<glyph unicode="&#x437;" horiz-adv-x="1277" d="M61 250l148 33q35 -87 145 -136q125 -49 314 -49q183 0 290 51.5t107 151.5q0 186 -315 186h-297v111h307q79 0 145 16q15 5 31.5 13.5t38 24t35.5 39.5t14 52q0 35 -13.5 63t-33.5 46t-52.5 31t-61 19.5t-69 10.5t-66.5 4.5t-64 0.5q-69 0 -125 -6.5t-116.5 -24 t-106 -54.5t-70.5 -92l-150 41q122 258 568 258q186 0 297 -32t156.5 -92.5t45.5 -157.5q0 -74 -46.5 -128.5t-133.5 -80.5q100 -22 160.5 -83.5t60.5 -164.5q0 -23 -3 -44.5t-15 -55.5t-33 -63t-61.5 -60t-94.5 -53t-138 -36t-187 -14q-519 0 -611 275z" />
<glyph unicode="&#x438;" horiz-adv-x="1458" d="M147 0v1012h136v-746l893 645v101h135v-1012h-135v768l-893 -645v-123h-136z" />
<glyph unicode="&#x439;" horiz-adv-x="1458" d="M147 0v1012h136v-746l893 645v101h135v-1012h-135v768l-893 -645v-123h-136zM414 1376l118 21q4 -23 14 -46t30.5 -48.5t60 -41.5t92.5 -16t92.5 16t60 41.5t30.5 48.5t14 46l118 -21q-9 -60 -35 -105.5t-58 -70.5t-74.5 -40.5t-76.5 -20t-71 -4.5t-71 4.5t-76.5 20 t-74.5 40.5t-58 70.5t-35 105.5z" />
<glyph unicode="&#x43a;" horiz-adv-x="1351" d="M147 0v1012h136v-414h510q65 0 109 21t65 54t37 78.5t24 88.5t25.5 91.5t42.5 80.5h145q-39 -51 -63 -112.5t-35 -111t-26 -97t-48.5 -85t-89.5 -59.5q71 -11 113 -50t60.5 -98.5t30 -122.5t35.5 -140.5t64 -135.5h-143q-26 33 -43 87t-24 105t-24.5 106t-44 95.5t-85 67 t-144.5 26.5h-491v-487h-136z" />
<glyph unicode="&#x43b;" horiz-adv-x="1392" d="M20 0v111h62q83 1 126.5 58t62 189.5t18.5 382.5v271h956v-1012h-135v901h-698v-160q0 -166 -9 -282t-30.5 -207.5t-59.5 -144.5t-94.5 -80t-136.5 -27h-62z" />
<glyph unicode="&#x43c;" horiz-adv-x="1486" d="M158 0v1012h200l390 -879l382 879h201v-1012h-123v891l-411 -891h-103l-413 887v-887h-123z" />
<glyph unicode="&#x43d;" horiz-adv-x="1433" d="M147 0v1012h136v-414h868v414h135v-1012h-135v487h-868v-487h-136z" />
<glyph unicode="&#x43e;" d="M88 506q0 81 22.5 153.5t54.5 121t75.5 90t77 63.5t67.5 39q53 27 146.5 49t205.5 22q267 0 434 -137q48 -39 84 -88t55.5 -93t31 -91t15 -78t3.5 -59q0 -153 -84 -275q-31 -44 -75 -83.5t-110.5 -80t-162.5 -64.5t-207 -24q-81 0 -160 15q-257 45 -385 231 q-88 129 -88 289zM242 504q0 -29 4 -62.5t24 -90.5t54 -101q65 -84 172 -124t223 -40q260 0 395 154q94 109 94 266q0 133 -67.5 232t-175.5 147.5t-238 48.5q-179 0 -309 -86q-28 -19 -54 -44.5t-56 -67t-48 -102t-18 -130.5z" />
<glyph unicode="&#x43f;" horiz-adv-x="1433" d="M147 0v1012h1139v-1012h-135v901h-868v-901h-136z" />
<glyph unicode="&#x440;" d="M152 -383v1395h131v-158q42 50 102.5 87t114.5 55.5t115.5 29t94 12.5t62.5 2q167 0 304 -68t210 -206q64 -114 64 -258q0 -230 -150 -373q-164 -160 -459 -160q-107 0 -206.5 28t-155.5 69q-65 49 -96 84v-539h-131zM285 496q0 -179 98 -275q49 -47 139 -85t211 -38 q149 0 244.5 44t142.5 108q49 64 64.5 122t15.5 138q0 93 -41 182q-29 63 -78.5 109t-95 67.5t-102.5 34t-85 14t-59 1.5q-122 0 -212.5 -34t-142 -94t-75.5 -133t-24 -161z" />
<glyph unicode="&#x441;" horiz-adv-x="1366" d="M82 512q0 206 133 348q88 94 224 143.5t274 49.5q45 0 88 -4t116 -23t135.5 -51t132.5 -95.5t122 -150.5l-136 -55q-18 38 -71.5 98t-108.5 92q-117 72 -282 72q-155 0 -260.5 -60.5t-155.5 -146.5q-60 -97 -60 -215q0 -105 42.5 -188t112 -131.5t151 -73.5t166.5 -25 q103 0 207.5 37t172.5 103q58 58 107 159l135 -51q-82 -134 -153 -201q-178 -166 -484 -166q-125 0 -227 31q-42 13 -83 32t-98 60.5t-98.5 93.5t-71.5 135.5t-30 182.5z" />
<glyph unicode="&#x442;" horiz-adv-x="1146" d="M25 901v111h1097v-111h-481v-901h-135v901h-481z" />
<glyph unicode="&#x443;" horiz-adv-x="1150" d="M0 1012h162l452 -918l387 918h146l-477 -1090q-48 -112 -77.5 -163t-76.5 -87q-89 -69 -285 -69q-100 0 -208 24v127q109 -37 204 -37q64 0 113.5 13.5t80 32.5t56 53.5t37.5 59.5t29 69z" />
<glyph unicode="&#x444;" horiz-adv-x="1638" d="M90 506q0 113 35.5 201t95.5 144.5t146 93.5t180.5 52t204.5 15v434h135v-434q110 0 204 -15t180 -52t146 -93.5t95.5 -144.5t35.5 -201t-35.5 -201t-95.5 -144.5t-146 -93.5t-180 -52t-204 -15v-383h-135v383q-110 0 -204.5 15t-180.5 52t-146 93.5t-95.5 144.5 t-35.5 201zM240 502q0 -86 24.5 -152t81 -119t158.5 -83.5t248 -36.5v790q-146 -6 -247.5 -36t-158.5 -83.5t-81.5 -121t-24.5 -158.5zM887 111q146 6 248 36t158.5 83t81 118.5t24.5 151.5q0 72 -15 129t-50.5 107t-93.5 84t-146.5 55t-206.5 26v-790z" />
<glyph unicode="&#x445;" horiz-adv-x="1150" d="M-8 0l500 526l-469 486h182l370 -394l371 394h174l-463 -486l502 -526h-178l-406 432l-405 -432h-178z" />
<glyph unicode="&#x446;" horiz-adv-x="1556" d="M147 0v1012h136v-901h868v901h135v-901h189v-357h-127v246h-1201z" />
<glyph unicode="&#x447;" horiz-adv-x="1269" d="M90 698v314h135v-293q0 -50 15 -89t43.5 -64t62 -41.5t79 -25t85 -11.5t88.5 -3q161 0 389 39v488h135v-1012h-135v414q-212 -39 -391 -39q-244 0 -375 75.5t-131 247.5z" />
<glyph unicode="&#x448;" horiz-adv-x="1884" d="M147 0v1012h136v-897h591v897h136v-897h592v897h135v-1012h-1590z" />
<glyph unicode="&#x449;" horiz-adv-x="2007" d="M147 0v1012h136v-897h591v897h136v-897h592v897h135v-901h188v-357h-127v246h-1651z" />
<glyph unicode="&#x44a;" horiz-adv-x="1482" d="M25 901v111h471v-402h430q54 0 91.5 -1t85 -4t80 -9.5t70 -17.5t62 -26.5t49 -38.5t39 -53t23 -69.5t8.5 -87.5q0 -142 -86.5 -222.5t-227.5 -80.5h-760v901h-335zM496 111h499q66 0 105 2.5t81.5 13.5t65 31.5t37 57.5t14.5 91q0 51 -16 87t-41 56.5t-68.5 31.5 t-86.5 14.5t-107 3.5h-483v-389z" />
<glyph unicode="&#x44b;" horiz-adv-x="1597" d="M147 0v1012h136v-402h368q55 0 90 -0.5t83 -4t79 -9t68.5 -16.5t61.5 -26.5t48.5 -39t38.5 -53t22.5 -69.5t8.5 -89q0 -153 -81 -228t-224 -75h-699zM283 111h438q63 0 101 2.5t79 13.5t62 31.5t35 57.5t14 91q0 51 -15 87t-39 56.5t-65.5 31.5t-83 14.5t-104.5 3.5h-422 v-389zM1315 0v1012h135v-1012h-135z" />
<glyph unicode="&#x44c;" horiz-adv-x="1269" d="M147 0v1012h136v-402h430q59 0 102.5 -1.5t94.5 -6.5t87 -14.5t74 -24.5t63.5 -38t46 -54t30.5 -73.5t10 -94.5q0 -151 -85 -227t-229 -76h-760zM283 111h499q47 0 76.5 1t65.5 5t57 11.5t43.5 21.5t34 34.5t19 50t7.5 68.5q0 110 -82 153.5t-237 43.5h-483v-389z" />
<glyph unicode="&#x44d;" horiz-adv-x="1366" d="M92 254l135 59q63 -104 185.5 -158.5t261.5 -54.5q65 0 128 13t123.5 43t106 73.5t73.5 110.5t28 149h-672v111h663q-14 67 -51 129q-49 84 -154.5 142.5t-261.5 58.5q-279 0 -405 -176l-117 77q57 78 153 130t190.5 72t191.5 20q136 0 264 -49t217 -144 q133 -142 133 -348q0 -99 -30 -182.5t-71.5 -135.5t-98.5 -93.5t-98 -60.5t-83 -32q-102 -31 -227 -31q-77 0 -152 14t-153 44.5t-150.5 86.5t-128.5 132z" />
<glyph unicode="&#x44e;" horiz-adv-x="1966" d="M147 0v1012h136v-414h329q35 206 209.5 326t431.5 120q134 0 254.5 -36.5t196.5 -104.5q105 -91 138.5 -186t33.5 -219q0 -153 -84 -275q-31 -44 -75 -83.5t-110.5 -80t-162.5 -64.5t-207 -24q-181 0 -322 61t-223.5 178.5t-87.5 276.5h-321v-487h-136zM754 504 q0 -44 20.5 -115.5t69.5 -134.5q64 -83 169 -121.5t222 -38.5q265 0 395 146q96 107 96 266q0 86 -27.5 156.5t-73.5 118t-108.5 80t-131 47t-142.5 14.5q-188 0 -309 -74q-28 -17 -55.5 -43t-57.5 -67.5t-48.5 -102.5t-18.5 -131z" />
<glyph unicode="&#x44f;" horiz-adv-x="1269" d="M45 0q39 32 66 87t43.5 109t36 106t56.5 90.5t93 51.5q-104 21 -147 79t-43 161q0 154 91 241t269 87h612v-1012h-135v410h-432q-72 0 -123 -22t-76.5 -55.5t-45.5 -79.5t-30.5 -89t-31.5 -89t-49 -75h-154zM285 686q0 -51 18 -85t51.5 -51t69.5 -23.5t84 -6.5h479v381 h-483q-38 0 -74.5 -11.5t-70 -35t-54 -67t-20.5 -101.5z" />
<glyph unicode="&#x451;" horiz-adv-x="1366" d="M96 528q0 107 42 206t120 167q60 54 167 98.5t249 44.5q40 0 83 -5t109.5 -21t135.5 -55t126 -97q145 -145 156 -374h-1046q9 -127 78 -219t173 -136.5t230 -44.5q304 0 459 260l106 -76q-89 -126 -203 -200q-164 -103 -376 -103q-209 0 -369 107q-113 74 -176.5 192 t-63.5 256zM242 606h878q-34 159 -172 248q-117 76 -284 76q-187 0 -299 -107q-44 -42 -72 -87t-36 -70t-15 -60zM342 1165v197h143v-197h-143zM887 1165v197h143v-197h-143z" />
<glyph unicode="&#x452;" d="M18 1169v105h125v172h136v-172h518v-105h-518v-426q47 81 176 136t305 55q50 0 98.5 -4.5t110.5 -20t113 -39.5t98 -67.5t73 -100.5q28 -57 36.5 -115t8.5 -138v-560q0 -30 -1 -49.5t-6.5 -51.5t-15.5 -53.5t-30.5 -47t-48.5 -40.5t-71.5 -25.5t-98.5 -10.5 q-90 0 -190 24v123q88 -26 159 -26q56 0 92 13t51 38t20 47.5t5 56.5v537q0 210 -102 295q-105 92 -336 92q-215 0 -342 -111q-63 -55 -83.5 -110t-20.5 -139v-451h-136v1169h-125z" />
<glyph unicode="&#x453;" horiz-adv-x="1105" d="M147 0v1012h934v-111h-798v-901h-136zM520 1137l160 297h223l-295 -297h-88z" />
<glyph unicode="&#x454;" horiz-adv-x="1366" d="M82 512q0 206 133 348q88 94 224 143.5t274 49.5q45 0 87.5 -4t114.5 -23t134.5 -51t133.5 -95.5t124 -150.5l-136 -55q-16 35 -70 90t-110 88q-126 78 -282 78t-261.5 -58.5t-154.5 -142.5q-36 -61 -51 -131h663v-111h-672q4 -81 34.5 -147.5t77.5 -110.5t108 -73.5 t124 -42.5t128 -13q104 0 208.5 35t171.5 101q58 58 107 159l135 -51q-82 -134 -153 -201q-178 -166 -484 -166q-125 0 -227 31q-42 13 -83 32t-98 60.5t-98.5 93.5t-71.5 135.5t-30 182.5z" />
<glyph unicode="&#x455;" horiz-adv-x="1280" d="M61 250l148 33q35 -87 145 -136q125 -49 314 -49q110 0 198 21t144.5 68t56.5 114q0 37 -22 64.5t-63 43.5t-87.5 24.5t-106.5 12.5q-70 4 -169 8.5t-149 7t-106.5 10.5t-93.5 22q-23 8 -46 22t-52 40t-47.5 69.5t-18.5 97.5q0 71 27.5 126t74.5 90.5t114 58.5 t141.5 32.5t161.5 9.5q456 0 557 -237l-150 -31q-26 43 -43 59q-55 48 -164.5 69.5t-208.5 21.5q-42 0 -84 -3.5t-96 -15t-94 -30.5t-68 -55t-28 -83q0 -40 27 -73t67 -44q36 -10 197 -20q34 -2 102 -5.5t96.5 -5t80 -5.5t77.5 -7.5t61 -10t60 -15t47 -19.5q20 -10 40.5 -25 t45.5 -42t41 -69t16 -91q0 -22 -4 -45.5t-18 -57t-36.5 -63t-63.5 -60t-95 -52.5t-135 -36t-180 -14q-270 0 -419.5 73t-191.5 202z" />
<glyph unicode="&#x456;" horiz-adv-x="425" d="M145 0v1012h136v-1012h-136zM145 1192v197h136v-197h-136z" />
<glyph unicode="&#x457;" horiz-adv-x="491" d="M45 1192v197h135v-197h-135zM178 0v1012h135v-1012h-135zM311 1192v197h135v-197h-135z" />
<glyph unicode="&#x458;" horiz-adv-x="425" d="M-182 -242q88 -26 159 -26q56 0 92 13t52 38t21 48t5 56v1125h132v-1123q0 -30 -1 -49.5t-6.5 -51.5t-15.5 -53.5t-30 -47t-48 -40.5t-71.5 -25.5t-98.5 -10.5q-90 0 -190 24v123zM147 1188v198h132v-198h-132z" />
<glyph unicode="&#x459;" horiz-adv-x="2129" d="M20 0v111h62q79 1 123 58t64 192t20 380v271h923v-402h361q56 0 91.5 -0.5t83.5 -4t79.5 -9t69 -16.5t61.5 -26.5t49 -39t39.5 -53t24 -69.5t10.5 -89q-6 -153 -88.5 -228t-225.5 -75h-690v901h-665v-160q0 -166 -9 -282t-30.5 -207.5t-59.5 -144.5t-94.5 -80t-136.5 -27 h-62zM1212 111h430q66 0 105 2.5t82 13.5t65.5 31.5t37 57.5t14.5 91q0 48 -15.5 83t-42 56t-68.5 33.5t-87 16.5t-107 4h-414v-389z" />
<glyph unicode="&#x45a;" horiz-adv-x="2129" d="M147 0v1012h136v-402h782v402h135v-402h361q79 0 133 -2t111.5 -9.5t94.5 -21t72 -36t54 -55t30.5 -78t11.5 -105.5q0 -151 -84.5 -227t-228.5 -76h-690v500h-782v-500h-136zM1200 111h430q66 0 105 2.5t81.5 13.5t65 31.5t37 57.5t14.5 91q0 58 -22 97t-67 59.5 t-99 28.5t-131 8h-414v-389z" />
<glyph unicode="&#x45b;" d="M18 1163v111h125v172h136v-172h518v-111h-518v-420q47 81 176 136t305 55q50 0 98.5 -4.5t110.5 -20t113 -39.5t98 -67.5t73 -100.5q28 -57 36.5 -115t8.5 -138v-449h-133v428q0 116 -26 182.5t-76 108.5q-105 92 -338 92q-215 0 -342 -111q-63 -55 -83.5 -108 t-20.5 -137v-455h-136v1163h-125z" />
<glyph unicode="&#x45c;" horiz-adv-x="1351" d="M147 0v1012h136v-414h510q65 0 109 21t65 54t37 78.5t24 88.5t25.5 91.5t42.5 80.5h145q-39 -51 -63 -112.5t-35 -111t-26 -97t-48.5 -85t-89.5 -59.5q71 -11 113 -50t60.5 -98.5t30 -122.5t35.5 -140.5t64 -135.5h-143q-26 33 -43 87t-24 105t-24.5 106t-44 95.5t-85 67 t-144.5 26.5h-491v-487h-136zM561 1137l160 297h223l-295 -297h-88z" />
<glyph unicode="&#x45e;" horiz-adv-x="1150" d="M0 1012h162l452 -918l387 918h146l-477 -1090q-48 -112 -77.5 -163t-76.5 -87q-89 -69 -285 -69q-100 0 -208 24v127q109 -37 204 -37q64 0 113.5 13.5t80 32.5t56 53.5t37.5 59.5t29 69zM283 1376l110 21q4 -23 14 -46t30.5 -48.5t60 -41.5t92.5 -16t92 16t59.5 41.5 t30.5 48.5t14 46l111 -21q-9 -60 -36.5 -105t-60.5 -68.5t-76 -38t-73 -18t-61 -3.5t-61 3.5t-73 18t-76 38t-60.5 68.5t-36.5 105z" />
<glyph unicode="&#x45f;" horiz-adv-x="1433" d="M147 0v1012h136v-901h868v901h135v-1012h-506v-287h-127v287h-506z" />
<glyph unicode="&#x490;" horiz-adv-x="1368" d="M170 0v1446h1061v307h135v-430h-1057v-1323h-139z" />
<glyph unicode="&#x491;" horiz-adv-x="1105" d="M147 0v1012h807v245h127v-356h-798v-901h-136z" />
<glyph unicode="&#x1e80;" horiz-adv-x="2174" d="M6 1446h146l421 -1299l447 1299h149l457 -1299l406 1299h137l-459 -1446h-168l-448 1300l-445 -1300h-164zM813 1843h227l177 -258h-99z" />
<glyph unicode="&#x1e81;" horiz-adv-x="1748" d="M0 1012h145l336 -846l324 846h141l328 -846l334 846h139l-410 -1012h-129l-334 856l-327 -856h-129zM604 1432h225l154 -297h-88z" />
<glyph unicode="&#x1e82;" horiz-adv-x="2174" d="M6 1446h146l421 -1299l447 1299h149l457 -1299l406 1299h137l-459 -1446h-168l-448 1300l-445 -1300h-164zM973 1585l172 258h227l-307 -258h-92z" />
<glyph unicode="&#x1e83;" horiz-adv-x="1748" d="M0 1012h145l336 -846l324 846h141l328 -846l334 846h139l-410 -1012h-129l-334 856l-327 -856h-129zM770 1137l160 297h223l-295 -297h-88z" />
<glyph unicode="&#x1e84;" horiz-adv-x="2174" d="M6 1446h146l421 -1299l447 1299h149l457 -1299l406 1299h137l-459 -1446h-168l-448 1300l-445 -1300h-164zM682 1634v197h149v-197h-149zM1343 1634v197h150v-197h-150z" />
<glyph unicode="&#x1e85;" horiz-adv-x="1748" d="M0 1012h145l336 -846l324 846h141l328 -846l334 846h139l-410 -1012h-129l-334 856l-327 -856h-129zM530 1155v197h144v-197h-144zM1073 1155v197h144v-197h-144z" />
<glyph unicode="&#x1ef2;" horiz-adv-x="1492" d="M12 1446h172l576 -744l557 744h164l-656 -860v-586h-131v586zM463 1843h227l176 -258h-98z" />
<glyph unicode="&#x1ef3;" horiz-adv-x="1150" d="M0 1012h162l452 -918l387 918h146l-477 -1090q-48 -112 -77.5 -163t-76.5 -87q-89 -69 -285 -69q-100 0 -208 24v127q109 -37 204 -37q64 0 113.5 13.5t80 32.5t56 53.5t37.5 59.5t29 69zM303 1432h225l154 -297h-88z" />
<glyph unicode="&#x2000;" horiz-adv-x="1022" />
<glyph unicode="&#x2001;" horiz-adv-x="2044" />
<glyph unicode="&#x2002;" horiz-adv-x="1022" />
<glyph unicode="&#x2003;" horiz-adv-x="2044" />
<glyph unicode="&#x2004;" horiz-adv-x="681" />
<glyph unicode="&#x2005;" horiz-adv-x="511" />
<glyph unicode="&#x2006;" horiz-adv-x="340" />
<glyph unicode="&#x2007;" horiz-adv-x="340" />
<glyph unicode="&#x2008;" horiz-adv-x="255" />
<glyph unicode="&#x2009;" horiz-adv-x="408" />
<glyph unicode="&#x200a;" horiz-adv-x="113" />
<glyph unicode="&#x2010;" horiz-adv-x="745" d="M78 541v123h590v-123h-590z" />
<glyph unicode="&#x2011;" horiz-adv-x="745" d="M78 541v123h590v-123h-590z" />
<glyph unicode="&#x2012;" horiz-adv-x="745" d="M78 541v123h590v-123h-590z" />
<glyph unicode="&#x2013;" horiz-adv-x="1249" d="M78 541v123h1093v-123h-1093z" />
<glyph unicode="&#x2014;" horiz-adv-x="1865" d="M78 541v123h1710v-123h-1710z" />
<glyph unicode="&#x2018;" horiz-adv-x="555" d="M197 1006v260q0 90 36.5 138t124.5 54v-76q-43 -4 -64.5 -34.5t-21.5 -75.5v-51h97v-215h-172z" />
<glyph unicode="&#x2019;" horiz-adv-x="555" d="M188 1233v213h174v-258q0 -90 -37 -137.5t-124 -53.5v74q43 4 64.5 35t21.5 76v51h-99z" />
<glyph unicode="&#x201a;" horiz-adv-x="555" d="M188 0v213h174v-258q0 -90 -36.5 -138.5t-124.5 -54.5v76q43 4 64.5 35t21.5 76v51h-99z" />
<glyph unicode="&#x201c;" horiz-adv-x="854" d="M199 1012v243q0 96 35 151.5t126 55.5v-82q-19 0 -33 -6t-22 -18.5t-13 -23.5t-6.5 -30t-2 -29t-0.5 -30v-18h90v-213h-174zM483 1012v243q0 96 36.5 151.5t127.5 55.5v-82q-27 0 -44.5 -12.5t-24.5 -36t-9 -43t-2 -47.5v-16h90v-213h-174z" />
<glyph unicode="&#x201d;" horiz-adv-x="854" d="M195 1233v213h174v-242q0 -96 -35.5 -151.5t-126.5 -55.5v80q28 1 45 13.5t23.5 37.5t8 42t1.5 47v16h-90zM481 1233v213h174v-242q0 -96 -36 -151.5t-127 -55.5v80q19 0 33 6.5t22 19t13 24t6.5 31t2 29.5t0.5 30v16h-88z" />
<glyph unicode="&#x201e;" horiz-adv-x="854" d="M195 0v213h174v-242q0 -46 -7 -81t-24.5 -65.5t-50.5 -46.5t-80 -16v82q27 1 44 13.5t23.5 36.5t8.5 42t2 46v18h-90zM481 0v213h174v-242q0 -96 -36 -152.5t-127 -56.5v82q18 0 32 6t22 18t13 24t7 30.5t2.5 30t0.5 29.5v18h-88z" />
<glyph unicode="&#x2020;" horiz-adv-x="1110" d="M74 909v107h420v430h122v-430h418v-107h-418v-909h-122v909h-420z" />
<glyph unicode="&#x2021;" horiz-adv-x="1110" d="M68 952v109h426v385h122v-385h426v-109h-426v-393h426v-108h-426v-451h-122v451h-420v108h420v393h-426z" />
<glyph unicode="&#x2022;" horiz-adv-x="684" d="M115 500v446h454v-446h-454z" />
<glyph unicode="&#x2026;" horiz-adv-x="2048" d="M262 0v164h158v-164h-158zM944 0v164h158v-164h-158zM1626 0v164h160v-164h-160z" />
<glyph unicode="&#x202f;" horiz-adv-x="408" />
<glyph unicode="&#x2030;" horiz-adv-x="3201" d="M61 965q0 106 36.5 193.5t97.5 143t137 85.5t157 30q84 0 155.5 -27t121 -72t84.5 -104.5t51.5 -123.5t16.5 -129q0 -85 -28.5 -165.5t-81.5 -145.5t-137.5 -104.5t-187.5 -39.5q-98 0 -180 40.5t-133.5 106.5t-80 147t-28.5 165zM164 963q0 -164 90.5 -265.5 t232.5 -101.5q138 0 232 96.5t94 263.5q0 70 -20 135t-58 118.5t-102 85.5t-144 32q-156 0 -240.5 -102.5t-84.5 -261.5zM641 0l817 1409h109l-817 -1409h-109zM1294 446q0 106 36.5 193.5t97.5 143.5t137 86t157 30q104 0 188 -41t135 -108t78 -146.5t27 -161.5 q0 -85 -28.5 -165t-81 -145t-137 -104.5t-187.5 -39.5q-98 0 -180 40.5t-133.5 106t-80 146.5t-28.5 165zM1397 444q0 -164 90.5 -265t232.5 -101q138 0 232 96.5t94 263.5q0 70 -20 135t-58 118.5t-102 85.5t-144 32q-156 0 -240.5 -103t-84.5 -262zM2277 446 q0 106 36.5 193.5t97.5 143.5t137 86t157 30q104 0 188 -41t135 -108t78 -146.5t27 -161.5q0 -85 -28.5 -165t-81 -145t-137 -104.5t-187.5 -39.5q-98 0 -180 40.5t-133.5 106t-80 146.5t-28.5 165zM2380 444q0 -164 90.5 -265t232.5 -101q138 0 232 96.5t94 263.5 q0 70 -20 135t-58 118.5t-102 85.5t-144 32q-156 0 -240.5 -103t-84.5 -262z" />
<glyph unicode="&#x2039;" horiz-adv-x="512" d="M47 543v112l414 355v-115l-281 -297l281 -297v-117z" />
<glyph unicode="&#x203a;" horiz-adv-x="512" d="M49 190v119l277 289l-277 291v119l410 -355v-108z" />
<glyph unicode="&#x2044;" horiz-adv-x="256" d="M-336 0l819 1409h109l-817 -1409h-111z" />
<glyph unicode="&#x205f;" horiz-adv-x="511" />
<glyph unicode="&#x20ac;" horiz-adv-x="1720" d="M61 555l60 109h94v49q0 2 1 27t1 44h-156l58 109h110q56 274 268 431t527 157q394 0 608 -240l-76 -141q-83 123 -219 188.5t-309 65.5q-264 0 -431 -120.5t-208 -340.5h1067l-53 -109h-1032q-2 -31 -2 -71v-49h972l-53 -109h-905q53 -223 221 -344t426 -121 q167 0 316.5 60t240.5 163v-178q-122 -90 -257.5 -131t-313.5 -41q-320 0 -527.5 154.5t-259.5 437.5h-168z" />
<glyph unicode="&#x2122;" horiz-adv-x="1406" d="M39 1362v84h536v-84h-217v-596h-98v596h-221zM633 766v680h137l176 -557l174 557h140v-680h-91l5 584l-183 -584h-86l-182 582q8 -523 8 -582h-98z" />
<glyph unicode="&#x2202;" horiz-adv-x="1175" d="M70 412q0 207 135.5 331.5t361.5 124.5q205 0 383 -127q4 35 4 82q0 274 -88.5 398.5t-283.5 124.5q-90 0 -220 -27l-18 117q134 32 242 32q255 0 379.5 -158t124.5 -481q0 -415 -132 -632t-403 -217q-215 0 -350 120.5t-135 311.5zM217 406q0 -138 92 -223t242 -85 q346 0 385 520q-176 132 -381 132q-156 0 -247 -92.5t-91 -251.5z" />
<glyph unicode="&#x2206;" horiz-adv-x="1492" d="M-4 0l686 1446h123l692 -1446h-1501zM217 129h1049l-527 1143z" />
<glyph unicode="&#x220f;" horiz-adv-x="1648" d="M156 -250v1696h1337v-1696h-137v1573h-1065v-1573h-135z" />
<glyph unicode="&#x2211;" horiz-adv-x="1552" d="M90 -129l731 750l-731 700v125h1380v-121h-1202l733 -698l-747 -758h1216v-119h-1380v121z" />
<glyph unicode="&#x221a;" horiz-adv-x="1576" d="M141 285l258 127l334 -619l572 1653h141l-635 -1825h-127l-350 625l-135 -72z" />
<glyph unicode="&#x221e;" horiz-adv-x="1581" d="M72 614q0 165 97 267t255 102q112 0 194.5 -59.5t180.5 -206.5l51 57q104 115 182 161t166 46q134 0 223.5 -98.5t89.5 -247.5q0 -168 -98 -272.5t-256 -104.5q-108 0 -191.5 56t-185.5 208q-99 -130 -194 -196t-201 -66q-136 0 -224.5 100t-88.5 254zM199 610 q0 -103 50.5 -169t131.5 -66q48 0 105 31t104 83l123 134q-93 138 -159.5 192.5t-143.5 54.5q-94 0 -152.5 -72t-58.5 -188zM864 618q96 -144 161 -195.5t142 -51.5q94 0 155.5 74t61.5 188q0 104 -51 168.5t-133 64.5q-52 0 -105 -29.5t-122 -103.5z" />
<glyph unicode="&#x222b;" horiz-adv-x="722" d="M92 -213q52 -29 98 -29q53 0 73 30.5t20 111.5v1343q0 20 0.5 34t4.5 40.5t11 45t22.5 41.5t36.5 37t54 24t75 10q58 0 123 -25v-127q-59 39 -102 39q-26 0 -43.5 -8t-27 -19.5t-14.5 -34t-6 -41.5t-1 -51v-1298q0 -81 -6 -120.5t-23 -68.5q-49 -83 -174 -83 q-52 0 -121 20v129z" />
<glyph unicode="&#x2248;" horiz-adv-x="1693" d="M164 358q94 111 179 155t196 44q113 0 315 -78l107 -41q126 -49 188 -49q77 0 135.5 30t151.5 120l94 -78q-185 -197 -391 -197q-94 0 -209 47l-162 66q-138 55 -246 55q-65 0 -114.5 -28t-124.5 -103l-23 -22zM164 733q94 111 179 155t196 44q113 0 315 -78l107 -41 q126 -49 188 -49q70 0 133 31.5t154 119.5l94 -79q-96 -102 -190.5 -148.5t-200.5 -46.5q-96 0 -211 47l-160 64q-143 57 -246 57q-67 0 -118 -27.5t-121 -103.5l-23 -25z" />
<glyph unicode="&#x2260;" horiz-adv-x="1581" d="M197 358v115h448l133 246h-581v117h653l197 342h143l-197 -342h393v-117h-464l-136 -246h600v-115h-665l-209 -370h-143l209 370h-381z" />
<glyph unicode="&#x2264;" horiz-adv-x="1581" d="M213 0v119h1110v-119h-1110zM213 690v137l1110 467v-129l-981 -401l981 -416v-135z" />
<glyph unicode="&#x2265;" horiz-adv-x="1581" d="M258 0v119h1110v-119h-1110zM258 213v129l981 401l-981 416v135l1110 -477v-137z" />
<glyph unicode="&#x25ca;" horiz-adv-x="1581" d="M324 729l397 717h129l407 -725l-407 -721h-129zM467 737l319 -616l324 598l-322 608z" />
<glyph unicode="&#x25fc;" horiz-adv-x="1013" d="M0 0v1014h1014v-1014h-1014z" />
</font>
</defs>
</svg>
